<?xml version="1.0" encoding="UTF-8"?>
<svg id="Layer_1" data-name="Layer 1" xmlns="http://www.w3.org/2000/svg" viewBox="0 0 317.16 92.99">
  <defs>
    <style>
      .cls-1 {
        fill: #dc4a38;
      }
    </style>
  </defs>
  <rect class="cls-1" y="73.17" width="317.16" height="19.82"/>
  <g>
    <path d="M33.47,53.21c-1.68.86-3.45,1.51-5.3,1.95-1.85.43-3.79.65-5.84.65-7.25,0-12.79-2.39-16.61-7.17C1.91,43.85,0,36.95,0,27.92S1.91,11.95,5.73,7.17C9.55,2.39,15.08,0,22.34,0c2.04,0,4,.22,5.87.65,1.87.43,3.63,1.08,5.26,1.95v11.82c-1.83-1.68-3.6-2.91-5.31-3.69-1.72-.78-3.49-1.17-5.31-1.17-3.89,0-6.83,1.54-8.81,4.63-1.98,3.09-2.97,7.67-2.97,13.74s.99,10.62,2.97,13.71c1.98,3.09,4.92,4.63,8.81,4.63,1.82,0,3.6-.39,5.31-1.17,1.72-.78,3.49-2.01,5.31-3.69v11.82Z"/>
    <path d="M54.65.97h13l14.52,53.79h-10.63l-3.31-13.29h-14.23l-3.24,13.29h-10.63L54.65.97ZM61.13,10.7l-5.01,22.01h10.05l-5.04-22.01Z"/>
    <path d="M89.2.97h14.59c7.42,0,12.76,1.32,16.01,3.96s4.88,6.93,4.88,12.86-1.63,10.22-4.88,12.86c-3.25,2.64-8.59,3.96-16.01,3.96h-3.96v20.14h-10.63V.97ZM99.83,9.91v15.78h4.36c3.48,0,5.93-.59,7.33-1.77,1.4-1.18,2.11-3.22,2.11-6.12s-.7-4.95-2.11-6.12c-1.41-1.18-3.85-1.77-7.33-1.77h-4.36Z"/>
    <path d="M155.3,54.76h-10.63V10.27h-13.65V.97h37.93v9.29h-13.65v44.49Z"/>
    <path d="M176.02,34.91V.97h10.63v36.6c0,2.69.68,4.8,2.05,6.32,1.37,1.53,3.27,2.29,5.69,2.29s4.32-.76,5.69-2.29c1.37-1.52,2.05-3.63,2.05-6.32V.97h10.63v33.94c0,7.3-1.45,12.61-4.36,15.92-2.91,3.31-7.58,4.97-14.01,4.97s-11.08-1.66-14-4.97-4.38-8.62-4.38-15.92Z"/>
    <path d="M245.69,29.36c1.06.22,1.98.71,2.76,1.5.78.78,1.73,2.3,2.86,4.56l9.73,19.35h-11.67l-6.48-13.58c-.19-.38-.44-.91-.76-1.58-1.9-4.06-4.13-6.09-6.7-6.09h-3.39v21.25h-10.63V.97h15.35c6.92,0,11.88,1.22,14.9,3.67,3.01,2.45,4.52,6.44,4.52,11.96,0,3.7-.9,6.64-2.7,8.83-1.8,2.19-4.39,3.49-7.78,3.93ZM232.04,9.91v14.66h5.01c2.91,0,4.99-.57,6.25-1.71,1.26-1.14,1.89-3.02,1.89-5.64s-.62-4.49-1.87-5.62c-1.25-1.13-3.34-1.69-6.27-1.69h-5.01Z"/>
    <path d="M300.59,54.76h-33.5V.97h33.5v9.37h-22.88v11.6h20.71v9.37h-20.71v14.09h22.88v9.37Z"/>
  </g>
</svg>