<?xml version="1.0" encoding="UTF-8"?>
<svg id="Layer_1" data-name="Layer 1" xmlns="http://www.w3.org/2000/svg" viewBox="0 0 317.16 92.99">
  <defs>
    <style>
      .cls-1 {
        fill: #dc4a38;
      }
    </style>
  </defs>
  <rect class="cls-1" y="73.17" width="317.16" height="19.82"/>
  <g>
    <path d="M34.07,53.21c-1.68.86-3.45,1.51-5.3,1.95-1.85.43-3.79.65-5.84.65-7.25,0-12.79-2.39-16.61-7.17C2.51,43.85.6,36.95.6,27.92S2.51,11.95,6.33,7.17C10.15,2.39,15.69,0,22.94,0c2.04,0,4,.22,5.87.65,1.87.43,3.63,1.08,5.26,1.95v11.82c-1.83-1.68-3.6-2.91-5.31-3.69-1.72-.78-3.49-1.17-5.31-1.17-3.89,0-6.83,1.54-8.81,4.63-1.98,3.09-2.97,7.67-2.97,13.74s.99,10.62,2.97,13.71c1.98,3.09,4.92,4.63,8.81,4.63,1.82,0,3.6-.39,5.31-1.17,1.72-.78,3.49-2.01,5.31-3.69v11.82Z"/>
    <path d="M47.65,54.76V.97h10.63v44.42h22.73v9.37h-33.36Z"/>
    <path d="M87.28,27.92c0-9.2,1.59-16.15,4.77-20.86,3.18-4.71,7.88-7.06,14.1-7.06s10.96,2.35,14.14,7.06c3.18,4.71,4.77,11.66,4.77,20.86s-1.59,16.12-4.77,20.82c-3.18,4.71-7.9,7.06-14.14,7.06s-10.92-2.35-14.1-7.06c-3.18-4.71-4.77-11.65-4.77-20.82ZM106.16,9.55c-2.71,0-4.7,1.45-5.94,4.34-1.25,2.89-1.87,7.57-1.87,14.03s.62,11.1,1.87,14c1.25,2.89,3.23,4.34,5.94,4.34s4.73-1.45,5.98-4.34c1.25-2.89,1.87-7.56,1.87-14s-.62-11.14-1.87-14.03c-1.25-2.89-3.24-4.34-5.98-4.34Z"/>
    <path d="M146.76,31.16c-5.36-2.04-8.98-4.18-10.88-6.43-1.9-2.25-2.85-5.27-2.85-9.06,0-4.88,1.56-8.71,4.68-11.49,3.12-2.79,7.41-4.18,12.86-4.18,2.47,0,4.95.28,7.42.85,2.47.56,4.92,1.4,7.35,2.5v10.38c-2.28-1.61-4.6-2.83-6.95-3.67-2.35-.84-4.68-1.26-6.99-1.26-2.57,0-4.54.52-5.91,1.55-1.37,1.03-2.05,2.51-2.05,4.43,0,1.49.5,2.72,1.5,3.69,1,.97,3.08,2.05,6.25,3.22l4.58,1.73c4.32,1.58,7.5,3.69,9.55,6.3,2.04,2.62,3.06,5.92,3.06,9.91,0,5.43-1.6,9.48-4.81,12.16-3.21,2.68-8.05,4.02-14.54,4.02-2.67,0-5.34-.32-8.02-.96-2.68-.64-5.27-1.58-7.76-2.83v-10.99c2.83,2.02,5.58,3.52,8.23,4.5,2.65.99,5.28,1.48,7.87,1.48s4.65-.59,6.09-1.78c1.44-1.19,2.16-2.85,2.16-4.99,0-1.61-.48-3.02-1.44-4.23-.96-1.21-2.35-2.17-4.18-2.86l-5.22-1.98Z"/>
    <path d="M212.36,54.76h-33.5V.97h33.5v9.37h-22.88v11.6h20.71v9.37h-20.71v14.09h22.88v9.37Z"/>
  </g>
</svg>