<?xml version="1.0" encoding="UTF-8"?>
<svg id="Layer_1" data-name="Layer 1" xmlns="http://www.w3.org/2000/svg" viewBox="0 0 205.3 33.11">
  <path d="M0,.58h6.75c5.22,0,8.97,1.24,11.27,3.73,2.29,2.49,3.44,6.55,3.44,12.2s-1.15,9.74-3.44,12.24-6.05,3.75-11.27,3.75H0V.58ZM6.31,6.26v20.54h1.71c2.48,0,4.25-.78,5.3-2.34,1.05-1.56,1.58-4.21,1.58-7.96s-.53-6.36-1.58-7.91c-1.06-1.55-2.82-2.33-5.3-2.33h-1.71Z"/>
  <path d="M32.75.58h7.72l8.62,31.92h-6.31l-1.97-7.89h-8.44l-1.92,7.89h-6.31L32.75.58ZM36.6,6.35l-2.97,13.06h5.96l-2.99-13.06Z"/>
  <path d="M67.04,17.42c.63.13,1.17.42,1.64.89.46.46,1.03,1.37,1.7,2.7l5.77,11.48h-6.93l-3.85-8.06c-.11-.23-.26-.54-.45-.94-1.13-2.41-2.45-3.61-3.98-3.61h-2.01v12.61h-6.31V.58h9.11c4.1,0,7.05.73,8.84,2.18,1.79,1.45,2.68,3.82,2.68,7.1,0,2.19-.53,3.94-1.6,5.24-1.07,1.3-2.61,2.07-4.62,2.33ZM58.94,5.88v8.7h2.97c1.72,0,2.96-.34,3.71-1.02.75-.68,1.12-1.79,1.12-3.35s-.37-2.67-1.11-3.33c-.74-.67-1.98-1-3.72-1h-2.97Z"/>
  <path d="M78.65.58h6.31v12.61L94.83.58h7.14l-10.07,12.57,10.43,19.35h-7.01l-7.57-14.37-2.8,3.55v10.82h-6.31V.58Z"/>
  <path d="M105.05.58h6.78l8.89,23.19V.58h5.56v31.92h-6.73l-8.94-23.19v23.19h-5.56V.58Z"/>
  <path d="M152.33,32.49h-19.88V.58h19.88v5.56h-13.57v6.88h12.29v5.56h-12.29v8.36h13.57v5.56Z"/>
  <path d="M166.12,18.49c-3.18-1.21-5.33-2.48-6.46-3.81-1.13-1.33-1.69-3.12-1.69-5.38,0-2.89.93-5.17,2.78-6.82,1.85-1.65,4.4-2.48,7.63-2.48,1.47,0,2.94.17,4.4.5s2.92.83,4.36,1.49v6.16c-1.35-.95-2.73-1.68-4.13-2.18-1.4-.5-2.78-.75-4.15-.75-1.52,0-2.69.31-3.51.92-.81.61-1.22,1.49-1.22,2.63,0,.88.3,1.61.89,2.19.59.58,1.83,1.22,3.71,1.91l2.71,1.03c2.56.94,4.45,2.19,5.66,3.74,1.21,1.55,1.82,3.51,1.82,5.88,0,3.22-.95,5.62-2.85,7.21s-4.78,2.38-8.63,2.38c-1.58,0-3.17-.19-4.76-.57-1.59-.38-3.12-.94-4.61-1.68v-6.52c1.68,1.2,3.31,2.09,4.88,2.67,1.57.58,3.13.88,4.67.88s2.76-.35,3.61-1.06c.85-.71,1.28-1.69,1.28-2.96,0-.96-.29-1.79-.85-2.51-.57-.72-1.4-1.29-2.48-1.7l-3.1-1.18Z"/>
  <path d="M192.48,18.49c-3.18-1.21-5.33-2.48-6.46-3.81-1.13-1.33-1.69-3.12-1.69-5.38,0-2.89.93-5.17,2.78-6.82,1.85-1.65,4.4-2.48,7.63-2.48,1.47,0,2.94.17,4.4.5s2.92.83,4.36,1.49v6.16c-1.35-.95-2.73-1.68-4.13-2.18-1.4-.5-2.78-.75-4.15-.75-1.52,0-2.69.31-3.51.92-.81.61-1.22,1.49-1.22,2.63,0,.88.3,1.61.89,2.19.59.58,1.83,1.22,3.71,1.91l2.71,1.03c2.56.94,4.45,2.19,5.66,3.74,1.21,1.55,1.82,3.51,1.82,5.88,0,3.22-.95,5.62-2.85,7.21s-4.78,2.38-8.63,2.38c-1.58,0-3.17-.19-4.76-.57-1.59-.38-3.12-.94-4.61-1.68v-6.52c1.68,1.2,3.31,2.09,4.88,2.67,1.57.58,3.13.88,4.67.88s2.76-.35,3.61-1.06c.85-.71,1.28-1.69,1.28-2.96,0-.96-.29-1.79-.85-2.51-.57-.72-1.4-1.29-2.48-1.7l-3.1-1.18Z"/>
</svg>