<?xml version="1.0" encoding="UTF-8"?>
<svg id="Layer_1" xmlns="http://www.w3.org/2000/svg" version="1.1" viewBox="0 0 720 360">
  <!-- Generator: Adobe Illustrator 29.6.1, SVG Export Plug-In . SVG Version: 2.1.1 Build 9)  -->
  <defs>
    <style>
      .st0 {
        fill: #fff;
      }
    </style>
  </defs>
  <path class="st0" d="M670.7,33.6c8.5,0,15.5,6.9,15.5,15.5v261c0,8.5-6.9,15.5-15.5,15.5H47.6c-8.5,0-15.5-6.9-15.5-15.5V49.1c0-8.5,6.9-15.5,15.5-15.5h623M670.7,23.6H47.6c-14.1,0-25.5,11.4-25.5,25.5v261c0,14.1,11.4,25.5,25.5,25.5h623c14.1,0,25.5-11.4,25.5-25.5V49.1c0-14.1-11.4-25.5-25.5-25.5h0Z"/>
  <g>
    <path class="st0" d="M103.2,121c0-1.8,1.4-3.4,3.4-3.4h72.1c1.9,0,3.4,1.6,3.4,3.4v14.5c0,1.8-1.4,3.4-3.4,3.4h-52.4v29h43.7c1.8,0,3.4,1.6,3.4,3.4v14.7c0,1.9-1.6,3.4-3.4,3.4h-43.7v31h52.4c1.9,0,3.4,1.6,3.4,3.4v14.5c0,1.8-1.4,3.4-3.4,3.4h-72.1c-1.9,0-3.4-1.6-3.4-3.4v-117.2Z"/>
    <path class="st0" d="M202,121c0-1.8,1.4-3.4,3.2-3.4h42c34.2,0,62.2,27.8,62.2,61.8s-28,62.2-62.2,62.2h-42c-1.8,0-3.2-1.6-3.2-3.4v-117.2ZM245,220c23,0,39.8-17.4,39.8-40.6s-16.8-40.4-39.8-40.4h-20.2v80.9h20.2Z"/>
    <path class="st0" d="M327.4,121c0-1.8,1.6-3.4,3.4-3.4h16.5c1.8,0,3.4,1.6,3.4,3.4v117.2c0,1.8-1.6,3.4-3.4,3.4h-16.5c-1.8,0-3.4-1.6-3.4-3.4v-117.2Z"/>
    <path class="st0" d="M394.1,138.9h-27.1c-1.9,0-3.4-1.6-3.4-3.4v-14.5c0-1.8,1.4-3.4,3.4-3.4h77.4c1.9,0,3.4,1.6,3.4,3.4v14.5c0,1.8-1.4,3.4-3.4,3.4h-27.1v99.4c0,1.8-1.6,3.4-3.4,3.4h-16.5c-1.8,0-3.4-1.6-3.4-3.4v-99.4Z"/>
    <path class="st0" d="M494.7,121c0-1.8,1.6-3.4,3.4-3.4h16.5c1.8,0,3.4,1.6,3.4,3.4v117.2c0,1.8-1.6,3.4-3.4,3.4h-16.5c-1.8,0-3.4-1.6-3.4-3.4v-117.2Z"/>
    <path class="st0" d="M561.5,138.9h-27.1c-1.9,0-3.4-1.6-3.4-3.4v-14.5c0-1.8,1.4-3.4,3.4-3.4h77.4c1.9,0,3.4,1.6,3.4,3.4v14.5c0,1.8-1.4,3.4-3.4,3.4h-27.1v99.4c0,1.8-1.6,3.4-3.4,3.4h-16.5c-1.8,0-3.4-1.6-3.4-3.4v-99.4Z"/>
  </g>
</svg>