<?xml version="1.0" encoding="UTF-8"?>
<svg id="Layer_1" data-name="Layer 1" xmlns="http://www.w3.org/2000/svg" viewBox="0 0 466.89 295.15">
  <path d="M43.74,11.3h-27.61v14h25.13v11.3h-25.13v28.31H3.3V0h40.44v11.3Z"/>
  <path d="M84.09,34.26c1.28.26,2.38.86,3.33,1.8.94.94,2.09,2.78,3.46,5.5l11.74,23.35h-14.09l-7.83-16.39c-.23-.46-.54-1.1-.91-1.91-2.29-4.9-4.99-7.35-8.09-7.35h-4.09v25.65h-12.83V0h18.52c8.35,0,14.34,1.48,17.98,4.43,3.64,2.96,5.46,7.77,5.46,14.44,0,4.46-1.09,8.02-3.26,10.65-2.17,2.64-5.3,4.22-9.39,4.74ZM67.61,10.78v17.7h6.04c3.51,0,6.02-.69,7.54-2.07,1.52-1.38,2.28-3.65,2.28-6.8s-.75-5.42-2.26-6.78c-1.51-1.36-4.03-2.04-7.57-2.04h-6.04Z"/>
  <path d="M110.09,11.3V0h38.65v11.3h-12.91v42.31h12.91v11.3h-38.65v-11.3h12.91V11.3h-12.91Z"/>
  <path d="M162.18,0h13.74c10.61,0,18.25,2.53,22.91,7.59,4.67,5.06,7,13.33,7,24.81s-2.33,19.81-7,24.89c-4.67,5.09-12.3,7.63-22.91,7.63h-13.74V0ZM175.01,11.57v41.78h3.48c5.04,0,8.64-1.59,10.78-4.76,2.14-3.17,3.22-8.57,3.22-16.2s-1.07-12.93-3.22-16.09c-2.15-3.16-5.74-4.74-10.78-4.74h-3.48Z"/>
  <path d="M228.79,0h15.7l17.52,64.92h-12.83l-4-16.04h-17.17l-3.91,16.04h-12.83L228.79,0ZM236.62,11.74l-6.04,26.57h12.13l-6.09-26.57Z"/>
  <path d="M.48,76.33h12.83v25.65l20.09-25.65h14.52l-20.48,25.57,21.22,39.35h-14.26l-15.39-29.22-5.7,7.22v22H.48v-64.92Z"/>
  <path d="M68.96,76.33h15.7l17.52,64.92h-12.83l-4-16.04h-17.17l-3.91,16.04h-12.83l17.52-64.92ZM76.79,88.07l-6.04,26.57h12.13l-6.09-26.57Z"/>
  <path d="M108.57,76.33h12.83v24.74h16.04v-24.74h12.83v64.92h-12.83v-28.87h-16.04v28.87h-12.83v-64.92Z"/>
  <path d="M164.01,141.24v-64.92h12.83v53.61h27.44v11.3h-40.26Z"/>
  <path d="M211.83,108.85c0-11.1,1.92-19.49,5.76-25.17,3.84-5.68,9.51-8.52,17.02-8.52s13.23,2.84,17.07,8.52c3.84,5.68,5.76,14.07,5.76,25.17s-1.92,19.45-5.76,25.13c-3.84,5.68-9.53,8.52-17.07,8.52s-13.18-2.84-17.02-8.52c-3.84-5.68-5.76-14.06-5.76-25.13ZM234.62,86.67c-3.28,0-5.67,1.75-7.17,5.24-1.51,3.49-2.26,9.14-2.26,16.94s.75,13.4,2.26,16.89c1.51,3.49,3.9,5.24,7.17,5.24s5.71-1.75,7.22-5.24c1.51-3.49,2.26-9.12,2.26-16.89s-.75-13.44-2.26-16.94c-1.51-3.49-3.91-5.24-7.22-5.24Z"/>
  <path d="M0,193.61v-40.96h12.83v44.18c0,3.25.83,5.79,2.48,7.63,1.65,1.84,3.94,2.76,6.87,2.76s5.22-.92,6.87-2.76c1.65-1.84,2.48-4.38,2.48-7.63v-44.18h12.83v40.96c0,8.81-1.75,15.22-5.26,19.22s-9.15,6-16.91,6-13.37-2-16.89-6-5.28-10.41-5.28-19.22Z"/>
  <path d="M54.18,152.65h13.78l18.09,47.18v-47.18h11.3v64.92h-13.7l-18.17-47.18v47.18h-11.3v-64.92Z"/>
  <path d="M110.09,163.96v-11.31h38.65v11.31h-12.91v42.31h12.91v11.3h-38.65v-11.3h12.91v-42.31h-12.91Z"/>
  <path d="M160.66,152.57h20.91c7.22,0,12.65,1.37,16.28,4.11,3.64,2.74,5.46,6.83,5.46,12.28,0,4.17-1.07,7.43-3.22,9.78-2.15,2.35-5.29,3.71-9.44,4.09,4.96.49,8.69,2.16,11.2,5,2.51,2.84,3.76,6.81,3.76,11.91,0,6.26-1.88,10.8-5.65,13.61-3.77,2.81-9.9,4.22-18.39,4.22h-20.91v-65ZM173.05,162.78v15.09h8.52c3.25,0,5.56-.58,6.94-1.74,1.38-1.16,2.06-3.07,2.06-5.74s-.7-4.6-2.11-5.8c-1.41-1.2-3.7-1.8-6.89-1.8h-8.52ZM173.05,188.09v19.22h8.52c4.09,0,6.95-.7,8.59-2.09,1.64-1.39,2.46-3.81,2.46-7.26s-.86-6.03-2.57-7.57c-1.71-1.54-4.54-2.3-8.48-2.3h-8.52Z"/>
  <path d="M243.92,186.91c1.27.26,2.38.86,3.33,1.8.94.94,2.09,2.78,3.46,5.5l11.74,23.35h-14.09l-7.83-16.39c-.23-.46-.54-1.1-.91-1.91-2.29-4.9-4.99-7.35-8.09-7.35h-4.09v25.65h-12.83v-64.92h18.52c8.35,0,14.34,1.48,17.98,4.43,3.64,2.96,5.46,7.77,5.46,14.44,0,4.46-1.09,8.01-3.26,10.65-2.17,2.64-5.3,4.22-9.39,4.74ZM227.44,163.44v17.7h6.04c3.51,0,6.02-.69,7.54-2.07,1.52-1.38,2.28-3.64,2.28-6.8s-.75-5.42-2.26-6.78c-1.51-1.36-4.03-2.04-7.57-2.04h-6.04Z"/>
  <path d="M266.45,185.18c0-11.1,1.92-19.49,5.76-25.17,3.84-5.68,9.51-8.52,17.02-8.52s13.22,2.84,17.07,8.52c3.84,5.68,5.76,14.07,5.76,25.17s-1.92,19.45-5.76,25.13-9.53,8.52-17.07,8.52-13.18-2.84-17.02-8.52c-3.84-5.68-5.76-14.06-5.76-25.13ZM289.23,163c-3.28,0-5.67,1.75-7.17,5.24-1.51,3.49-2.26,9.14-2.26,16.94s.75,13.4,2.26,16.89c1.51,3.49,3.9,5.24,7.17,5.24s5.71-1.75,7.22-5.24c1.51-3.49,2.26-9.12,2.26-16.89s-.75-13.44-2.26-16.94c-1.51-3.49-3.91-5.24-7.22-5.24Z"/>
  <path d="M316.06,152.65h11.22l4.65,47.65,5.61-30.83h10.65l6.52,30.83,3.65-47.65h11.31l-7.48,64.92h-11.96l-7.39-34.09-6.91,34.09h-11.87l-8-64.92Z"/>
  <path d="M33.31,282.15v-12.39h-8.78v-10.78h20v29.74c-2.46,2.12-5.18,3.72-8.15,4.8-2.97,1.09-6.15,1.63-9.54,1.63-8.41,0-14.9-2.92-19.48-8.76-4.58-5.84-6.87-14.14-6.87-24.89s2.31-19.28,6.94-25.04c4.62-5.77,11.3-8.65,20.02-8.65,2.61,0,5.17.37,7.7,1.11,2.52.74,4.88,1.8,7.09,3.2v14.22c-1.8-2.32-3.86-4.07-6.2-5.24-2.33-1.17-4.89-1.76-7.67-1.76-4.87,0-8.51,1.83-10.91,5.5-2.41,3.67-3.61,9.23-3.61,16.67s1.16,12.71,3.48,16.48c2.32,3.77,5.7,5.65,10.13,5.65,1.33,0,2.49-.12,3.48-.37.99-.25,1.78-.62,2.39-1.11Z"/>
  <path d="M96.74,293.89h-40.44v-64.92h40.44v11.3h-27.61v14h25v11.3h-25v17h27.61v11.3Z"/>
  <path d="M107.79,228.98h13.78l18.09,47.18v-47.18h11.3v64.92h-13.7l-18.17-47.18v47.18h-11.3v-64.92Z"/>
  <path d="M201.96,293.89h-40.44v-64.92h40.44v11.3h-27.61v14h25v11.3h-25v17h27.61v11.3Z"/>
  <path d="M242.92,263.24c1.27.26,2.38.86,3.33,1.8.94.94,2.09,2.78,3.46,5.5l11.74,23.35h-14.09l-7.83-16.39c-.23-.46-.54-1.1-.91-1.91-2.29-4.9-4.99-7.35-8.09-7.35h-4.09v25.65h-12.83v-64.92h18.52c8.35,0,14.34,1.48,17.98,4.44,3.64,2.96,5.46,7.77,5.46,14.44,0,4.46-1.09,8.01-3.26,10.65-2.17,2.64-5.3,4.22-9.39,4.74ZM226.44,239.76v17.7h6.04c3.51,0,6.02-.69,7.54-2.07,1.52-1.38,2.28-3.64,2.28-6.8s-.75-5.42-2.26-6.78c-1.51-1.36-4.03-2.04-7.57-2.04h-6.04Z"/>
  <path d="M280.4,228.98h15.7l17.52,64.92h-12.83l-4-16.04h-17.17l-3.91,16.04h-12.83l17.52-64.92ZM288.23,240.72l-6.04,26.57h12.13l-6.09-26.57Z"/>
  <path d="M341.27,293.89h-12.83v-53.7h-16.48v-11.22h45.78v11.22h-16.48v53.7Z"/>
  <path d="M363.67,261.5c0-11.1,1.92-19.49,5.76-25.17,3.84-5.68,9.51-8.52,17.02-8.52s13.22,2.84,17.07,8.52c3.84,5.68,5.76,14.07,5.76,25.17s-1.92,19.45-5.76,25.13-9.53,8.52-17.07,8.52-13.18-2.84-17.02-8.52c-3.84-5.68-5.76-14.06-5.76-25.13ZM386.45,239.33c-3.28,0-5.67,1.75-7.17,5.24-1.51,3.49-2.26,9.14-2.26,16.94s.75,13.4,2.26,16.89c1.51,3.49,3.9,5.24,7.17,5.24s5.71-1.75,7.22-5.24c1.51-3.49,2.26-9.12,2.26-16.89s-.75-13.44-2.26-16.94c-1.51-3.49-3.91-5.24-7.22-5.24Z"/>
  <path d="M448.37,263.24c1.27.26,2.38.86,3.33,1.8.94.94,2.09,2.78,3.46,5.5l11.74,23.35h-14.09l-7.83-16.39c-.23-.46-.54-1.1-.91-1.91-2.29-4.9-4.99-7.35-8.09-7.35h-4.09v25.65h-12.83v-64.92h18.52c8.35,0,14.34,1.48,17.98,4.44,3.64,2.96,5.46,7.77,5.46,14.44,0,4.46-1.09,8.01-3.26,10.65-2.17,2.64-5.3,4.22-9.39,4.74ZM431.89,239.76v17.7h6.04c3.51,0,6.02-.69,7.54-2.07,1.52-1.38,2.28-3.64,2.28-6.8s-.75-5.42-2.26-6.78c-1.51-1.36-4.03-2.04-7.57-2.04h-6.04Z"/>
</svg>