<?xml version="1.0" encoding="UTF-8"?>
<svg id="Layer_1" data-name="Layer 1" xmlns="http://www.w3.org/2000/svg" viewBox="0 0 258.02 33.11">
  <path d="M0,.58h6.31v12.16h7.89V.58h6.31v31.92h-6.31v-14.19h-7.89v14.19H0V.58Z"/>
  <path d="M27.11,6.14V.58h19v5.56h-6.35v20.8h6.35v5.56h-19v-5.56h6.35V6.14h-6.35Z"/>
  <path d="M68.43,26.72v-6.09h-4.32v-5.3h9.83v14.62c-1.21,1.04-2.55,1.83-4.01,2.36s-3.02.8-4.69.8c-4.13,0-7.33-1.44-9.58-4.31-2.25-2.87-3.38-6.95-3.38-12.24s1.14-9.48,3.41-12.31c2.27-2.84,5.55-4.25,9.84-4.25,1.28,0,2.54.18,3.78.54,1.24.36,2.4.89,3.48,1.57v6.99c-.88-1.14-1.9-2-3.05-2.58-1.15-.58-2.4-.87-3.77-.87-2.39,0-4.18.9-5.37,2.7s-1.77,4.54-1.77,8.2.57,6.25,1.71,8.1,2.8,2.78,4.98,2.78c.66,0,1.23-.06,1.71-.18.48-.12.88-.3,1.18-.54Z"/>
  <path d="M79.07.58h6.31v12.16h7.89V.58h6.31v31.92h-6.31v-14.19h-7.89v14.19h-6.31V.58Z"/>
  <path d="M107.31,32.49V.58h6.31v26.36h13.49v5.56h-19.79Z"/>
  <path d="M132.54,6.14V.58h19v5.56h-6.35v20.8h6.35v5.56h-19v-5.56h6.35V6.14h-6.35Z"/>
  <path d="M173.86,26.72v-6.09h-4.32v-5.3h9.83v14.62c-1.21,1.04-2.55,1.83-4.01,2.36s-3.02.8-4.69.8c-4.13,0-7.33-1.44-9.58-4.31-2.25-2.87-3.38-6.95-3.38-12.24s1.14-9.48,3.41-12.31c2.27-2.84,5.55-4.25,9.84-4.25,1.28,0,2.54.18,3.78.54,1.24.36,2.4.89,3.48,1.57v6.99c-.88-1.14-1.9-2-3.05-2.58-1.15-.58-2.4-.87-3.77-.87-2.39,0-4.18.9-5.37,2.7s-1.77,4.54-1.77,8.2.57,6.25,1.71,8.1,2.8,2.78,4.98,2.78c.66,0,1.23-.06,1.71-.18.48-.12.88-.3,1.18-.54Z"/>
  <path d="M184.5.58h6.31v12.16h7.89V.58h6.31v31.92h-6.31v-14.19h-7.89v14.19h-6.31V.58Z"/>
  <path d="M224.26,32.49h-6.31V6.09h-8.1V.58h22.51v5.52h-8.1v26.4Z"/>
  <path d="M245.19,18.49c-3.18-1.21-5.33-2.48-6.46-3.81-1.13-1.33-1.69-3.12-1.69-5.38,0-2.89.93-5.17,2.78-6.82,1.85-1.65,4.4-2.48,7.63-2.48,1.47,0,2.94.17,4.4.5s2.92.83,4.36,1.49v6.16c-1.35-.95-2.73-1.68-4.12-2.18-1.4-.5-2.78-.75-4.15-.75-1.52,0-2.69.31-3.51.92-.81.61-1.22,1.49-1.22,2.63,0,.88.3,1.61.89,2.19.59.58,1.83,1.22,3.71,1.91l2.72,1.03c2.56.94,4.45,2.19,5.66,3.74,1.21,1.55,1.82,3.51,1.82,5.88,0,3.22-.95,5.62-2.85,7.21s-4.78,2.38-8.63,2.38c-1.58,0-3.17-.19-4.76-.57-1.59-.38-3.12-.94-4.61-1.68v-6.52c1.68,1.2,3.31,2.09,4.88,2.67,1.57.58,3.13.88,4.67.88s2.76-.35,3.61-1.06c.85-.71,1.28-1.69,1.28-2.96,0-.96-.29-1.79-.86-2.51s-1.4-1.29-2.48-1.7l-3.1-1.18Z"/>
</svg>