<?xml version="1.0" encoding="UTF-8"?>
<svg id="Layer_1" data-name="Layer 1" xmlns="http://www.w3.org/2000/svg" viewBox="0 0 445.64 33.11">
  <path d="M0,20.71V.58h6.31v21.72c0,1.6.41,2.85,1.22,3.75.81.91,1.94,1.36,3.38,1.36s2.57-.45,3.38-1.36c.81-.9,1.22-2.16,1.22-3.75V.58h6.31v20.14c0,4.33-.86,7.48-2.59,9.45-1.72,1.97-4.5,2.95-8.32,2.95s-6.57-.98-8.3-2.95S0,25.05,0,20.71Z"/>
  <path d="M26.64.58h6.78l8.89,23.19V.58h5.56v31.92h-6.73l-8.94-23.19v23.19h-5.56V.58Z"/>
  <path d="M54.13,6.14V.58h19v5.56h-6.35v20.8h6.35v5.56h-19v-5.56h6.35V6.14h-6.35Z"/>
  <path d="M79.48.53h10.28c3.55,0,6.22.67,8.01,2.02,1.79,1.35,2.68,3.36,2.68,6.04,0,2.05-.53,3.66-1.58,4.81-1.06,1.15-2.6,1.82-4.64,2.01,2.44.24,4.27,1.06,5.5,2.46,1.23,1.4,1.85,3.35,1.85,5.86,0,3.08-.93,5.31-2.78,6.69-1.85,1.38-4.87,2.07-9.04,2.07h-10.28V.53ZM85.57,5.56v7.42h4.19c1.6,0,2.73-.28,3.41-.85.68-.57,1.02-1.51,1.02-2.82s-.35-2.26-1.04-2.85c-.69-.59-1.82-.89-3.39-.89h-4.19ZM85.57,18v9.45h4.19c2.01,0,3.42-.34,4.22-1.03.81-.68,1.21-1.87,1.21-3.57s-.42-2.96-1.26-3.72c-.84-.75-2.23-1.13-4.17-1.13h-4.19Z"/>
  <path d="M120.42,17.42c.63.13,1.17.42,1.64.89.46.46,1.03,1.37,1.7,2.7l5.77,11.48h-6.93l-3.85-8.06c-.11-.23-.26-.54-.45-.94-1.13-2.41-2.45-3.61-3.98-3.61h-2.01v12.61h-6.31V.58h9.11c4.1,0,7.05.73,8.84,2.18,1.79,1.45,2.68,3.82,2.68,7.1,0,2.19-.53,3.94-1.6,5.24-1.07,1.3-2.61,2.07-4.62,2.33ZM112.31,5.88v8.7h2.97c1.72,0,2.96-.34,3.71-1.02.75-.68,1.12-1.79,1.12-3.35s-.37-2.67-1.11-3.33c-.74-.67-1.98-1-3.72-1h-2.97Z"/>
  <path d="M131.49,16.57c0-5.46.94-9.58,2.83-12.38,1.89-2.79,4.68-4.19,8.37-4.19s6.5,1.4,8.39,4.19c1.89,2.79,2.83,6.92,2.83,12.38s-.94,9.56-2.83,12.35c-1.89,2.79-4.69,4.19-8.39,4.19s-6.48-1.4-8.37-4.19c-1.89-2.79-2.83-6.91-2.83-12.35ZM142.69,5.66c-1.61,0-2.79.86-3.53,2.58-.74,1.72-1.11,4.49-1.11,8.33s.37,6.59,1.11,8.31c.74,1.72,1.92,2.58,3.53,2.58s2.81-.86,3.55-2.58c.74-1.72,1.11-4.49,1.11-8.31s-.37-6.61-1.11-8.33c-.74-1.72-1.92-2.58-3.55-2.58Z"/>
  <path d="M155.88.58h5.52l2.29,23.43,2.76-15.16h5.24l3.21,15.16,1.8-23.43h5.56l-3.68,31.92h-5.88l-3.63-16.76-3.4,16.76h-5.84l-3.93-31.92Z"/>
  <path d="M212.27,6.14V.58h19v5.56h-6.35v20.8h6.35v5.56h-19v-5.56h6.35V6.14h-6.35Z"/>
  <path d="M237.5.58h6.78l8.89,23.19V.58h5.56v31.92h-6.73l-8.94-23.19v23.19h-5.56V.58Z"/>
  <path d="M277.64,32.49h-6.31V6.09h-8.1V.58h22.51v5.52h-8.1v26.4Z"/>
  <path d="M311.14,32.49h-19.88V.58h19.88v5.56h-13.57v6.88h12.29v5.56h-12.29v8.36h13.57v5.56Z"/>
  <path d="M316.57.58h6.78l8.89,23.19V.58h5.56v31.92h-6.73l-8.94-23.19v23.19h-5.56V.58Z"/>
  <path d="M351.29,18.49c-3.18-1.21-5.33-2.48-6.46-3.81s-1.69-3.12-1.69-5.38c0-2.89.93-5.17,2.78-6.82,1.85-1.65,4.4-2.48,7.63-2.48,1.47,0,2.94.17,4.4.5s2.92.83,4.36,1.49v6.16c-1.35-.95-2.73-1.68-4.13-2.18-1.4-.5-2.78-.75-4.15-.75-1.53,0-2.69.31-3.51.92s-1.22,1.49-1.22,2.63c0,.88.3,1.61.89,2.19.59.58,1.83,1.22,3.71,1.91l2.71,1.03c2.57.94,4.45,2.19,5.67,3.74,1.21,1.55,1.82,3.51,1.82,5.88,0,3.22-.95,5.62-2.85,7.21-1.9,1.59-4.78,2.38-8.62,2.38-1.58,0-3.17-.19-4.76-.57-1.59-.38-3.12-.94-4.61-1.68v-6.52c1.68,1.2,3.31,2.09,4.88,2.67,1.57.58,3.13.88,4.67.88s2.76-.35,3.61-1.06c.86-.71,1.28-1.69,1.28-2.96,0-.96-.29-1.79-.86-2.51s-1.4-1.29-2.48-1.7l-3.1-1.18Z"/>
  <path d="M370.42,6.14V.58h19v5.56h-6.35v20.8h6.35v5.56h-19v-5.56h6.35V6.14h-6.35Z"/>
  <path d="M409.43,32.49h-6.31V6.09h-8.1V.58h22.51v5.52h-8.1v26.4Z"/>
  <path d="M419.63.58h6.8l6.2,12.83,6.22-12.83h6.8l-9.85,19.35v12.57h-6.31v-12.57l-9.85-19.35Z"/>
</svg>