<?xml version="1.0" encoding="UTF-8"?>
<svg id="Layer_1" xmlns="http://www.w3.org/2000/svg" version="1.1" viewBox="0 0 720 360">
  <!-- Generator: Adobe Illustrator 29.6.1, SVG Export Plug-In . SVG Version: 2.1.1 Build 9)  -->
  <defs>
    <style>
      .st0 {
        fill: #fff;
      }
    </style>
  </defs>
  <g>
    <path class="st0" d="M70.7,122.2c0-1.7,1.4-3.3,3.3-3.3h16.1c1.7,0,3.3,1.6,3.3,3.3v98h44.5c1.9,0,3.3,1.6,3.3,3.3v14.3c0,1.7-1.4,3.3-3.3,3.3h-63.9c-1.9,0-3.3-1.6-3.3-3.3v-115.6Z"/>
    <path class="st0" d="M206.3,117.2c34.9,0,62.9,28.1,62.9,63s-27.9,62.7-62.9,62.7-62.7-27.8-62.7-62.7,27.8-63,62.7-63ZM206.3,220.2c22,0,40.2-18,40.2-40s-18.2-40.3-40.2-40.3-40,18.3-40,40.3,18,40,40,40Z"/>
    <path class="st0" d="M270.1,123.5c-1-2.3.3-4.5,3-4.5h17.8c1.6,0,2.6,1,3,1.9l33.5,75.1h1.2l33.5-75.1c.3-.9,1.4-1.9,3-1.9h17.8c2.6,0,4,2.3,3,4.5l-54.1,117.5c-.5,1-1.4,1.9-3,1.9h-1.7c-1.6,0-2.4-.9-3-1.9l-54-117.5Z"/>
    <path class="st0" d="M396.5,122.2c0-1.7,1.4-3.3,3.3-3.3h71.1c1.9,0,3.3,1.6,3.3,3.3v14.3c0,1.7-1.4,3.3-3.3,3.3h-51.7v28.6h43.1c1.7,0,3.3,1.6,3.3,3.3v14.5c0,1.9-1.6,3.3-3.3,3.3h-43.1v30.6h51.7c1.9,0,3.3,1.6,3.3,3.3v14.3c0,1.7-1.4,3.3-3.3,3.3h-71.1c-1.9,0-3.3-1.6-3.3-3.3v-115.6Z"/>
    <path class="st0" d="M527.3,122.2c0-1.7,1.6-3.3,3.3-3.3h16.2c1.7,0,3.3,1.6,3.3,3.3v115.6c0,1.7-1.6,3.3-3.3,3.3h-16.2c-1.7,0-3.3-1.6-3.3-3.3v-115.6Z"/>
    <path class="st0" d="M593.1,139.9h-26.7c-1.9,0-3.3-1.6-3.3-3.3v-14.3c0-1.7,1.4-3.3,3.3-3.3h76.3c1.9,0,3.3,1.6,3.3,3.3v14.3c0,1.7-1.4,3.3-3.3,3.3h-26.7v98c0,1.7-1.6,3.3-3.3,3.3h-16.2c-1.7,0-3.3-1.6-3.3-3.3v-98Z"/>
  </g>
  <path class="st0" d="M669.8,34c8.5,0,15.5,6.9,15.5,15.5v261c0,8.5-6.9,15.5-15.5,15.5H46.8c-8.5,0-15.5-6.9-15.5-15.5V49.5c0-8.5,6.9-15.5,15.5-15.5h623M669.8,24H46.8c-14.1,0-25.5,11.4-25.5,25.5v261c0,14.1,11.4,25.5,25.5,25.5h623c14.1,0,25.5-11.4,25.5-25.5V49.5c0-14.1-11.4-25.5-25.5-25.5h0Z"/>
</svg>