<?xml version="1.0" encoding="UTF-8"?>
<svg id="Layer_1" xmlns="http://www.w3.org/2000/svg" version="1.1" viewBox="0 0 100 125">
  <!-- Generator: Adobe Illustrator 29.6.1, SVG Export Plug-In . SVG Version: 2.1.1 Build 9)  -->
  <defs>
    <style>
      .st0 {
        fill: #fff;
      }
    </style>
  </defs>
  <path class="st0" d="M50,95c17.1,0,31-13.9,31-31s-13.9-31-31-31-31,13.9-31,31,13.9,31,31,31ZM50,39c13.8,0,25,11.2,25,25s-11.2,25-25,25-25-11.2-25-25,11.2-25,25-25Z"/>
  <path class="st0" d="M39,67h8v8c0,1.7,1.3,3,3,3s3-1.3,3-3v-8h8c1.7,0,3-1.3,3-3s-1.3-3-3-3h-8v-8c0-1.7-1.3-3-3-3s-3,1.3-3,3v8h-8c-1.7,0-3,1.3-3,3s1.3,3,3,3Z"/>
</svg>