<?xml version="1.0" encoding="UTF-8"?>
<svg id="Layer_1" xmlns="http://www.w3.org/2000/svg" version="1.1" viewBox="0 0 360 360">
  <!-- Generator: Adobe Illustrator 29.6.1, SVG Export Plug-In . SVG Version: 2.1.1 Build 9)  -->
  <defs>
    <style>
      .st0 {
        fill: #fff;
      }
    </style>
  </defs>
  <path class="st0" d="M180,39.1c-77.7,0-140.9,63.2-140.9,140.9s63.1,140.9,140.9,140.9,140.9-63.1,140.9-140.9S257.7,39.1,180,39.1ZM180,293.6c-62.7,0-113.6-50.9-113.6-113.6s50.9-113.6,113.6-113.6,113.6,50.9,113.6,113.6-50.9,113.6-113.6,113.6h0Z"/>
  <path class="st0" d="M229.9,166.4h-36.3v-36.3c0-7.8-5.9-13.6-13.6-13.6s-13.6,5.9-13.6,13.6v36.3h-36.3c-7.8,0-13.6,5.9-13.6,13.6s5.9,13.6,13.6,13.6h36.3v36.3c0,7.8,5.9,13.6,13.6,13.6s13.6-5.9,13.6-13.6v-36.3h36.3c7.8,0,13.6-5.9,13.6-13.6s-5.9-13.6-13.6-13.6Z"/>
</svg>