<?xml version="1.0" encoding="UTF-8"?>
<svg id="Layer_1" xmlns="http://www.w3.org/2000/svg" version="1.1" viewBox="0 0 360 360">
  <!-- Generator: Adobe Illustrator 29.6.1, SVG Export Plug-In . SVG Version: 2.1.1 Build 9)  -->
  <defs>
    <style>
      .st0 {
        fill: #fff;
      }
    </style>
  </defs>
  <path class="st0" d="M180,24C94,24,24,94,24,180s69.9,156,156,156,156-69.9,156-156S266,24,180,24ZM180,305.8c-69.4,0-125.8-56.3-125.8-125.8s56.3-125.8,125.8-125.8,125.8,56.3,125.8,125.8-56.3,125.8-125.8,125.8Z"/>
  <path class="st0" d="M235.3,164.9h-40.2v-40.2c0-8.6-6.5-15.1-15.1-15.1s-15.1,6.5-15.1,15.1v40.2h-40.2c-8.6,0-15.1,6.5-15.1,15.1s6.5,15.1,15.1,15.1h40.2v40.2c0,8.6,6.5,15.1,15.1,15.1s15.1-6.5,15.1-15.1v-40.2h40.2c8.6,0,15.1-6.5,15.1-15.1s-6.5-15.1-15.1-15.1Z"/>
</svg>