<?xml version="1.0" encoding="UTF-8"?>
<svg id="Layer_1" xmlns="http://www.w3.org/2000/svg" version="1.1" viewBox="0 0 360 360">
  <!-- Generator: Adobe Illustrator 29.6.1, SVG Export Plug-In . SVG Version: 2.1.1 Build 9)  -->
  <defs>
    <style>
      .st0 {
        fill: #fff;
      }
    </style>
  </defs>
  <path class="st0" d="M334.5,241.5c-2.7-2.7-2.4-4.4-10.6-4.4s-15,6.7-15,15v56.3H51.2v-56.3c0-4.1-1.7-7.9-4.4-10.6-2.7-2.7-2.4-4.4-10.6-4.4s-15,6.7-15,15v70.3c0,1,0,1.8.2,2.7.8,7.5,7.2,13.4,14.9,13.4h287.3c7.2,0,13.3-5.2,14.7-12.1.3-1.2.5-2.5.5-3.9v-70.3h0c0-4.1-1.7-7.9-4.3-10.7Z"/>
  <path class="st0" d="M167.2,255.5l.4.4c2.7,2.7,6.1,4.4,9.7,4.9.3,0,.6,0,.9.2h1.7c.6,0,1.2,0,1.8-.1.3,0,.6,0,.9,0,3.5-.5,7-2.2,9.7-4.9s.3-.2.4-.4l73.7-73.7h0c6.8-6.8,6.8-17.9.3-24.8-6.9-6.8-18-6.8-24.8,0l-44.3,44.3V39c0-4.9-1.9-9.2-5.1-12.4-3.2-3.1-2.8-5.1-12.4-5.1s-17.5,7.9-17.5,17.5v162.3l-44.3-44.3c-6.9-6.8-18-6.8-24.8,0s-5.1,7.9-5.1,12.4,1.7,9,5.1,12.4l73.7,73.7Z"/>
</svg>