<?xml version="1.0" encoding="UTF-8"?>
<svg id="Layer_1" data-name="Layer 1" xmlns="http://www.w3.org/2000/svg" viewBox="0 0 206.54 92.97">
  <defs>
    <style>
      .cls-1 {
        fill: #dc4a38;
      }
    </style>
  </defs>
  <polygon class="cls-1" points="76.14 51.3 86.19 51.3 81.15 29.28 76.14 51.3"/>
  <path class="cls-1" d="M0,0v92.97h206.54V0H0ZM49.72,70.37c-3.21,2.68-8.05,4.02-14.54,4.02-2.67,0-5.34-.32-8.02-.96-2.68-.64-5.27-1.58-7.76-2.83v-10.99c2.83,2.02,5.58,3.52,8.23,4.5,2.65.99,5.28,1.48,7.87,1.48s4.65-.59,6.09-1.78c1.44-1.19,2.16-2.85,2.16-4.99,0-1.61-.48-3.02-1.44-4.23-.96-1.21-2.35-2.17-4.18-2.86l-5.22-1.98c-5.36-2.04-8.98-4.19-10.88-6.43-1.9-2.25-2.85-5.27-2.85-9.06,0-4.88,1.56-8.71,4.68-11.49,3.12-2.79,7.41-4.18,12.86-4.18,2.47,0,4.95.28,7.42.85,2.47.56,4.92,1.4,7.35,2.5v10.38c-2.28-1.61-4.6-2.83-6.95-3.67-2.35-.84-4.68-1.26-6.99-1.26-2.57,0-4.54.52-5.91,1.55-1.37,1.03-2.05,2.51-2.05,4.43,0,1.49.5,2.72,1.5,3.69,1,.97,3.08,2.05,6.25,3.22l4.58,1.73c4.32,1.58,7.5,3.69,9.55,6.3,2.04,2.62,3.06,5.92,3.06,9.91,0,5.43-1.6,9.48-4.81,12.16ZM91.56,73.34l-3.31-13.29h-14.23l-3.24,13.29h-10.63l14.52-53.79h13l14.52,53.79h-10.63ZM132.95,73.34h-14.73l-12.79-53.79h10.7l9.44,44.92,9.47-44.92h10.7l-12.79,53.79ZM187.35,28.92h-22.88v11.6h20.71v9.37h-20.71v14.09h22.88v9.37h-33.5V19.56h33.5v9.37Z"/>
</svg>