<?xml version="1.0" encoding="UTF-8"?>
<svg id="Layer_1" data-name="Layer 1" xmlns="http://www.w3.org/2000/svg" viewBox="0 0 365.72 92.97">
  <defs>
    <style>
      .cls-1 {
        fill: #1fb5c3;
      }
    </style>
  </defs>
  <path class="cls-1" d="M145.75,31.9h-4.06v11.89h4.06c2.36,0,4.04-.46,5.07-1.39,1.02-.92,1.53-2.45,1.53-4.57s-.51-3.64-1.52-4.56-2.71-1.37-5.08-1.37Z"/>
  <path class="cls-1" d="M260.03,33.33c-1.14-.95-3.12-1.43-5.94-1.43h-3.53v12.79h3.53c2.82,0,4.8-.48,5.94-1.43,1.14-.95,1.71-2.61,1.71-4.96s-.57-4.01-1.71-4.96Z"/>
  <path class="cls-1" d="M0,0v92.97h365.72V0H0ZM49.69,65.85c-2.6,2.17-6.53,3.26-11.78,3.26-2.16,0-4.33-.26-6.5-.77-2.17-.52-4.27-1.28-6.29-2.29v-8.91c2.3,1.64,4.52,2.85,6.67,3.65,2.15.8,4.28,1.2,6.38,1.2s3.77-.48,4.94-1.45c1.17-.96,1.75-2.31,1.75-4.04,0-1.3-.39-2.45-1.17-3.43-.78-.98-1.91-1.76-3.39-2.32l-4.23-1.61c-4.34-1.65-7.28-3.39-8.82-5.21s-2.31-4.27-2.31-7.34c0-3.95,1.27-7.06,3.8-9.32s6.01-3.39,10.43-3.39c2.01,0,4.01.23,6.02.69,2.01.46,3.99,1.13,5.96,2.03v8.41c-1.85-1.3-3.73-2.3-5.64-2.98-1.91-.68-3.8-1.02-5.67-1.02-2.08,0-3.68.42-4.79,1.26-1.11.84-1.66,2.03-1.66,3.59,0,1.21.4,2.2,1.21,2.99s2.5,1.66,5.07,2.61l3.71,1.4c3.5,1.28,6.08,2.99,7.74,5.11s2.48,4.8,2.48,8.03c0,4.4-1.3,7.68-3.9,9.86ZM89.18,68.26h-8.61v-19.39h-10.78v19.39h-8.61V24.66h8.61v16.62h10.78v-16.62h8.61v43.6ZM119.61,68.26l-2.69-10.78h-11.53l-2.63,10.78h-8.61l11.77-43.6h10.54l11.77,43.6h-8.61ZM155.73,68.26l-5.26-11.01c-.16-.31-.36-.74-.61-1.28-1.54-3.29-3.35-4.94-5.43-4.94h-2.74v17.23h-8.61V24.66h12.44c5.61,0,9.63.99,12.08,2.98s3.66,5.22,3.66,9.7c0,3-.73,5.38-2.19,7.15-1.46,1.77-3.56,2.83-6.31,3.18.86.18,1.6.58,2.23,1.21.63.63,1.41,1.86,2.32,3.69l7.88,15.68h-9.46ZM197.26,32.25h-18.54v9.4h16.79v7.59h-16.79v11.42h18.54v7.59h-27.16V24.66h27.16v7.59ZM266.74,48.72c-2.64,2.14-6.96,3.21-12.98,3.21h-3.21v16.32h-8.61V24.66h11.83c6.02,0,10.34,1.07,12.98,3.21,2.64,2.14,3.96,5.62,3.96,10.43s-1.32,8.28-3.96,10.43ZM304.2,32.25h-8.67v28.41h8.67v7.59h-25.96v-7.59h8.67v-28.41h-8.67v-7.59h25.96v7.59ZM340.79,35.55c-1.48-1.36-2.92-2.36-4.31-2.99s-2.83-.95-4.31-.95c-3.15,0-5.53,1.25-7.14,3.75-1.61,2.5-2.41,6.22-2.41,11.14s.8,8.61,2.41,11.11c1.61,2.5,3.99,3.75,7.14,3.75,1.48,0,2.92-.32,4.31-.95s2.83-1.63,4.31-2.99v9.58c-1.36.7-2.79,1.23-4.29,1.58-1.5.35-3.08.53-4.73.53-5.88,0-10.37-1.94-13.46-5.81-3.1-3.87-4.64-9.47-4.64-16.79s1.55-12.95,4.64-16.82,7.58-5.81,13.46-5.81c1.65,0,3.24.18,4.76.53,1.52.35,2.94.88,4.26,1.58v9.58Z"/>
  <polygon class="cls-1" points="107.11 50.38 115.26 50.38 111.17 32.54 107.11 50.38"/>
</svg>