<?xml version="1.0" encoding="UTF-8"?>
<svg id="Layer_1" xmlns="http://www.w3.org/2000/svg" xmlns:serif="http://www.serif.com/" version="1.1" viewBox="0 0 32 40">
  <!-- Generator: Adobe Illustrator 29.6.1, SVG Export Plug-In . SVG Version: 2.1.1 Build 9)  -->
  <defs>
    <style>
      .st0 {
        fill: #fff;
        fill-rule: evenodd;
      }
    </style>
  </defs>
  <path class="st0" d="M27.9,5.6c-5.1,1.7-19.3,6.4-25,8.3-.8.3-1.3,1-1.4,1.8,0,.8.4,1.6,1.2,1.9l10.8,4.8,4.8,10.8c.3.8,1.1,1.2,1.9,1.2.8,0,1.5-.6,1.8-1.4,1.9-5.7,6.6-19.8,8.3-25,.2-.7,0-1.5-.5-2-.5-.5-1.3-.7-2-.5h0ZM27.8,9.5l-12.4,12.4,4.7,10.6,7.7-23ZM3.5,15.8l10.5,4.7,12.2-12.2L3.5,15.8Z"/>
</svg>