<?xml version="1.0" encoding="UTF-8"?>
<svg id="Layer_1" data-name="Layer 1" xmlns="http://www.w3.org/2000/svg" viewBox="0 0 365.72 92.97">
  <defs>
    <style>
      .cls-1 {
        fill: #1fb5c3;
      }
    </style>
  </defs>
  <polygon class="cls-1" points="249.8 50.36 257.91 50.36 253.84 32.61 249.8 50.36"/>
  <polygon class="cls-1" points="106.51 50.36 114.62 50.36 110.55 32.61 106.51 50.36"/>
  <path class="cls-1" d="M294.47,33.4c-1.13-.95-3.1-1.42-5.91-1.42h-3.52v12.73h3.52c2.81,0,4.78-.47,5.91-1.42,1.13-.95,1.7-2.6,1.7-4.94s-.57-3.99-1.7-4.94Z"/>
  <path class="cls-1" d="M330.3,33.4c-1.13-.95-3.1-1.42-5.91-1.42h-3.52v12.73h3.52c2.81,0,4.78-.47,5.91-1.42,1.13-.95,1.7-2.6,1.7-4.94s-.57-3.99-1.7-4.94Z"/>
  <path class="cls-1" d="M144.95,31.97h-4.04v11.82h4.04c2.34,0,4.02-.46,5.04-1.38,1.02-.92,1.52-2.44,1.52-4.55s-.5-3.62-1.51-4.53c-1.01-.91-2.69-1.37-5.06-1.37Z"/>
  <path class="cls-1" d="M0,0v92.97h365.72V0H0ZM49.38,65.75c-2.59,2.16-6.49,3.24-11.72,3.24-2.15,0-4.31-.26-6.46-.77-2.16-.51-4.25-1.27-6.26-2.28v-8.86c2.29,1.63,4.5,2.84,6.64,3.63,2.14.79,4.26,1.19,6.35,1.19s3.75-.48,4.91-1.44c1.16-.96,1.74-2.3,1.74-4.02,0-1.3-.39-2.43-1.16-3.41-.77-.98-1.9-1.75-3.37-2.31l-4.21-1.6c-4.32-1.65-7.24-3.38-8.77-5.19-1.53-1.81-2.3-4.25-2.3-7.31,0-3.93,1.26-7.02,3.78-9.27,2.52-2.25,5.98-3.37,10.37-3.37,1.99,0,3.99.23,5.99.68,1.99.46,3.97,1.13,5.93,2.02v8.37c-1.84-1.3-3.71-2.29-5.61-2.96-1.9-.68-3.78-1.02-5.64-1.02-2.07,0-3.66.42-4.77,1.25-1.1.83-1.66,2.02-1.66,3.57,0,1.2.4,2.19,1.21,2.98.8.78,2.48,1.65,5.04,2.6l3.69,1.39c3.49,1.28,6.05,2.97,7.7,5.08,1.65,2.11,2.47,4.77,2.47,7.99,0,4.38-1.29,7.65-3.88,9.81ZM88.67,68.14h-8.57v-19.29h-10.72v19.29h-8.57V24.77h8.57v16.53h10.72v-16.53h8.57v43.38ZM118.94,68.14l-2.67-10.72h-11.48l-2.62,10.72h-8.57l11.71-43.38h10.49l11.71,43.38h-8.57ZM154.88,68.14l-5.23-10.95c-.15-.31-.36-.74-.61-1.28-1.53-3.27-3.33-4.91-5.4-4.91h-2.73v17.14h-8.57V24.77h12.38c5.58,0,9.58.99,12.01,2.96s3.65,5.19,3.65,9.65c0,2.98-.73,5.36-2.18,7.12-1.45,1.76-3.55,2.82-6.28,3.17.85.17,1.59.58,2.22,1.21s1.4,1.85,2.31,3.67l7.85,15.6h-9.41ZM196.2,32.32h-18.45v9.36h16.71v7.55h-16.71v11.36h18.45v7.55h-27.02V24.77h27.02v7.55ZM262.24,68.14l-2.67-10.72h-11.48l-2.62,10.72h-8.57l11.71-43.38h10.49l11.71,43.38h-8.57ZM301.16,48.71c-2.63,2.13-6.93,3.2-12.92,3.2h-3.2v16.24h-8.57V24.77h11.77c5.99,0,10.29,1.07,12.92,3.2,2.62,2.13,3.94,5.59,3.94,10.37s-1.31,8.24-3.94,10.37ZM336.98,48.71c-2.63,2.13-6.93,3.2-12.92,3.2h-3.2v16.24h-8.57V24.77h11.77c5.99,0,10.29,1.07,12.92,3.2,2.62,2.13,3.94,5.59,3.94,10.37s-1.31,8.24-3.94,10.37Z"/>
</svg>