<?xml version="1.0" encoding="UTF-8"?>
<svg id="Layer_1" xmlns="http://www.w3.org/2000/svg" version="1.1" viewBox="0 0 360 360">
  <!-- Generator: Adobe Illustrator 29.6.1, SVG Export Plug-In . SVG Version: 2.1.1 Build 9)  -->
  <defs>
    <style>
      .st0 {
        fill: #fff;
        fill-rule: evenodd;
      }
    </style>
  </defs>
  <path class="st0" d="M308.8,26C253.9,44.2,101,94.8,39.7,115.3c-8.6,3.2-14,10.8-15.1,19.4,0,8.6,4.3,17.2,12.9,20.5l116.2,51.7,51.7,116.2c3.2,8.6,11.8,12.9,20.5,12.9s16.1-6.5,19.4-15.1c20.5-61.4,71-213.1,89.3-269.1,2.2-7.5,0-16.1-5.4-21.5-5.4-5.4-14-7.5-21.5-5.4h0l1.1,1.1ZM307.7,67.9l-133.5,133.5,50.6,114.1,82.9-247.6ZM46.1,135.7l113,50.6L290.5,55,46.1,135.7Z"/>
</svg>