<?xml version="1.0" encoding="UTF-8"?>
<svg id="Layer_1" data-name="Layer 1" xmlns="http://www.w3.org/2000/svg" viewBox="0 0 251.98 92.97">
  <defs>
    <style>
      .cls-1 {
        fill: #dc4a38;
      }
    </style>
  </defs>
  <polygon class="cls-1" points="121.06 51.3 131.14 51.3 126.08 29.25 121.06 51.3"/>
  <path class="cls-1" d="M0,0v92.97h251.98V0H0ZM50.06,70.42c-3.21,2.68-8.07,4.03-14.57,4.03-2.67,0-5.35-.32-8.03-.96-2.68-.64-5.28-1.58-7.78-2.83v-11.01c2.84,2.02,5.59,3.53,8.25,4.51s5.29,1.48,7.89,1.48,4.66-.6,6.1-1.79c1.44-1.19,2.17-2.86,2.17-5,0-1.61-.48-3.03-1.44-4.24-.96-1.21-2.36-2.17-4.19-2.87l-5.23-1.99c-5.37-2.04-9-4.19-10.9-6.44-1.9-2.25-2.85-5.28-2.85-9.08,0-4.89,1.56-8.72,4.69-11.52,3.13-2.79,7.42-4.19,12.89-4.19,2.48,0,4.96.28,7.44.85,2.48.57,4.93,1.4,7.37,2.51v10.4c-2.29-1.61-4.61-2.84-6.97-3.68-2.36-.84-4.69-1.26-7-1.26-2.58,0-4.55.52-5.92,1.55-1.37,1.04-2.06,2.52-2.06,4.44,0,1.49.5,2.73,1.5,3.7,1,.97,3.09,2.05,6.26,3.23l4.59,1.73c4.33,1.59,7.52,3.69,9.57,6.32,2.05,2.62,3.07,5.93,3.07,9.93,0,5.44-1.61,9.5-4.82,12.19ZM98.89,73.4h-10.65v-23.97h-13.32v23.97h-10.65V19.5h10.65v20.54h13.32v-20.54h10.65v53.9ZM136.51,73.4l-3.32-13.32h-14.26l-3.25,13.32h-10.65l14.55-53.9h13.03l14.55,53.9h-10.65ZM181.18,73.4l-6.5-13.61c-.19-.38-.45-.91-.76-1.59-1.9-4.07-4.14-6.1-6.72-6.1h-3.39v21.3h-10.65V19.5h15.38c6.93,0,11.91,1.23,14.93,3.68,3.02,2.46,4.53,6.45,4.53,11.99,0,3.71-.9,6.66-2.71,8.85-1.81,2.19-4.41,3.5-7.8,3.94,1.06.22,1.98.72,2.76,1.5.78.78,1.74,2.31,2.87,4.57l9.75,19.39h-11.7ZM232.51,28.88h-22.93v11.63h20.76v9.39h-20.76v14.12h22.93v9.39h-33.58V19.5h33.58v9.39Z"/>
  <path class="cls-1" d="M168.83,28.45h-5.02v14.69h5.02c2.91,0,5-.57,6.26-1.71,1.26-1.14,1.89-3.03,1.89-5.65s-.63-4.5-1.88-5.63c-1.25-1.13-3.35-1.7-6.28-1.7Z"/>
</svg>