<?xml version="1.0" encoding="UTF-8"?>
<svg id="Layer_1" data-name="Layer 1" xmlns="http://www.w3.org/2000/svg" viewBox="0 0 430.77 92.97">
  <defs>
    <style>
      .cls-1 {
        fill: #219fc1;
      }
    </style>
  </defs>
  <polygon class="cls-1" points="298.95 51.32 309.07 51.32 303.99 29.17 298.95 51.32"/>
  <polygon class="cls-1" points="120.14 51.32 130.26 51.32 125.18 29.17 120.14 51.32"/>
  <path class="cls-1" d="M168.11,28.38h-5.04v14.76h5.04c2.92,0,5.02-.57,6.29-1.72,1.27-1.15,1.9-3.04,1.9-5.67s-.63-4.52-1.88-5.66c-1.26-1.14-3.36-1.7-6.31-1.7Z"/>
  <path class="cls-1" d="M354.69,30.15c-1.41-1.18-3.87-1.78-7.38-1.78h-4.39v15.88h4.39c3.5,0,5.96-.59,7.38-1.78,1.41-1.18,2.12-3.24,2.12-6.16s-.71-4.98-2.12-6.16Z"/>
  <path class="cls-1" d="M399.4,30.15c-1.41-1.18-3.87-1.78-7.38-1.78h-4.39v15.88h4.39c3.5,0,5.96-.59,7.38-1.78,1.41-1.18,2.12-3.24,2.12-6.16s-.71-4.98-2.12-6.16Z"/>
  <path class="cls-1" d="M0,0v92.97h430.77V0H0ZM48.84,70.52c-3.23,2.7-8.1,4.04-14.63,4.04-2.68,0-5.37-.32-8.07-.96-2.7-.64-5.3-1.59-7.81-2.85v-11.06c2.85,2.03,5.61,3.54,8.28,4.53,2.67.99,5.31,1.49,7.92,1.49s4.68-.6,6.13-1.79,2.18-2.87,2.18-5.02c0-1.62-.48-3.04-1.45-4.26-.97-1.22-2.37-2.18-4.21-2.88l-5.26-1.99c-5.39-2.05-9.04-4.21-10.95-6.47-1.91-2.26-2.86-5.3-2.86-9.12,0-4.91,1.57-8.76,4.71-11.57,3.14-2.8,7.46-4.21,12.94-4.21,2.49,0,4.98.28,7.47.85,2.49.57,4.95,1.41,7.4,2.52v10.44c-2.3-1.62-4.63-2.85-7-3.7-2.37-.85-4.71-1.27-7.03-1.27-2.59,0-4.57.52-5.95,1.56-1.38,1.04-2.07,2.53-2.07,4.46,0,1.5.5,2.74,1.5,3.72,1,.98,3.1,2.06,6.29,3.25l4.6,1.74c4.35,1.6,7.55,3.71,9.61,6.34,2.05,2.63,3.08,5.96,3.08,9.97,0,5.46-1.61,9.54-4.84,12.24ZM97.88,73.51h-10.7v-24.07h-13.38v24.07h-10.7V19.38h10.7v20.63h13.38v-20.63h10.7v54.13ZM135.66,73.51l-3.33-13.38h-14.32l-3.26,13.38h-10.7l14.61-54.13h13.09l14.61,54.13h-10.7ZM180.51,73.51l-6.53-13.67c-.19-.39-.45-.92-.76-1.6-1.91-4.08-4.16-6.13-6.74-6.13h-3.41v21.39h-10.7V19.38h15.44c6.96,0,11.96,1.23,14.99,3.7s4.55,6.48,4.55,12.04c0,3.72-.91,6.68-2.72,8.88-1.81,2.2-4.42,3.52-7.83,3.95,1.06.22,1.99.72,2.77,1.5.79.79,1.75,2.32,2.88,4.59l9.79,19.47h-11.75ZM232.06,28.81h-23.02v11.67h20.85v9.43h-20.85v14.18h23.02v9.43h-33.72V19.38h33.72v9.43ZM314.47,73.51l-3.33-13.38h-14.32l-3.26,13.38h-10.7l14.61-54.13h13.09l14.61,54.13h-10.7ZM363.03,49.26c-3.28,2.66-8.65,3.99-16.12,3.99h-3.99v20.27h-10.7V19.38h14.68c7.47,0,12.84,1.33,16.12,3.99,3.28,2.66,4.91,6.97,4.91,12.94s-1.64,10.28-4.91,12.94ZM407.73,49.26c-3.28,2.66-8.65,3.99-16.12,3.99h-3.99v20.27h-10.7V19.38h14.68c7.47,0,12.84,1.33,16.12,3.99,3.28,2.66,4.91,6.97,4.91,12.94s-1.64,10.28-4.91,12.94Z"/>
</svg>