<?xml version="1.0" encoding="UTF-8"?>
<svg id="Layer_1" xmlns="http://www.w3.org/2000/svg" xmlns:xlink="http://www.w3.org/1999/xlink" version="1.1" viewBox="0 0 691.5 691.5">
  <!-- Generator: Adobe Illustrator 29.6.1, SVG Export Plug-In . SVG Version: 2.1.1 Build 9)  -->
  <defs>
    <style>
      .st0 {
        fill: #dc4a38;
        isolation: isolate;
        opacity: .9;
      }

      .st1 {
        fill: #fff;
      }
    </style>
  </defs>
  <rect class="st0" width="691.5" height="691.5"/>
  <g>
    <polygon class="st1" points="52.1 300.1 86.2 300.1 86.2 284.8 52.1 284.8 52.1 265.8 89.5 265.8 89.5 250.4 34.7 250.4 34.7 338.5 52.1 338.5 52.1 300.1"/>
    <path class="st1" d="M148.8,299.4c-1.3-1.3-2.8-2.1-4.5-2.5,5.6-.7,9.8-2.9,12.8-6.4s4.4-8.4,4.4-14.5c0-9-2.5-15.6-7.4-19.6-4.9-4-13.1-6-24.4-6h-25.1v88.1h17.4v-34.8h5.6c4.2,0,7.9,3.3,11,10,.5,1.1.9,2,1.2,2.6l10.6,22.2h19.1l-15.9-31.7c-1.9-3.7-3.4-6.2-4.7-7.5h0ZM140.4,286.3c-2.1,1.9-5.5,2.8-10.2,2.8h-8.2v-24h8.2c4.8,0,8.2.9,10.3,2.8,2.1,1.9,3.1,4.9,3.1,9.2s-1,7.4-3.1,9.2h0Z"/>
    <polygon class="st1" points="232.1 323.2 214.5 323.2 214.5 265.8 232.1 265.8 232.1 250.4 179.6 250.4 179.6 265.8 197.1 265.8 197.1 323.2 179.6 323.2 179.6 338.5 232.1 338.5 232.1 323.2"/>
    <path class="st1" d="M268.9,250.4h-18.6v88.1h18.6c14.4,0,24.8-3.5,31.1-10.4,6.3-6.9,9.5-18.2,9.5-33.8s-3.2-26.8-9.5-33.7c-6.3-6.9-16.7-10.3-31.1-10.3h0ZM287,316.4c-2.9,4.3-7.8,6.5-14.6,6.5h-4.7v-56.7h4.7c6.9,0,11.7,2.1,14.6,6.4,2.9,4.3,4.4,11.6,4.4,21.8s-1.5,17.7-4.4,22Z"/>
    <path class="st1" d="M339.6,316.7h23.3l5.4,21.8h17.4l-23.8-88.1h-21.3l-23.8,88.1h17.4l5.3-21.8h0ZM351.3,266.3l8.3,36.1h-16.5l8.2-36.1h0Z"/>
    <polygon class="st1" points="95.2 354 75.5 354 48.2 388.8 48.2 354 30.8 354 30.8 442.1 48.2 442.1 48.2 412.2 56 402.5 76.8 442.1 96.2 442.1 67.4 388.7 95.2 354"/>
    <path class="st1" d="M123.8,354l-23.8,88.1h17.4l5.3-21.8h23.3l5.4,21.8h17.4l-23.8-88.1h-21.3ZM126.2,406l8.2-36.1,8.3,36.1h-16.5,0Z"/>
    <polygon class="st1" points="194.9 402.9 216.7 402.9 216.7 442.1 234.1 442.1 234.1 354 216.7 354 216.7 387.6 194.9 387.6 194.9 354 177.5 354 177.5 442.1 194.9 442.1 194.9 402.9"/>
    <polygon class="st1" points="252.8 354 252.8 442.1 307.4 442.1 307.4 426.8 270.2 426.8 270.2 354 252.8 354"/>
    <path class="st1" d="M348.6,443.8c10.2,0,18-3.9,23.2-11.6,5.2-7.7,7.8-19.1,7.8-34.1s-2.6-26.5-7.8-34.2c-5.2-7.7-12.9-11.6-23.2-11.6s-17.9,3.9-23.1,11.6c-5.2,7.7-7.8,19.1-7.8,34.2s2.6,26.4,7.8,34.1c5.2,7.7,12.9,11.6,23.1,11.6ZM338.9,375.2c2-4.7,5.3-7.1,9.7-7.1s7.8,2.4,9.8,7.1,3.1,12.4,3.1,23-1,18.2-3.1,22.9c-2,4.7-5.3,7.1-9.8,7.1s-7.7-2.4-9.7-7.1-3.1-12.4-3.1-22.9,1-18.2,3.1-23Z"/>
    <path class="st1" d="M60.3,547.4c10.5,0,18.2-2.7,23-8.1s7.1-14.1,7.1-26.1v-55.6h-17.4v60c0,4.4-1.1,7.9-3.4,10.4s-5.3,3.8-9.3,3.8-7.1-1.2-9.3-3.8c-2.2-2.5-3.4-6-3.4-10.4v-60h-17.4v55.6c0,12,2.4,20.7,7.2,26.1,4.8,5.4,12.4,8.1,22.9,8.1h0Z"/>
    <polygon class="st1" points="146.9 521.6 122.4 457.6 103.7 457.6 103.7 545.7 119 545.7 119 481.7 143.7 545.7 162.3 545.7 162.3 457.6 146.9 457.6 146.9 521.6"/>
    <polygon class="st1" points="232.1 472.9 232.1 457.6 179.6 457.6 179.6 472.9 197.1 472.9 197.1 530.4 179.6 530.4 179.6 545.7 232.1 545.7 232.1 530.4 214.5 530.4 214.5 472.9 232.1 472.9"/>
    <path class="st1" d="M288.9,498.5c5.6-.5,9.9-2.4,12.8-5.5,2.9-3.2,4.4-7.6,4.4-13.3s-2.5-13-7.4-16.7-12.3-5.6-22.1-5.6h-28.4v88.2h28.4c11.5,0,19.9-1.9,25-5.7,5.1-3.8,7.7-10,7.7-18.5s-1.7-12.3-5.1-16.2c-3.4-3.9-8.5-6.1-15.2-6.8h0ZM265,471.4h11.6c4.3,0,7.4.8,9.4,2.5s2.9,4.3,2.9,7.9-.9,6.2-2.8,7.8c-1.9,1.6-5,2.4-9.4,2.4h-11.6v-20.5ZM288.3,528.9c-2.2,1.9-6.1,2.8-11.6,2.8h-11.6v-26.1h11.6c5.4,0,9.2,1,11.5,3.1,2.3,2.1,3.5,5.5,3.5,10.3s-1.1,8-3.3,9.8h0Z"/>
    <path class="st1" d="M365.8,506.5c-1.3-1.3-2.8-2.1-4.5-2.5,5.5-.7,9.8-2.9,12.8-6.4s4.4-8.4,4.4-14.5c0-9-2.5-15.6-7.4-19.6s-13.1-6-24.4-6h-25.1v88.1h17.4v-34.8h5.5c4.2,0,7.9,3.3,11,10,.5,1.1.9,2,1.2,2.6l10.6,22.2h19.1l-15.9-31.7c-1.9-3.7-3.4-6.2-4.7-7.5h0ZM357.3,493.5c-2.1,1.9-5.5,2.8-10.2,2.8h-8.2v-24h8.2c4.8,0,8.2.9,10.3,2.8,2,1.9,3.1,4.9,3.1,9.2s-1,7.4-3.1,9.2h0Z"/>
    <path class="st1" d="M422.7,547.4c10.2,0,18-3.8,23.2-11.6,5.2-7.7,7.8-19.1,7.8-34.1s-2.6-26.5-7.8-34.2c-5.2-7.7-12.9-11.6-23.2-11.6s-17.9,3.9-23.1,11.6c-5.2,7.7-7.8,19.1-7.8,34.2s2.6,26.4,7.8,34.1c5.2,7.7,12.9,11.6,23.1,11.6ZM413,478.8c2-4.7,5.3-7.1,9.7-7.1s7.8,2.4,9.8,7.1,3.1,12.4,3.1,23-1,18.2-3.1,22.9c-2,4.7-5.3,7.1-9.8,7.1s-7.7-2.4-9.7-7.1-3.1-12.4-3.1-22.9,1-18.2,3.1-23Z"/>
    <polygon class="st1" points="516.6 457.6 511.6 522.3 502.8 480.4 488.3 480.4 480.7 522.3 474.4 457.6 459.1 457.6 470 545.7 486.1 545.7 495.5 499.4 505.5 545.7 521.8 545.7 531.9 457.6 516.6 457.6"/>
    <path class="st1" d="M63.5,616.5h11.9v16.8c-.8.7-1.9,1.2-3.2,1.5-1.3.3-2.9.5-4.7.5-6,0-10.6-2.6-13.8-7.7s-4.7-12.6-4.7-22.4,1.6-17.7,4.9-22.6c3.3-5,8.2-7.5,14.8-7.5s7.2.8,10.4,2.4,6,4,8.4,7.1v-19.3c-3-1.9-6.2-3.3-9.6-4.3-3.4-1-6.9-1.5-10.4-1.5-11.8,0-20.9,3.9-27.2,11.7-6.3,7.8-9.4,19.2-9.4,34s3.1,25.9,9.3,33.8c6.2,7.9,15,11.9,26.4,11.9s8.9-.7,12.9-2.2c4-1.5,7.7-3.7,11.1-6.5v-40.4h-27.2v14.6h0Z"/>
    <polygon class="st1" points="106.6 649.3 161.5 649.3 161.5 634 124 634 124 610.9 157.9 610.9 157.9 595.5 124 595.5 124 576.5 161.5 576.5 161.5 561.2 106.6 561.2 106.6 649.3"/>
    <polygon class="st1" points="219.7 625.2 195.2 561.2 176.5 561.2 176.5 649.3 191.8 649.3 191.8 585.3 216.5 649.3 235.1 649.3 235.1 561.2 219.7 561.2 219.7 625.2"/>
    <polygon class="st1" points="249.4 649.3 304.3 649.3 304.3 634 266.8 634 266.8 610.9 300.7 610.9 300.7 595.5 266.8 595.5 266.8 576.5 304.3 576.5 304.3 561.2 249.4 561.2 249.4 649.3"/>
    <path class="st1" d="M364.4,610.2c-1.3-1.3-2.8-2.1-4.5-2.5,5.5-.7,9.8-2.8,12.8-6.4s4.4-8.4,4.4-14.5c0-9-2.5-15.6-7.4-19.6s-13.1-6-24.4-6h-25.1v88.1h17.4v-34.8h5.5c4.2,0,7.9,3.3,11,10,.5,1.1.9,2,1.2,2.6l10.6,22.2h19.1l-15.9-31.7c-1.9-3.7-3.4-6.2-4.7-7.5h0ZM356,597c-2.1,1.9-5.5,2.8-10.2,2.8h-8.2v-24h8.2c4.8,0,8.2.9,10.3,2.8,2,1.8,3.1,4.9,3.1,9.2s-1,7.4-3.1,9.2Z"/>
    <path class="st1" d="M410.8,561.2l-23.8,88.1h17.4l5.3-21.8h23.3l5.4,21.8h17.4l-23.8-88.1h-21.3ZM413.2,613.2l8.2-36.1,8.3,36.1h-16.5Z"/>
    <polygon class="st1" points="453.6 576.4 476 576.4 476 649.3 493.4 649.3 493.4 576.4 515.7 576.4 515.7 561.2 453.6 561.2 453.6 576.4"/>
    <path class="st1" d="M554.7,559.6c-10.2,0-17.9,3.9-23.1,11.6-5.2,7.7-7.8,19.1-7.8,34.2s2.6,26.4,7.8,34.1c5.2,7.7,12.9,11.6,23.1,11.6s18-3.8,23.2-11.6c5.2-7.7,7.8-19.1,7.8-34.1s-2.6-26.5-7.8-34.2c-5.2-7.7-12.9-11.6-23.2-11.6ZM564.5,628.3c-2,4.7-5.3,7.1-9.8,7.1s-7.7-2.4-9.7-7.1-3.1-12.4-3.1-22.9,1-18.2,3.1-23,5.3-7.1,9.7-7.1,7.8,2.4,9.8,7.1,3.1,12.4,3.1,23-1,18.2-3.1,22.9Z"/>
    <path class="st1" d="M647.9,617.6c-1.8-3.7-3.4-6.2-4.7-7.5-1.3-1.3-2.8-2.1-4.5-2.5,5.5-.7,9.8-2.8,12.8-6.4s4.4-8.4,4.4-14.5c0-9-2.5-15.6-7.4-19.6s-13.1-6-24.4-6h-25.1v88.1h17.4v-34.8h5.5c4.2,0,7.9,3.3,11,10,.5,1.1.9,2,1.2,2.6l10.6,22.2h19.1l-15.9-31.7h0ZM634.8,597c-2.1,1.9-5.5,2.8-10.2,2.8h-8.2v-24h8.2c4.8,0,8.2.9,10.3,2.8,2,1.8,3.1,4.9,3.1,9.2s-1,7.4-3.1,9.2h0Z"/>
  </g>
  <g id="vp0Eij">
    <image id="vp0Eij1" data-name="vp0Eij" width="275" height="65" transform="translate(32.5 39.9) scale(.9)" xlink:href="stamp-1.png"/>
  </g>
</svg>