<?xml version="1.0" encoding="UTF-8"?>
<svg id="Layer_1" data-name="Layer 1" xmlns="http://www.w3.org/2000/svg" viewBox="0 0 851.04 670.38">
  <defs>
    <style>
      .cls-1 {
        fill: #fff;
      }
    </style>
  </defs>
  <g>
    <path class="cls-1" d="M160.82,60.92h22.3s-7.07-5.44-7.07-5.44L166.08,0c-12.69,4.71,0,19.58-2.18,29.73h-14.87c-1.09-.73,11.78-17.22,9.61-20.85-12.33,16.14-19.04,38.62-34.99,51.31l19.4.73-7.43-5.26c2.54-4.71,9.79-22.12,14.14-23.03,4.35-.91,10.15,0,14.14.73,2.36,1.63,5.44,20.67,3.81,23.21-1.63,2.54-6.16,1.09-6.71,4.35h-.18Z"/>
    <path class="cls-1" d="M133.99,1.45h-40.25c1.63,3.99,9.43.36,7.43,6.53-6.71,13.05-6.35,34.09-11.78,46.41-5.44,12.33-4.35,3.44-5.98,6.53h22.3s-8.88-5.44-8.88-5.44l5.98-25.75c4.35-.18,16.14-1.27,18.49,2.72s-.73,7.25,2.18,7.43c0-6.35,3.26-12.87,4.35-18.67s-4.53,3.44-5.08,3.81c-5.08,3.81-12.51,2.9-18.67,2.9l4.53-23.57c.54-.54,14.69-.36,16.68,0,6.16,1.81,1.27,9.25,7.07,8.7l1.45-11.97v.36s.18,0,.18,0Z"/>
    <path class="cls-1" d="M229.17,1.45h-23.75s0,58.02,0,58.02h23.75s0-20.85,0-20.85h11.97v20.85s23.75,0,23.75,0V1.45s-23.75,0-23.75,0v18.31c-1.09,2.72-4.17,2.72-6.71,2.54-2.54-.18-2.54,0-3.81-.73l-1.45-20.13Z"/>
    <path d="M.18,59.47c2.54-.73,3.44-1.27,4.9-3.44,3.44-5.26,20.31-42.43,21.58-48.23,1.27-5.8.36-2.18,0-3.44-.73-.73-9.61,1.81-10.33-2.9l17.04,1.45c3.63,12.33,4.17,25.38,6.71,37.89,2.54,12.51-1.45,4.35,2.18,3.81,2.18-.73,16.86-38.07,20.85-41.7s8.7-1.09,12.69-1.45l-7.25,5.44c.91,8.88-1.45,18.13-1.81,26.47s-.73,18.86.36,22.12c1.09,3.26,6.53,2.36,7.25,5.44h-22.3s7.25-5.44,7.25-5.44l3.08-43.69c-11.06,12.33-14.87,32.45-23.39,45.69-8.52,13.24,0,2.72-3.26,1.99L27.56,10.33c-1.99,6.53-19.94,44.06-17.04,47.5,2.9,3.44,7.25,0,7.25,3.08H0v-1.45h.18Z"/>
    <path d="M229.17,1.45l1.45,20.13c1.27.73,2.54.73,3.81.73,2.54,0,5.62,0,6.53-2.54V1.45h23.93v58.02h-23.75v-20.85s-11.97,0-11.97,0v20.85h-23.75V1.45h23.75Z"/>
    <path d="M160.82,60.92c.54-3.44,5.44-2.54,6.71-4.35s-1.27-21.58-3.81-23.21c-3.99-.91-10.33-1.45-14.14-.73-3.81.73-11.6,18.31-14.14,23.03l7.43,5.26-19.4-.73c15.95-12.69,22.66-35.17,34.99-51.31,2.18,3.63-10.7,19.94-9.61,20.85h14.87C166.08,19.4,153.2,4.71,165.9,0l9.97,55.48,7.07,5.44h-22.3s.18,0,.18,0Z"/>
    <path d="M133.99,1.45l-1.45,11.97c-5.62.73-.73-6.71-7.07-8.7-6.35-1.99-15.95-.73-16.68,0l-4.53,23.57c5.98,0,13.6.91,18.67-2.9,5.08-3.81,6.35-9.79,5.08-3.81-1.27,5.98-4.35,12.33-4.35,18.67-2.9,0-.54-4.71-2.18-7.43-2.36-4.17-13.96-2.9-18.49-2.72l-5.98,25.75,8.88,5.44h-22.3c1.81-3.08,4.17-1.99,5.98-6.53,5.26-12.33,4.9-33.36,11.78-46.41,1.99-6.16-5.8-2.54-7.43-6.53h40.25s0-.36,0-.36h-.18Z"/>
  </g>
  <g>
    <path d="M79.73,152.99H29.4v25.52h45.81v20.61H29.4v51.6H6.02v-118.33h73.71v20.61Z"/>
    <path d="M153.28,194.83c2.32.48,4.35,1.57,6.06,3.29,1.72,1.72,3.82,5.06,6.3,10.03l21.4,42.56h-25.68l-14.27-29.88c-.42-.84-.98-2.01-1.66-3.49-4.17-8.93-9.09-13.39-14.74-13.39h-7.45v46.76h-23.38v-118.33h33.76c15.22,0,26.14,2.69,32.77,8.08,6.63,5.39,9.95,14.16,9.95,26.31,0,8.14-1.98,14.61-5.94,19.42-3.96,4.81-9.67,7.69-17.12,8.64ZM123.24,152.04v32.26h11.02c6.39,0,10.98-1.25,13.75-3.76,2.77-2.51,4.16-6.64,4.16-12.4s-1.37-9.88-4.12-12.36c-2.75-2.48-7.34-3.73-13.79-3.73h-11.02Z"/>
    <path d="M200.67,152.99v-20.61h70.46v20.61h-23.54v77.11h23.54v20.61h-70.46v-20.61h23.54v-77.11h-23.54Z"/>
    <path d="M295.62,132.38h25.04c19.34,0,33.26,4.61,41.77,13.83,8.51,9.22,12.76,24.29,12.76,45.22s-4.25,36.1-12.76,45.37c-8.51,9.27-22.43,13.91-41.77,13.91h-25.04v-118.33ZM319,153.46v76.16h6.34c9.19,0,15.74-2.89,19.66-8.68,3.91-5.79,5.86-15.63,5.86-29.52s-1.96-23.56-5.86-29.32c-3.91-5.76-10.46-8.64-19.66-8.64h-6.34Z"/>
    <path d="M417.04,132.38h28.61l31.94,118.33h-23.38l-7.29-29.24h-31.31l-7.13,29.24h-23.38l31.94-118.33ZM431.3,153.78l-11.02,48.42h22.11l-11.1-48.42Z"/>
    <path d="M.87,271.51h23.38v46.76l36.62-46.76h26.47l-37.33,46.6,38.68,71.73h-26l-28.06-53.26-10.38,13.16v40.1H.87v-118.33Z"/>
    <path d="M125.7,271.51h28.61l31.94,118.33h-23.38l-7.29-29.24h-31.31l-7.13,29.24h-23.38l31.94-118.33ZM139.96,292.9l-11.02,48.42h22.11l-11.1-48.42Z"/>
    <path d="M197.9,271.51h23.38v45.1h29.25v-45.1h23.38v118.33h-23.38v-52.62h-29.25v52.62h-23.38v-118.33Z"/>
    <path d="M298.95,389.83v-118.33h23.38v97.72h50.01v20.61h-73.39Z"/>
    <path d="M386.13,330.79c0-20.24,3.5-35.53,10.5-45.89,7-10.36,17.34-15.53,31.03-15.53s24.11,5.18,31.11,15.53c7,10.36,10.5,25.65,10.5,45.89s-3.5,35.45-10.5,45.81c-7,10.36-17.37,15.53-31.11,15.53s-24.03-5.18-31.03-15.53c-7-10.35-10.5-25.62-10.5-45.81ZM427.66,290.37c-5.97,0-10.33,3.18-13.08,9.55-2.75,6.37-4.12,16.66-4.12,30.87s1.37,24.42,4.12,30.79c2.75,6.37,7.11,9.55,13.08,9.55s10.41-3.18,13.16-9.55c2.75-6.37,4.12-16.63,4.12-30.79s-1.38-24.5-4.12-30.87c-2.75-6.37-7.13-9.55-13.16-9.55Z"/>
    <path d="M0,485.29v-74.66h23.38v80.52c0,5.92,1.51,10.56,4.52,13.91,3.01,3.36,7.18,5.03,12.52,5.03s9.51-1.68,12.52-5.03c3.01-3.35,4.52-7.99,4.52-13.91v-80.52h23.38v74.66c0,16.06-3.2,27.74-9.59,35.03-6.39,7.29-16.67,10.94-30.83,10.94s-24.37-3.65-30.79-10.94S0,501.35,0,485.29Z"/>
    <path d="M98.75,410.63h25.12l32.97,85.99v-85.99h20.61v118.33h-24.96l-33.13-85.99v85.99h-20.61v-118.33Z"/>
    <path d="M200.67,431.24v-20.61h70.46v20.61h-23.54v77.11h23.54v20.61h-70.46v-20.61h23.54v-77.11h-23.54Z"/>
    <path d="M292.85,410.47h38.12c13.16,0,23.05,2.5,29.68,7.49,6.63,4.99,9.95,12.46,9.95,22.39,0,7.61-1.96,13.55-5.86,17.83-3.91,4.28-9.64,6.76-17.2,7.45,9.04.9,15.84,3.94,20.41,9.11,4.57,5.18,6.86,12.42,6.86,21.71,0,11.41-3.44,19.68-10.3,24.81-6.87,5.13-18.04,7.69-33.52,7.69h-38.12v-118.49ZM315.43,429.1v27.5h15.53c5.92,0,10.13-1.06,12.64-3.17,2.51-2.11,3.76-5.6,3.76-10.46s-1.28-8.39-3.84-10.58c-2.56-2.19-6.75-3.29-12.56-3.29h-15.53ZM315.43,475.22v35.03h15.53c7.45,0,12.67-1.27,15.65-3.8,2.99-2.53,4.48-6.95,4.48-13.23s-1.56-10.99-4.68-13.79c-3.12-2.8-8.27-4.2-15.45-4.2h-15.53Z"/>
    <path d="M444.62,473.09c2.32.48,4.35,1.57,6.06,3.29,1.72,1.72,3.82,5.06,6.3,10.03l21.4,42.56h-25.68l-14.27-29.88c-.42-.85-.98-2.01-1.66-3.49-4.18-8.93-9.09-13.39-14.74-13.39h-7.45v46.76h-23.38v-118.33h33.76c15.22,0,26.14,2.69,32.77,8.08,6.63,5.39,9.95,14.16,9.95,26.31,0,8.14-1.98,14.61-5.94,19.42-3.96,4.81-9.67,7.69-17.12,8.64ZM414.58,430.29v32.26h11.02c6.39,0,10.98-1.25,13.75-3.76,2.77-2.51,4.16-6.64,4.16-12.4s-1.37-9.88-4.12-12.36c-2.75-2.48-7.34-3.73-13.79-3.73h-11.02Z"/>
    <path d="M485.67,469.91c0-20.24,3.5-35.53,10.5-45.89,7-10.36,17.34-15.53,31.03-15.53s24.11,5.18,31.11,15.53c7,10.36,10.5,25.65,10.5,45.89s-3.5,35.45-10.5,45.81c-7,10.36-17.37,15.53-31.11,15.53s-24.03-5.18-31.03-15.53c-7-10.36-10.5-25.63-10.5-45.81ZM527.2,429.49c-5.97,0-10.33,3.18-13.08,9.55-2.75,6.37-4.12,16.66-4.12,30.87s1.37,24.42,4.12,30.79c2.75,6.37,7.11,9.55,13.08,9.55s10.41-3.18,13.15-9.55c2.75-6.37,4.12-16.63,4.12-30.79s-1.38-24.5-4.12-30.87c-2.75-6.37-7.13-9.55-13.15-9.55Z"/>
    <path d="M576.1,410.63h20.45l8.48,86.86,10.22-56.19h19.42l11.89,56.19,6.66-86.86h20.61l-13.63,118.33h-21.79l-13.47-62.13-12.6,62.13h-21.64l-14.58-118.33Z"/>
    <path d="M60.71,646.69v-22.59h-16.01v-19.65h36.46v54.21c-4.49,3.86-9.44,6.77-14.86,8.76-5.42,1.98-11.21,2.97-17.4,2.97-15.32,0-27.16-5.32-35.51-15.97-8.35-10.65-12.52-25.77-12.52-45.37s4.21-35.14,12.64-45.65c8.43-10.51,20.59-15.77,36.5-15.77,4.76,0,9.43.67,14.03,2.02,4.6,1.35,8.9,3.29,12.92,5.82v25.92c-3.28-4.23-7.04-7.41-11.29-9.55-4.25-2.14-8.92-3.21-13.99-3.21-8.88,0-15.51,3.34-19.89,10.03-4.39,6.68-6.58,16.82-6.58,30.39s2.11,23.17,6.34,30.04c4.23,6.87,10.38,10.3,18.47,10.3,2.43,0,4.54-.22,6.34-.67,1.8-.45,3.25-1.12,4.36-2.02Z"/>
    <path d="M176.34,668.09h-73.71v-118.33h73.71v20.61h-50.33v25.52h45.57v20.61h-45.57v30.99h50.33v20.61Z"/>
    <path d="M196.47,549.76h25.12l32.97,85.99v-85.99h20.61v118.33h-24.96l-33.13-85.99v85.99h-20.61v-118.33Z"/>
    <path d="M368.14,668.09h-73.71v-118.33h73.71v20.61h-50.33v25.52h45.57v20.61h-45.57v30.99h50.33v20.61Z"/>
    <path d="M442.8,612.21c2.32.48,4.35,1.57,6.06,3.29,1.72,1.72,3.82,5.06,6.3,10.03l21.4,42.56h-25.68l-14.27-29.88c-.42-.85-.98-2.01-1.66-3.49-4.18-8.93-9.09-13.39-14.74-13.39h-7.45v46.76h-23.38v-118.33h33.76c15.22,0,26.14,2.7,32.77,8.09,6.63,5.39,9.95,14.16,9.95,26.31,0,8.14-1.98,14.61-5.94,19.42-3.96,4.81-9.67,7.69-17.12,8.64ZM412.76,569.41v32.26h11.02c6.39,0,10.98-1.25,13.75-3.76,2.77-2.51,4.16-6.64,4.16-12.4s-1.37-9.88-4.12-12.36c-2.75-2.48-7.34-3.73-13.79-3.73h-11.02Z"/>
    <path d="M511.11,549.76h28.61l31.94,118.33h-23.38l-7.29-29.24h-31.31l-7.13,29.24h-23.38l31.94-118.33ZM525.38,571.16l-11.02,48.42h22.11l-11.1-48.42Z"/>
    <path d="M622.07,668.09h-23.38v-97.88h-30.04v-20.45h83.45v20.45h-30.04v97.88Z"/>
    <path d="M662.89,609.04c0-20.24,3.5-35.53,10.5-45.89,7-10.35,17.34-15.53,31.03-15.53s24.11,5.18,31.11,15.53c7,10.36,10.5,25.65,10.5,45.89s-3.5,35.45-10.5,45.81-17.37,15.53-31.11,15.53-24.03-5.18-31.03-15.53c-7-10.36-10.5-25.63-10.5-45.81ZM704.42,568.62c-5.97,0-10.33,3.18-13.08,9.55-2.75,6.37-4.12,16.66-4.12,30.87s1.37,24.42,4.12,30.79c2.75,6.37,7.11,9.55,13.08,9.55s10.41-3.18,13.15-9.55c2.75-6.37,4.12-16.63,4.12-30.79s-1.38-24.5-4.12-30.87c-2.75-6.37-7.13-9.55-13.15-9.55Z"/>
    <path d="M817.27,612.21c2.32.48,4.35,1.57,6.06,3.29,1.72,1.72,3.82,5.06,6.3,10.03l21.4,42.56h-25.68l-14.27-29.88c-.42-.85-.98-2.01-1.66-3.49-4.17-8.93-9.09-13.39-14.74-13.39h-7.45v46.76h-23.38v-118.33h33.76c15.22,0,26.14,2.7,32.77,8.09,6.63,5.39,9.95,14.16,9.95,26.31,0,8.14-1.98,14.61-5.94,19.42-3.96,4.81-9.67,7.69-17.12,8.64ZM787.24,569.41v32.26h11.02c6.39,0,10.98-1.25,13.75-3.76,2.77-2.51,4.16-6.64,4.16-12.4s-1.37-9.88-4.12-12.36c-2.75-2.48-7.34-3.73-13.79-3.73h-11.02Z"/>
  </g>
</svg>