<?xml version="1.0" encoding="UTF-8"?>
<svg id="Layer_1" data-name="Layer 1" xmlns="http://www.w3.org/2000/svg" viewBox="0 0 691.55 691.55">
  <defs>
    <style>
      .cls-1 {
        fill: #dc4a38;
      }

      .cls-2 {
        fill: #fff;
      }
    </style>
  </defs>
  <rect class="cls-1" width="691.55" height="691.55"/>
  <path class="cls-2" d="M183.67,89.17h21.29s-6.75-5.19-6.75-5.19l-9.52-52.96c-12.11,4.5,0,18.69-2.08,28.38h-14.19c-1.04-.69,11.25-16.44,9.17-19.9-11.77,15.4-18.17,36.86-33.4,48.98l18.52.69-7.1-5.02c2.42-4.5,9.35-21.11,13.5-21.98,4.15-.87,9.69,0,13.5.69,2.25,1.56,5.19,19.73,3.63,22.15-1.56,2.42-5.88,1.04-6.4,4.15h-.17Z"/>
  <path class="cls-2" d="M158.06,32.4h-38.42c1.56,3.81,9,.35,7.1,6.23-6.4,12.46-6.06,32.54-11.25,44.31-5.19,11.77-4.15,3.29-5.71,6.23h21.29s-8.48-5.19-8.48-5.19l5.71-24.58c4.15-.17,15.4-1.21,17.65,2.6s-.69,6.92,2.08,7.1c0-6.06,3.12-12.29,4.15-17.83s-4.33,3.29-4.85,3.63c-4.85,3.63-11.94,2.77-17.83,2.77l4.33-22.5c.52-.52,14.02-.35,15.92,0,5.88,1.73,1.21,8.83,6.75,8.31l1.38-11.42v.35s.17,0,.17,0Z"/>
  <path d="M30.34,87.79c2.42-.69,3.29-1.21,4.67-3.29,3.29-5.02,19.38-40.5,20.6-46.04,1.21-5.54.35-2.08,0-3.29-.69-.69-9.17,1.73-9.86-2.77l16.27,1.38c3.46,11.77,3.98,24.23,6.4,36.17,2.42,11.94-1.38,4.15,2.08,3.63,2.08-.69,16.1-36.34,19.9-39.81s8.31-1.04,12.11-1.38l-6.92,5.19c.87,8.48-1.38,17.31-1.73,25.27s-.69,18,.35,21.11c1.04,3.12,6.23,2.25,6.92,5.19h-21.29s6.92-5.19,6.92-5.19l2.94-41.71c-10.56,11.77-14.19,30.98-22.33,43.61s0,2.6-3.12,1.9l-7.79-46.9c-1.9,6.23-19.04,42.06-16.27,45.34,2.77,3.29,6.92,0,6.92,2.94h-16.96v-1.38h.17Z"/>
  <path d="M183.67,89.17c.52-3.29,5.19-2.42,6.4-4.15s-1.21-20.6-3.63-22.15c-3.81-.87-9.86-1.38-13.5-.69-3.63.69-11.08,17.48-13.5,21.98l7.1,5.02-18.52-.69c15.23-12.11,21.63-33.58,33.4-48.98,2.08,3.46-10.21,19.04-9.17,19.9h14.19c2.25-9.86-10.04-23.88,2.08-28.38l9.52,52.96,6.75,5.19h-21.29s.17,0,.17,0Z"/>
  <path d="M158.06,32.4l-1.38,11.42c-5.37.69-.69-6.4-6.75-8.31-6.06-1.9-15.23-.69-15.92,0l-4.33,22.5c5.71,0,12.98.87,17.83-2.77,4.85-3.63,6.06-9.35,4.85-3.63-1.21,5.71-4.15,11.77-4.15,17.83-2.77,0-.52-4.5-2.08-7.1-2.25-3.98-13.33-2.77-17.65-2.6l-5.71,24.58,8.48,5.19h-21.29c1.73-2.94,3.98-1.9,5.71-6.23,5.02-11.77,4.67-31.84,11.25-44.31,1.9-5.88-5.54-2.42-7.1-6.23h38.42s0-.35,0-.35h-.17Z"/>
  <g>
    <path class="cls-2" d="M248.92,67.88h11.42v19.9h22.67v-55.38h-22.85v17.48c-.87,2.42-3.81,2.42-6.23,2.42-1-.07-1.59-.08-2.02-.12-.54-.1-1.08-.26-1.61-.57l-1.38-19.21h-22.67v55.38h22.67v-19.9Z"/>
    <polygon class="cls-2" points="52.06 320.03 86.17 320.03 86.17 304.68 52.06 304.68 52.06 285.68 89.53 285.68 89.53 270.34 34.65 270.34 34.65 358.44 52.06 358.44 52.06 320.03"/>
    <path class="cls-2" d="M148.81,319.29c-1.28-1.28-2.78-2.09-4.51-2.45,5.55-.71,9.8-2.85,12.75-6.43,2.95-3.58,4.43-8.4,4.43-14.46,0-9.05-2.47-15.58-7.41-19.59-4.94-4.01-13.07-6.02-24.4-6.02h-25.14v88.11h17.41v-34.82h5.55c4.21,0,7.87,3.32,10.98,9.97.51,1.1.92,1.97,1.24,2.6l10.62,22.25h19.12l-15.93-31.69c-1.85-3.7-3.41-6.19-4.69-7.47ZM140.37,306.19c-2.07,1.87-5.48,2.8-10.24,2.8h-8.2v-24.02h8.2c4.8,0,8.22.93,10.27,2.77,2.05,1.85,3.07,4.92,3.07,9.21s-1.03,7.37-3.1,9.24Z"/>
    <polygon class="cls-2" points="232.05 343.1 214.52 343.1 214.52 285.68 232.05 285.68 232.05 270.34 179.59 270.34 179.59 285.68 197.12 285.68 197.12 343.1 179.59 343.1 179.59 358.44 232.05 358.44 232.05 343.1"/>
    <path class="cls-2" d="M268.94,270.34h-18.65v88.11h18.65c14.4,0,24.77-3.45,31.1-10.36,6.33-6.9,9.5-18.17,9.5-33.79s-3.17-26.8-9.5-33.67c-6.33-6.86-16.7-10.3-31.1-10.3ZM287.05,336.28c-2.91,4.31-7.79,6.46-14.64,6.46h-4.72v-56.71h4.72c6.85,0,11.72,2.15,14.64,6.43,2.91,4.29,4.37,11.57,4.37,21.84s-1.46,17.67-4.37,21.98Z"/>
    <path class="cls-2" d="M339.64,336.67h23.31l5.43,21.78h17.41l-23.78-88.11h-21.3l-23.78,88.11h17.41l5.31-21.78ZM351.32,286.27l8.26,36.06h-16.47l8.2-36.06Z"/>
    <polygon class="cls-2" points="95.2 373.93 75.49 373.93 48.22 408.75 48.22 373.93 30.81 373.93 30.81 462.04 48.22 462.04 48.22 432.18 55.95 422.38 76.84 462.04 96.2 462.04 67.4 408.63 95.2 373.93"/>
    <path class="cls-2" d="M123.76,373.93l-23.78,88.11h17.41l5.31-21.78h23.31l5.43,21.78h17.41l-23.78-88.11h-21.3ZM126.18,425.92l8.2-36.06,8.26,36.06h-16.47Z"/>
    <polygon class="cls-2" points="194.93 422.86 216.71 422.86 216.71 462.04 234.12 462.04 234.12 373.93 216.71 373.93 216.71 407.51 194.93 407.51 194.93 373.93 177.52 373.93 177.52 462.04 194.93 462.04 194.93 422.86"/>
    <polygon class="cls-2" points="252.77 373.93 252.77 462.04 307.41 462.04 307.41 446.7 270.17 446.7 270.17 373.93 252.77 373.93"/>
    <path class="cls-2" d="M348.61,463.75c10.23,0,17.95-3.86,23.16-11.57,5.21-7.71,7.82-19.08,7.82-34.11s-2.61-26.46-7.82-34.17c-5.21-7.71-12.93-11.57-23.16-11.57s-17.89,3.86-23.1,11.57c-5.21,7.71-7.82,19.1-7.82,34.17s2.61,26.4,7.82,34.11c5.21,7.71,12.91,11.57,23.1,11.57ZM338.87,395.09c2.05-4.74,5.29-7.11,9.74-7.11s7.75,2.37,9.8,7.11c2.05,4.74,3.07,12.4,3.07,22.99s-1.02,18.19-3.07,22.93c-2.05,4.74-5.31,7.11-9.8,7.11s-7.69-2.37-9.74-7.11c-2.05-4.74-3.07-12.38-3.07-22.93s1.02-18.25,3.07-22.99Z"/>
    <path class="cls-2" d="M60.26,567.35c10.54,0,18.2-2.71,22.96-8.14,4.76-5.43,7.14-14.12,7.14-26.08v-55.59h-17.41v59.96c0,4.41-1.12,7.86-3.36,10.36-2.24,2.5-5.35,3.75-9.32,3.75s-7.08-1.25-9.32-3.75c-2.24-2.5-3.36-5.95-3.36-10.36v-59.96h-17.41v55.59c0,11.96,2.39,20.65,7.17,26.08,4.78,5.43,12.42,8.14,22.93,8.14Z"/>
    <polygon class="cls-2" points="146.95 541.56 122.4 477.53 103.7 477.53 103.7 565.64 119.04 565.64 119.04 501.61 143.71 565.64 162.3 565.64 162.3 477.53 146.95 477.53 146.95 541.56"/>
    <polygon class="cls-2" points="232.05 492.87 232.05 477.53 179.59 477.53 179.59 492.87 197.12 492.87 197.12 550.29 179.59 550.29 179.59 565.64 232.05 565.64 232.05 550.29 214.52 550.29 214.52 492.87 232.05 492.87"/>
    <path class="cls-2" d="M288.94,518.48c5.63-.51,9.89-2.36,12.81-5.55,2.91-3.19,4.37-7.61,4.37-13.28,0-7.4-2.47-12.95-7.41-16.67-4.94-3.72-12.3-5.58-22.1-5.58h-28.39v88.23h28.39c11.53,0,19.85-1.91,24.96-5.72,5.11-3.82,7.67-9.97,7.67-18.47,0-6.92-1.7-12.31-5.11-16.17-3.4-3.86-8.47-6.12-15.2-6.79ZM265.04,491.28h11.57c4.33,0,7.44.82,9.35,2.45,1.91,1.63,2.86,4.26,2.86,7.88s-.94,6.22-2.8,7.79c-1.87,1.57-5.01,2.36-9.41,2.36h-11.57v-20.48ZM288.26,548.88c-2.22,1.89-6.11,2.83-11.65,2.83h-11.57v-26.08h11.57c5.35,0,9.19,1.04,11.51,3.13,2.32,2.08,3.48,5.51,3.48,10.27s-1.11,7.97-3.33,9.85Z"/>
    <path class="cls-2" d="M365.75,526.48c-1.28-1.28-2.78-2.1-4.51-2.45,5.55-.71,9.8-2.85,12.75-6.43,2.95-3.58,4.43-8.4,4.43-14.46,0-9.05-2.47-15.58-7.41-19.59-4.94-4.01-13.07-6.02-24.4-6.02h-25.14v88.11h17.41v-34.82h5.55c4.21,0,7.87,3.33,10.98,9.97.51,1.1.92,1.97,1.24,2.6l10.62,22.25h19.12l-15.93-31.69c-1.85-3.7-3.41-6.19-4.69-7.47ZM357.31,513.38c-2.07,1.87-5.48,2.8-10.24,2.8h-8.2v-24.02h8.2c4.8,0,8.22.93,10.27,2.77,2.05,1.85,3.07,4.92,3.07,9.21s-1.03,7.37-3.1,9.24Z"/>
    <path class="cls-2" d="M422.73,567.35c10.23,0,17.95-3.85,23.16-11.57,5.21-7.71,7.82-19.08,7.82-34.11s-2.61-26.46-7.82-34.17c-5.21-7.71-12.93-11.57-23.16-11.57s-17.89,3.86-23.1,11.57c-5.21,7.71-7.82,19.1-7.82,34.17s2.61,26.4,7.82,34.11c5.21,7.71,12.91,11.57,23.1,11.57ZM412.99,498.68c2.05-4.74,5.29-7.11,9.74-7.11s7.75,2.37,9.8,7.11c2.05,4.74,3.07,12.4,3.07,22.99s-1.02,18.19-3.07,22.93c-2.05,4.74-5.31,7.11-9.8,7.11s-7.69-2.37-9.74-7.11c-2.05-4.74-3.07-12.38-3.07-22.93s1.02-18.25,3.07-22.99Z"/>
    <polygon class="cls-2" points="516.56 477.53 511.6 542.21 502.75 500.37 488.29 500.37 480.68 542.21 474.37 477.53 459.14 477.53 470 565.64 486.11 565.64 495.49 519.37 505.53 565.64 521.75 565.64 531.91 477.53 516.56 477.53"/>
    <path class="cls-2" d="M63.45,636.48h11.92v16.82c-.83.67-1.91,1.17-3.25,1.5-1.34.34-2.91.5-4.72.5-6.02,0-10.6-2.56-13.75-7.67-3.15-5.11-4.72-12.57-4.72-22.37s1.63-17.66,4.9-22.63c3.27-4.98,8.2-7.47,14.81-7.47,3.78,0,7.25.8,10.42,2.39,3.17,1.59,5.97,3.96,8.41,7.11v-19.3c-2.99-1.89-6.2-3.33-9.62-4.34-3.42-1-6.9-1.51-10.45-1.51-11.84,0-20.9,3.92-27.18,11.74-6.28,7.83-9.41,19.16-9.41,33.99s3.11,25.86,9.32,33.79c6.22,7.93,15.03,11.89,26.44,11.89,4.6,0,8.92-.74,12.95-2.21,4.03-1.48,7.72-3.65,11.07-6.52v-40.37h-27.15v14.63Z"/>
    <polygon class="cls-2" points="106.59 669.23 161.47 669.23 161.47 653.89 124 653.89 124 630.81 157.93 630.81 157.93 615.47 124 615.47 124 596.47 161.47 596.47 161.47 581.12 106.59 581.12 106.59 669.23"/>
    <polygon class="cls-2" points="219.72 645.15 195.17 581.12 176.46 581.12 176.46 669.23 191.8 669.23 191.8 605.2 216.47 669.23 235.06 669.23 235.06 581.12 219.72 581.12 219.72 645.15"/>
    <polygon class="cls-2" points="249.4 669.23 304.29 669.23 304.29 653.89 266.81 653.89 266.81 630.81 300.74 630.81 300.74 615.47 266.81 615.47 266.81 596.47 304.29 596.47 304.29 581.12 249.4 581.12 249.4 669.23"/>
    <path class="cls-2" d="M364.39,630.08c-1.28-1.28-2.78-2.1-4.51-2.45,5.55-.71,9.8-2.85,12.75-6.43,2.95-3.58,4.43-8.4,4.43-14.46,0-9.05-2.47-15.58-7.41-19.59-4.94-4.01-13.07-6.02-24.4-6.02h-25.14v88.11h17.41v-34.82h5.55c4.21,0,7.87,3.33,10.98,9.97.51,1.1.92,1.97,1.24,2.6l10.62,22.25h19.12l-15.93-31.69c-1.85-3.7-3.41-6.19-4.69-7.47ZM355.95,616.97c-2.07,1.87-5.48,2.8-10.24,2.8h-8.2v-24.02h8.2c4.8,0,8.22.93,10.27,2.77,2.05,1.85,3.07,4.92,3.07,9.21s-1.03,7.37-3.1,9.24Z"/>
    <path class="cls-2" d="M410.75,581.12l-23.78,88.11h17.41l5.31-21.78h23.31l5.43,21.78h17.41l-23.78-88.11h-21.3ZM413.17,633.12l8.2-36.06,8.26,36.06h-16.46Z"/>
    <polygon class="cls-2" points="453.59 596.35 475.96 596.35 475.96 669.23 493.37 669.23 493.37 596.35 515.73 596.35 515.73 581.12 453.59 581.12 453.59 596.35"/>
    <path class="cls-2" d="M554.69,579.53c-10.19,0-17.89,3.86-23.1,11.57-5.21,7.71-7.82,19.1-7.82,34.17s2.61,26.4,7.82,34.11c5.21,7.71,12.91,11.57,23.1,11.57s17.95-3.85,23.16-11.57c5.21-7.71,7.82-19.08,7.82-34.11s-2.61-26.46-7.82-34.17c-5.21-7.71-12.93-11.57-23.16-11.57ZM564.48,648.19c-2.05,4.74-5.31,7.11-9.8,7.11s-7.69-2.37-9.74-7.11c-2.05-4.74-3.07-12.38-3.07-22.93s1.02-18.25,3.07-22.99c2.05-4.74,5.29-7.11,9.74-7.11s7.75,2.37,9.8,7.11c2.05,4.74,3.07,12.4,3.07,22.99s-1.02,18.19-3.07,22.93Z"/>
    <path class="cls-2" d="M647.93,637.54c-1.85-3.7-3.41-6.19-4.69-7.47-1.28-1.28-2.78-2.1-4.51-2.45,5.55-.71,9.8-2.85,12.75-6.43,2.95-3.58,4.43-8.4,4.43-14.46,0-9.05-2.47-15.58-7.41-19.59-4.94-4.01-13.07-6.02-24.4-6.02h-25.14v88.11h17.41v-34.82h5.55c4.21,0,7.87,3.33,10.98,9.97.51,1.1.92,1.97,1.24,2.6l10.62,22.25h19.12l-15.93-31.69ZM634.8,616.97c-2.07,1.87-5.48,2.8-10.24,2.8h-8.2v-24.02h8.2c4.8,0,8.22.93,10.27,2.77,2.05,1.85,3.07,4.92,3.07,9.21s-1.03,7.37-3.1,9.24Z"/>
  </g>
</svg>