<?xml version="1.0" encoding="UTF-8"?>
<svg id="Layer_1" xmlns="http://www.w3.org/2000/svg" version="1.1" viewBox="0 0 1190.5 841.9">
  <!-- Generator: Adobe Illustrator 29.6.1, SVG Export Plug-In . SVG Version: 2.1.1 Build 9)  -->
  <defs>
    <style>
      .st0 {
        fill: none;
        stroke: #1d1d1b;
      }

      .st0, .st1 {
        stroke-miterlimit: 10;
      }

      .st2 {
        fill: #1d1d1b;
      }

      .st3 {
        isolation: isolate;
      }

      .st4 {
        fill: #fff;
      }

      .st5, .st1 {
        fill: #e30613;
      }

      .st1 {
        stroke: #fff;
        stroke-width: 2px;
      }
    </style>
  </defs>
  <g>
    <path class="st2" d="M515.9,262.2c-24.8-7.2-32.3,9.4-32.3,9.4-1.3,2.2-4,1.8-4,1.8-35.3,2.4-33,30.9-33,30.9,0,0,1,3.6-1.3,4.1,0,0-18,3.7-14.6,14.3.8,2.5,0,3.3,0,3.3-9.9,8.1,0,20.9,0,20.9,0,0,1.7,1.5,0,3.3,0,0-9.1,7.6-2.9,18.2,0,0,1.2,1.3,0,2.2,0,0-12.4,8.6-2.5,17.5,0,0,2,.9-.5,2.7,0,0-12.1,16.7,3,23.9,0,0,2.3.9.3,2.9,0,0-10.1,6.6.8,23.2.9,1.4.5,2.4.5,2.4,0,0-2.9,7.3,4.8,11,0,0,2.8,0,2.4,4.1,0,0-5.6,14.5,4.9,18.6,0,0,1.6.1,1.2,1.9-3,15.8,16.1,16.1,16.1,16.1,16.7-1,16.9,38,16.9,38-2.7-32.2,5.4-89.3,5.4-89.3,11.6-114,110.2-91.8,110.2-91.8,3,.5,3.4-3.2,3.4-3.2v-38.6l-78.9-47.9h.1Z"/>
    <path class="st2" d="M679,262.2c24.8-7.2,32.3,9.4,32.3,9.4,1.3,2.2,4,1.8,4,1.8,35.3,2.4,33,30.9,33,30.9,0,0-1,3.6,1.3,4.1,0,0,18,3.7,14.6,14.3-.8,2.5,0,3.3,0,3.3,9.9,8.1,0,20.9,0,20.9,0,0-1.7,1.5,0,3.3,0,0,9.1,7.6,2.9,18.2,0,0-1.2,1.3,0,2.2,0,0,12.4,8.6,2.5,17.5,0,0-2,.9.5,2.7,0,0,12.1,16.7-3,23.9,0,0-2.3.9-.3,2.9,0,0,10.1,6.6-.7,23.2-.9,1.4-.5,2.4-.5,2.4,0,0,2.9,7.3-4.8,11,0,0-2.8,0-2.4,4.1,0,0,5.6,14.5-4.9,18.6,0,0-1.6.1-1.2,1.9,3,15.8-16.1,16.1-16.1,16.1-16.7-1-16.9,38-16.9,38,2.7-32.2-5.4-89.3-5.4-89.3-11.6-114-110.2-91.8-110.2-91.8-3,.5-3.4-3.2-3.4-3.2v-38.6l78.9-47.9h-.2Z"/>
    <g>
      <path class="st5" d="M641.4,621.6c2.1-.9-45.4-28-87.6,0"/>
      <path class="st5" d="M553.9,621.6s2.7,1,3.5,2.5,36.9,44.6,80.5,0c0,0,1.4-1.6,3.5-2.5s-45.4-28-87.6,0"/>
      <path class="st5" d="M551,621.1c1.1,1.3,23.9,0,27.2-1.4s10.9-1.6,13.1,1c2.2,2.6,8.2,3.6,11.4.4,3.2-3.3,8.3-1.9,8.3-1.9,11,3.2,33.4,3.3,33.4,1.7s-18.5-10.6-27-15.1-15.3-1.2-17.7.7-4.9-.2-4.9-.2c-4.2-3.3-11.1-2.8-16.1-1.5s-27.8,15.5-27.8,15.5c0,0-.6.6,0,.9h0Z"/>
    </g>
    <path class="st2" d="M610.7,473.3c-10.5,4.3-22.4,0-22.4,0-66.1-35-89.9,2.7-89.9,2.7,0,0,29.1-14.3,81.3,9.3,0,0,17.6,6.6,39.6,0s33.5-19.2,78.6-10.4c0,0-21.8-33.5-87.2-1.6h0Z"/>
    <path class="st5" d="M469.3,679.6c0,2.9,1.6,5.2,3.6,5.2s3.6-2.3,3.6-5.2-1.6-5.2-3.6-5.2-3.6,2.3-3.6,5.2Z"/>
    <path class="st5" d="M467,572.2c0,3.8,3.1,6.9,6.9,6.9s6.9-3.1,6.9-6.9-3.1-6.9-6.9-6.9-6.9,3.1-6.9,6.9Z"/>
    <line class="st0" x1="473.9" y1="579.1" x2="473.9" y2="610.4"/>
    <line class="st0" x1="472.9" y1="668.6" x2="472.9" y2="674.4"/>
    <path class="st5" d="M490.9,641.4c0,.4.7.9.7.9h0s.5.7.6,1.3c.2,1.2,0,1.4-.7,2.1-1.5,1.8-2.4,2.3-3,3-2.7,3-2.4,8-2.2,10,0,1,.1.9.1,1.3-.2,4.3-7.3,8.8-13.9,8.5-6.4-.2-12.9-4.9-13.1-9.3v-1.1c.3-4.3.5-7.3-.9-9.7-1.5-2.6-4.1-3.2-4.1-5s.6-2,.6-2c.3-.4.6-.4.8-.8.3-.7-.6-1.6-.7-1.8-1.2-1.4-3.5-9.4-.6-17,2.3-6,7.6-10.7,13.6-12.4.8-.2,3.3-.9,6.7-.6,1.2,0,9.2.8,14.7,7.3,8.1,9.6,3.7,23.1,2.1,24.1,0,0-.9.5-.8,1v.2ZM487.8,637.3c-.7-1-1.9-1.6-2.8-2.8-2.2-3-7.1-1.1-7.8,0-.7,1-1.1,1.9-.3,3.4.7,1.2,1.8,2.5,3.3,3.6,1.3,1,1.3-.3,4.1,1.8,1.5,1.1,3.1-.3,3.9-1.4.8-1.2.8-2.7-.4-4.4h0ZM470.4,645c-.7,1.8-1.1,3.6-.5,4.5.7,1.1,2.3.6,3.3.6s2.6.7,3.3-.4c.6-.9.4-2.7-.2-4.5-.8-2.6-2.3-5.2-2.8-5.2s-2.1,2.5-3.1,5h0ZM482.2,652.8c-2.8,1.9-.9,3.8-.4,4s1.6-1.2,2.3-3.2c.8-2,.9-3.8.4-4s-.6,2-2.3,3.2ZM458.7,640.8c.7,1.1,2.2,2.7,3.8,1.6,2.9-1.9,2.8-.7,4.2-1.6,1.5-1,2.7-2.1,3.5-3.4.9-1.5.6-2.3,0-3.4-.6-1-5.4-3.2-7.8-.3-.9,1.1-2.2,1.7-2.9,2.6-1.3,1.7-1.4,3.2-.7,4.4h-.1ZM461.9,648.9c-.6.2-.5,2,.1,4s1.6,3.5,2.2,3.4c.6-.2,2.5-2-.1-4-1.7-1.3-1.6-3.5-2.2-3.4Z"/>
    <path class="st5" d="M725.6,679.6c0,2.9-1.6,5.2-3.6,5.2s-3.6-2.3-3.6-5.2,1.6-5.2,3.6-5.2,3.6,2.3,3.6,5.2Z"/>
    <path class="st5" d="M728,572.2c0,3.8-3.1,6.9-6.9,6.9s-6.9-3.1-6.9-6.9,3.1-6.9,6.9-6.9,6.9,3.1,6.9,6.9Z"/>
    <line class="st0" x1="721.1" y1="579.1" x2="721.1" y2="610.4"/>
    <line class="st0" x1="722.1" y1="668.6" x2="722.1" y2="674.4"/>
    <path class="st5" d="M703.2,640.4c-1.6-1-6-14.4,2.1-24.1,5.5-6.6,13.4-7.3,14.7-7.3,3.4-.2,5.9.4,6.7.6,6,1.7,11.2,6.3,13.6,12.4,2.9,7.5.6,15.5-.6,17,0,.2-1,1.1-.7,1.8,0,.3.4.4.8.8,0,0,.6.6.6,2s-2.6,2.4-4.1,5c-1.4,2.4-1.2,5.4-.9,9.7v1.1c0,4.4-6.7,9.1-13.1,9.3-6.6.2-13.6-4.3-13.9-8.5,0-.4,0-.3,0-1.3,0-2,.5-7-2.2-10-.6-.7-1.5-1.2-3-3-.6-.8-.9-1-.7-2.1,0-.6.6-1.3.6-1.3h0s.7-.5.7-.9-.7-.9-.8-1v-.2ZM706.8,641.7c.8,1.1,2.4,2.5,3.9,1.4,2.8-2.1,2.7-.9,4.1-1.8,1.5-1,2.6-2.3,3.3-3.6.8-1.5.5-2.3-.3-3.4-.7-.9-5.6-2.8-7.8,0-.8,1.1-2.1,1.8-2.8,2.8-1.2,1.8-1.2,3.2-.4,4.4h0ZM721.4,640c-.5,0-2,2.6-2.8,5.2-.6,1.8-.9,3.6-.2,4.5.8,1,2.4.4,3.3.4s2.6.5,3.3-.6c.6-.9.2-2.7-.5-4.5-1-2.5-2.6-5-3.1-5h0ZM710.4,649.6c-.5.2-.4,2,.4,4,.8,2,1.8,3.4,2.3,3.2s2.4-2.1-.4-4c-1.8-1.2-1.8-3.4-2.3-3.2ZM735.6,636.4c-.7-.9-2-1.5-2.9-2.6-2.4-2.8-7.2-.6-7.8.3-.7,1.1-1,1.9,0,3.4.7,1.2,1.9,2.4,3.5,3.4,1.4.9,1.3-.3,4.2,1.6,1.6,1,3.1-.5,3.8-1.6.8-1.2.7-2.7-.7-4.4h0ZM730.9,652.3c-2.7,2-.7,3.8,0,4,.6.2,1.5-1.3,2.2-3.4.6-2,.7-3.8,0-4-.6-.2-.5,2.1-2.2,3.4Z"/>
    <g>
      <path class="st1" d="M469.3,257.4s4.6.9,6.7-1,5.7-1,10.2-7.2-3-2.8-2.3-8.1-1.6-11.1-7.8-11.6c-6.2-.5-17.2-1.6-15.2-5.3s-1.4-2.6-1.8-2.6-14.9,2-14.4-4c.5-5.9-1.5-.5-1.5-.5,0,0-5.7,2.7-5.7,6.2s1.2,7.1,2.9,7.6c1.7.5,12.1,2,11,5.8s10,10.6,11.8,11-.3,8.4,6,9.6h0Z"/>
      <path class="st1" d="M632.2,264.7c-2.1,20.2-26,34.3-53.2,31.4s-47.6-21.6-45.4-41.9c2.1-20.2,26-34.3,53.2-31.4,27.2,2.9,47.6,21.6,45.4,41.9Z"/>
      <path class="st1" d="M484.1,230.7c-11.3,15.6-9.2,36.5,4.8,46.6,14,10.2,34.5,5.7,45.8-9.9s9.2-36.5-4.8-46.6c-14-10.2-34.5-5.7-45.8,9.9h0Z"/>
      <path class="st1" d="M504.3,208.7s-5.7,5,4.2,11.7,6.4,7.3,4.4,9.7-5,12.2-1.4,10.4c3.7-1.7.6-2.8,8.6-7.6,8-4.9,18.5-4.1,14.1-11-4.3-6.9-9.2-9.6-12-6.8-2.8,2.7-6,5.4-6.8,1.9-.7-3.5,4.2-7.9,1.4-11.5s-6.9-3.1-12.6,3.4v-.2Z"/>
      <path class="st1" d="M463.1,251.6c-5.5,3.1,2.1,11.6,2.1,11.6,0,0,16.5,7.8,24.6-.1s-.3,3,3.7,2.7c4-.4,7,4.2,5.6-1.4s-4.1-9-6.1-9.5-4-9.7,6.6-13.9c10.6-4.3-7.1-8.9-3.4-14.6,3.7-5.7,14.6-17,1.8-22.8,0,0-4.4-2.7-4.7-9.3-.4-6.6-4.6-5.9-7.5.4-2.9,6.3-5.7,6.2-5.6,13.9,0,7.7-1.4.4-1.4.4,0,0-3.7-7.4-8.5-1.8-4.8,5.6-12.7,7.8-7.9,14.4,4.8,6.5-1.1,1.5-1.1,1.5,0,0-7.6,1.1-3.5,8.4,4,7.4-11.4,7.4,5.6,20.1"/>
      <path class="st1" d="M532.1,217.1s-3.5-1.9.6-7.3c4.2-5.4-7.6-6.7-8.2-6-.6.7-2.1-2-13.3,1.1-9,2.5-8.9-6.2-13.5-4.9-1.1.3-2.5,1.3-4.4,3.1-9.6,9.4,6.3,11.6-11,8.6-17.3-2.9-.3,6.6,1.7,6.4,2-.2,2,4.7-.7,4.2s-5.6-3.3-9.1-1c-3.6,2.3-18.3,12-3.9,21.2,14.3,9.2,22,2.9,17.3,9.7-1.4,4.1,2.2,3,2.2,3,3.6-1.1,4.5-3,4.5-3,1.8-9.9,7.7-11,7.7-11,3.4.4,1.5-2.7,1.5-2.7.2-2.6-5.1-1.6-5.1-1.6-12.9-4.2,2.5-14.3,2.5-14.3,14.4-11.5,14.4.2,14.4.2.2,1.6,1.8,1.8,1.8,1.8,8.4-8.6,10.2-.8,10.2-.8,5.4,9.3,6.5,18.5,6.5,18.5,0,0,2.4,6.7,4.1,2.7,1.7-3.9.4-18.7.4-18.7,0,0,3.9-7.5-.7-8.7s-5.4-.6-5.4-.6h0Z"/>
      <path class="st1" d="M537.7,209.9"/>
      <path class="st1" d="M539.7,219.7s1.8-6.2,4.7-.6c2.9,5.6-2.8,3.1,2.2,6.5,5.1,3.4-.5,8-.8,8s-4.7,6.6-3.7,12.9c.9,6.4-2.8,1.5-2.5,1.9s-2-1.3-2.1.4c0,1.6-1.6,8.2-9.6,8-8.1-.2-12.4,2-15.7-1.6s8.1-6.5,8.7-6.2c.6.3,11.3-3.3,12.6-7.5s4.9-8.6,4.3-12.4c-.6-3.7,2.8-6.8,2.8-6.8,0,0,.9-1.2-1-2.7h0Z"/>
      <path class="st1" d="M473.3,261.6s-4.1,0-5.1,1.9-4.3,1.7-5.6,7.6c-1.2,5.9,3.6,1.8,5.2,6.4,1.6,4.5,5.9,9,11.2,8.4,5.3-.6,14.9-1.4,14.7,2-.2,3.4,2.2,1.9,2.5,1.8.4,0,11.6-4,13.5,1,2,5,1.4.2,1.4.2,0,0,3.6-3.1,2.2-6.1-1.4-2.9-3.9-5.7-5.5-5.8-1.6-.1-10.9.3-11.5-3.1-.6-3.3-12.6-7.2-14.2-7.3-1.7,0-3.2-7-8.8-7.1h0Z"/>
      <path class="st1" d="M646.8,274.7s-3.7,1.8-3.8,3.9-3.2,3.4-1.8,9.3c1.4,5.8,4,.1,7.4,3.6,3.4,3.4,9.1,5.6,13.7,2.9,4.6-2.8,12.9-7.6,14.2-4.5s2.8.8,3.1.6c.3-.2,8.8-8.5,12.7-4.9,3.9,3.7,1.3-.4,1.3-.4,0,0,2-4.4-.6-6.4s-5.9-3.5-7.4-2.9-9.7,4.9-11.7,2.1-14.5-1.2-16-.5-5.9-5-11-2.6v-.2Z"/>
      <path class="st1" d="M581.5,305.4s-6.3-1.7-7.3,6.5c-.9,8.2-16.6-1.4-16.5-2.5,0-1.1-4.7-.3-14.8-12.9-8.1-10.2-17.6-2.9-21.7-8.2-1-1.3-1.7-3.3-1.9-6.6-1.3-16.4,20.4-3.8-3.7-17-24.1-13.2,6.9-5.7,9.1-3.7,2.2,2,7.7-2.1,3.8-4.1-3.8-2-10.4-2.3-12.1-7.4-1.7-5.1-8.9-26.4,18.7-21,27.5,5.4,29.8,17.6,31.6,7.6,2.9-4.7,6.1-.5,6.1-.5,3.1,4.2,2.1,6.6,2.1,6.6-8.8,9.8-2.8,16-2.8,16,4.6,2.8-1.2,3.5-1.2,3.5-2.6,2.3-8-3.3-8-3.3-20.2-8.2-12.9,14-12.9,14,4.7,22.5,17.6,12.9,17.6,12.9,2-1.1,4.1.2,4.1.2.6,14.7,11.4,9.9,11.4,9.9,16.8-2.8,28.2-9.4,28.2-9.4,0,0,10.3-3.3,8,1.5s-20.2,15.7-20.2,15.7c0,0-3.6,9.7-10.4,6.5-6.8-3.1-7.2-4.4-7.2-4.4h0Z"/>
      <path class="st1" d="M570.8,204.8c6.8,18,25.4,27.8,41.6,21.7,16.2-6.1,23.8-25.6,17-43.7-6.8-18-25.4-27.8-41.6-21.7-16.2,6.1-23.8,25.6-17,43.7Z"/>
      <path class="st1" d="M585,184.2s-1.7,7.4,10.3,6.9c12-.4,9.5,2.1,9.2,5.2-.2,3.1,3.1,12.8,5,9.2,2-3.6-1.1-2.6,2.5-11.2,3.6-8.6,12.5-14.2,5-17.2s-13.1-2.4-13.8,1.5-1.7,7.9-4.4,5.5-1.2-8.8-5.7-10.1c-4.4-1.3-7.4,1.6-8.2,10.2h.1Z"/>
      <path class="st1" d="M568,235.5c-.6,7.5,13.2,5.4,13.2,5.4,0,0,19.2-11.5,16.7-24.7s2.8,2.3,5.2-2c2.4-4.2,9-4.3,2.4-6.5s-11.9-1.7-13.7,0c-1.9,1.7-12.5-2.2-9.5-15.5,2.9-13.3-13.8,1.4-17.1-6s-7.1-25.5-21.8-16.4c0,0-5.7,2.6-12.6-1.2-6.9-3.9-9.1.8-4.8,7.8s2.4,9.6,10.2,14.6-.6,1.7-.6,1.7c0,0-10-1-7.6,7.4s-.8,17.7,9.1,17.1c9.9-.6.8,2.1.8,2.1,0,0-4.1,8.2,6.1,8.9,10.2.7-.4,16.2,24.1,7.3"/>
      <path class="st1" d="M584.8,158.9s-3.5,1.9-5.7-4.5-9.8,2.7-9.5,3.6c.3.9-2.8.6-6.4,11.7-2.9,8.9-10.1,4-11.5,8.6-.3,1.1-.3,2.8.2,5.4,2.5,13.2,13.2,1.1,1.2,13.9-12,12.8,5.3,3.9,6.2,2.1,1-1.8,5.1.9,3.1,2.9-1.9,1.9-5.9,2.8-5.9,7.1s0,21.9,15.5,15c15.6-6.9,14.5-16.8,17.6-9,2.7,3.4,3.8-.2,3.8-.2,1.1-3.6,0-5.4,0-5.4-7.3-7-4.9-12.5-4.9-12.5,2.2-2.7-1.4-2.7-1.4-2.7-2.1-1.6-4.2,3.4-4.2,3.4-10.6,8.4-10.6-10-10.6-10-1.6-18.4,8.1-11.9,8.1-11.9,1.4.7,2.4-.5,2.4-.5-2.6-11.8,4.9-8.9,4.9-8.9,10.7.6,19,4.8,19,4.8,0,0,6.9,1.7,4.5-1.9-2.3-3.6-15.4-10.6-15.4-10.6,0,0-4.1-7.3-7.6-4.2s-3.5,4.1-3.5,4.1v-.3Z"/>
      <path class="st1" d="M612.7,165.6"/>
      <path class="st1" d="M585.6,160.4s-8.6-15.8,6.1-12.7c14.7,3.1,18.2-2.9,20,4.4,1.8,7.2,3.1.9,3.2,1,0,.1,4.6-6.6,10.4,4.3,5.8,10.9,8.2,10,9.4,9.5,1.3-.5,11.4,6.6,2.7,11.8-8.8,5.2-5.4,8-5.4,8,0,0,.7,3.1-1.8,2s-8.2-16.3-15.4-17.4c-7.2-1.1-15.9-2.8-18.1-9.9-2.2-7.1-7.1-5.3-8.3-5.7s2,4.3-.3,5-2.6-.2-2.6-.2h0Z"/>
      <path class="st1" d="M620.2,172.3s-2.1-6.1,3.5-3.2c5.6,2.9-.5,4.1,5.6,3.9,6.1-.2,4.3,6.8,4.1,7s0,8,4.6,12.7c4.5,4.6-1.4,2.9-.9,3s-2.4.2-1.5,1.5,3.5,7.5-3.1,12.1c-6.7,4.6-8.8,8.9-13.6,7.9s2.7-10,3.4-10.1,7.2-9.3,5.8-13.5-1.1-9.9-3.8-12.5c-2.7-2.7-1.7-7.1-1.7-7.1,0,0,0-1.5-2.4-1.6h0Z"/>
      <path class="st1" d="M579.5,233.4s-4.3-.6-8.3,4.6c-3.9,5.1-11,13.4-12.2,12.8-1.2-.6-3.5,3.5,1.1,3s9-5,10-2,2.7-.6,2.8,0c0,.6,1.2-3.4,3.2.7,2,4.1,8.5.3,9.5-.5s4.7-1.2,5.7.7c1,1.8,4.1,1.1,5.4.8,1.3-.4,3-2.2,2.8-3s-1.5-5.6,1.2-6.1-4.2-12.4-11.4-10.9-9.8,0-9.8,0h0Z"/>
      <path class="st1" d="M413.2,290.5c0,19.3,14.3,34.9,32,34.9s32-15.6,32-34.9-14.3-34.9-32-34.9-32,15.6-32,34.9Z"/>
      <path class="st1" d="M471.8,281.2s-4.3,6.3,7.3,10.1c11.6,3.8,8.3,5.3,7,8.1-1.4,2.8-1.7,13.1,1.5,10.4,3.2-2.6-.1-2.8,6.4-9.6,6.6-6.8,17.1-8.9,11-14.4s-11.7-6.8-13.7-3.4c-2.1,3.4-4.5,6.8-6.2,3.6-1.7-3.2,2-8.7-1.8-11.4-3.8-2.7-7.7-1.1-11.5,6.6h0Z"/>
      <path class="st1" d="M515.3,249.8"/>
      <path class="st1" d="M647.2,195.2c20.7,11.4,29.2,35.7,19,54.5-10.3,18.7-35.4,24.7-56.1,13.3-20.7-11.4-29.2-35.7-19-54.5,10.3-18.7,35.4-24.7,56.1-13.3Z"/>
      <path class="st1" d="M619.6,209.1s9.3-.8,6.6,13.7.9,11.9,4.7,12.2c3.8.2,15,5.9,10.3,7.7s-3-1.8-14.1,1.1c-11.1,3-19.5,12.8-21.8,3.1s-.6-16.4,4.3-16.5c4.9-.2,9.9-.7,7.5-4.4-2.5-3.7-10.5-3-11.3-8.6s3.2-8.8,13.8-8.3Z"/>
      <path class="st1" d="M681.4,207.3c7.8.5,3.8,14.1,3.8,14.1,0,0-14.3,17.5-27.4,12.9-13.1-4.5,1.9,3.2-2.7,4.9-4.6,1.7-5.6,8.4-6.9,1.4-1.4-7,0-12.2,1.8-13.8,1.9-1.6-.6-12.9-14.6-12s3.3-13.7-3.8-18.1c-7.1-4.4-25.1-11.1-13.9-24.4,0,0,3.4-5.3.4-12.8s2-9,8.6-3.6c6.5,5.4,9.5,3.9,13.5,12.5s1.8-.4,1.8-.4c0,0,.3-10.2,8.6-6.5s18.2,2,16.3,11.8c-2,9.8,2,1.1,2,1.1,0,0,8.9-2.8,8.3,7.5-.6,10.3,16.6,2.2,4.3,25.3"/>
      <path class="st1" d="M588.9,204.5s3-4-4.5-7.8c-7.4-3.8,5-11.5,6-11,1.1.5,1.3-3.3,15.3-5.8,11.3-2,6.6-11.7,12.5-12.6,1.4-.2,3.5,0,6.5,1.1,15.6,5.3-1,16.2,16.7,3.8s3.8,7.1,1.4,8c-2.3.9.2,6.3,2.9,4.3s4.4-6.7,9.6-6c5.2.7,26.6,3.6,15.5,21.5s-23,14.9-14.1,20c3.7,3.9-.9,4.6-.9,4.6-4.6.7-6.6-1-6.6-1-7.2-10.1-14.3-8.1-14.3-8.1-3.6,2.3-3-2.2-3-2.2-1.6-2.8,4.9-4.5,4.9-4.5,12.1-11.5-10.2-14.7-10.2-14.7-22-5.2-15.9,7.8-15.9,7.8.6,1.9-1.1,2.9-1.1,2.9-13.8-5.2-11.7,4.5-11.7,4.5-1.2,13.2,2.5,24,2.5,24,0,0,.8,8.7-3.1,5.2-3.9-3.5-10.2-20.6-10.2-20.6,0,0-8.2-6.3-3.8-10s5.7-3.6,5.7-3.6v.2Z"/>
      <path class="st1" d="M592,239.8"/>
      <path class="st1" d="M590.5,205.7s-17.7-13.2-16.5,5.2c1.2,18.5-6.7,21.7,1.8,25.2s.5,4,.7,4-8.8,4.5,3.4,13.5c12.2,9,10.7,11.7,9.9,13.2s6,15.1,13.8,5.3c7.9-9.8,10.7-5.2,10.7-5.2,0,0,3.6,1.4,2.7-1.8-.9-3.2-18.4-12.7-18.4-21.8s-.6-19.9-8.9-23.8c-8.2-3.9-5.1-9.6-5.4-11.1-.3-1.5,4.8,3.1,6.1.5s.2-3.2.2-3.2h0Z"/>
      <path class="st1" d="M598.9,250s-7-3.7-4.5,3.7c2.5,7.4,5.1.1,3.8,7.5-1.4,7.4,7.4,6.4,7.8,6.2.3-.2,9.8,1.5,14.6,7.8s3.7-1.2,3.8-.6c0,.6.6-2.9,2.1-1.5s8.5,5.6,15.2-1.7c6.7-7.3,12.4-9.3,12-15.3s-12.6,1.6-12.9,2.4c-.3.8-12.6,7.2-17.4,4.8s-11.8-3-14.6-6.7c-2.8-3.7-8.4-3.3-8.4-3.3,0,0-1.8-.2-1.5-3.2h0Z"/>
      <path class="st1" d="M680.3,210.8s0-5.4,7-9.3c7-3.9,18.2-11.1,17.7-12.7-.5-1.6,4.9-3.7,3.4,1.9-1.5,5.6-7.7,10.1-4.2,11.8s-1.2,3.2-.5,3.4-4.3.9.3,4-1.1,10.4-2.3,11.5-2.3,5.5-.2,7,.6,5.2,0,6.7c-.7,1.6-3.2,3.3-4.1,3-1-.3-6.5-2.8-7.7.5-1.1,3.2-14.3-7.3-11.2-15.8,3.1-8.6,1.8-12,1.8-12h0Z"/>
      <path class="st1" d="M675.3,223.9s4.6-2.2,6.7-.6c2.1,1.6,5.7-.3,10.2,5.5,4.4,5.9-3,3.9-2.4,9.8.6,5.9-1.8,13.1-8,15.3-6.2,2.2-17.3,6.4-15.3,10,2,3.7-1.4,3.3-1.9,3.4s-14.9,1.7-14.5,8.3c.4,6.6-1.5.9-1.5.9,0,0-5.7-1.6-5.6-5.6,0-4,1.3-8.4,3-9.4s12.2-5.5,11.2-9.5c-1-4.1,10.2-14.7,12-15.7,1.8-.9,0-9.5,6.1-12.6v.2Z"/>
      <path class="st1" d="M639.1,292.4c2.6,6.1-11.3,7-11.3,7,0,0-21.7-5.7-22.8-17.1-1.1-11.3-2.1,2.4-5.6-.6-3.4-3-9.9-1.8-4.1-4.9,5.9-3.1,11.1-3.7,13.3-2.7s11.5-4.3,5.1-14.7c-6.4-10.4,13.8-1.6,15-8.3s0-22.4,16.7-17.8c0,0,6.2,1,11.9-3.5s9-1.1,6.7,5.5.3,8.4-6,14c-6.2,5.6,1,1.3,1,1.3,0,0,9.5-2.8,9.4,4.6,0,7.4,5.5,14.5-4.3,15.9-9.8,1.4-.2,1.9-.2,1.9,0,0,6.2,6-3.5,8.6s4.7,13.3-21.3,10.8"/>
      <path class="st1" d="M600.4,221.1s4.8,1.1,5.3-5.7,12.5.4,12.5,1.3,3.5,0,11.4,10c6.4,8,13.3,1.6,16.5,5.8.8,1,1.3,2.7,1.6,5.3,1.4,13.5-15.2,4.1,3.2,13.9,18.5,9.8-5,5-6.7,3.5s-5.7,2.1-2.8,3.5c2.9,1.5,7.9,1.4,9.3,5.6,1.4,4.1,7.4,21.3-13.4,18.2-20.8-3.2-22.8-13.1-23.9-4.8-2.1,4-4.5.7-4.5.7-2.5-3.3-1.8-5.3-1.8-5.3,6.3-8.5,1.7-13.3,1.7-13.3-3.5-2.1.8-3,.8-3,1.9-2,6.1,2.4,6.1,2.4,15.4,5.8,9.3-12.1,9.3-12.1-4.2-18.3-13.5-9.8-13.5-9.8-1.5,1-3.1,0-3.1,0-.8-12.1-8.8-7.6-8.8-7.6-12.5,3-20.9,9-20.9,9,0,0-7.6,3.2-6-.8s14.7-13.8,14.7-13.8c0,0,2.4-8.1,7.6-5.9,5.2,2.3,5.5,3.3,5.5,3.3v-.4Z"/>
      <path class="st1" d="M569.6,234"/>
      <path class="st1" d="M600,222.7s5-17.4-11.4-11-22.5,1.3-22.3,8.8-3.4,1.6-3.4,1.7-7.6-5.4-10.9,6.6c-3.3,11.9-6.4,11.6-8,11.4-1.7-.2-11.4,9,.8,12.1,12.1,3.1,9,6.6,9,6.6,0,0,.2,3.2,2.7,1.5,2.6-1.7,4.3-17.8,12.5-20.5s17.9-6.4,18.1-13.8c.3-7.4,6.7-6.8,7.9-7.4,1.3-.7-.9,4.6,2,4.8s3-.8,3-.8h0Z"/>
      <path class="st1" d="M562.9,242.6s.6-7-5.2-2.5,1.9,4.2-5.4,5.6c-7.3,1.3-2.9,8.2-2.6,8.4.3.2,2.5,8.5-1.4,14.5s2.6,2.7,2.1,2.9c-.5.2,2.9-.4,2.2,1.2s-1.8,8.9,7.6,12c9.4,3.1,13.4,7.1,18.8,4.8,5.4-2.3-6.5-9.8-7.3-9.8s-11.6-8-11.3-12.7c.3-4.8-1.9-10.7.4-14.2,2.3-3.5-.3-8-.3-8,0,0-.5-1.6,2.3-2.3h.1Z"/>
      <path class="st1" d="M631.5,292.7s4.9-1.5,11.3,2.6c6.4,4.1,17.5,10.6,18.8,9.7,1.3-.8,5.3,2.6-.3,3.1-5.7.5-12.3-2.8-12.5.3-.2,3.2-3.4,0-3.3.6,0,.6-2.6-3-3.6,1.4-1,4.5-10,2.3-11.4,1.7-1.5-.6-6,0-6.5,1.9-.6,2-4.5,2-6.2,2s-4.3-1.4-4.4-2.3c0-.8,0-5.8-3.5-5.7-3.4.1.9-13.1,9.9-13.2,9.1-.2,11.7-2.2,11.7-2.2h0Z"/>
      <path class="st1" d="M617.5,292.7s3.9,2.9,3.3,4.9c-.6,2.1,2.6,4.3-1,9.4s-4.8-1.1-10,1.1c-5.1,2.2-12.7,2.5-17.2-1.6s-12.8-11.3-15.3-8.7c-2.5,2.6-3.5,0-3.9-.4-.3-.3-7.5-10.9-13.4-8.6s-1.4-.8-1.4-.8c0,0-.9-4.8,2.8-5.9s8.2-1.5,9.8-.5,9.9,7.7,13.2,5.7,17.6,3.4,19.1,4.5c1.6,1.1,8.6-2.9,13.9,1h.1Z"/>
      <g>
        <path class="st1" d="M427.6,248.7s-1.9-3.9-8.4-4.4c-6.5-.4-17.2-1.8-17.4-3.1-.2-1.3-4.9-1-1.9,2.6s9.1,4.7,7.1,7.2,2,1.9,1.5,2.3c-.4.4,3.5-.9,1.2,3.1-2.3,3.9,4.4,7.3,5.6,7.7,1.2.4,3.6,3.3,2.6,5.1-1,1.8,1.3,4,2.4,4.9,1,.9,3.5,1.3,4.1.7.6-.6,3.9-4.3,5.8-2.3s8-10.4,2.8-15.5c-5.3-5.2-5.4-8.2-5.4-8.2h0Z"/>
        <path class="st1" d="M408.4,319.7c-2.7,5.8,8.7,8.2,8.7,8.2,0,0,18.4-3.4,20.3-14.6s1.5,2.6,4.6,0,8.3-.7,3.8-4.4-8.8-4.8-10.7-4.1c-1.9.8-9.1-5.5-2.9-15.1s-11.2-3-11.6-9.8,1.9-22.3-12.2-19.5c0,0-5.2.4-9.5-4.7-4.3-5.1-7.3-2.1-6,4.7,1.4,6.8-1,8.3,3.7,14.6,4.6,6.2-1,1.1-1,1.1,0,0-7.5-3.8-8.1,3.6s-5.8,13.8,2.1,16.3,0,1.9,0,1.9c0,0-5.6,5.3,2.1,8.9s-5,12.7,16.6,13"/>
        <path class="st1" d="M443.2,252.4s-4.1.6-3.9-6.2-10.3-.9-10.4,0c0,.9-2.9-.4-10.3,8.7-5.9,7.3-11.1.2-14.1,4-.7.9-1.3,2.5-1.8,5.1-2.3,13.2,12.2,5.7-3.9,13.4-16.1,7.8,3.7,5.5,5.2,4.2s4.5,2.6,2,3.8c-2.5,1.1-6.6.6-8.2,4.5-1.5,4-7.9,20.4,9.5,19.5s19.9-10.6,20.1-2.3c1.4,4.2,3.7,1.1,3.7,1.1,2.3-3,1.9-5.1,1.9-5.1-4.4-9.1-.2-13.4-.2-13.4,3.1-1.7-.4-3-.4-3-1.4-2.2-5.2,1.7-5.2,1.7-13.1,4.2-6.6-13.1-6.6-13.1,5-17.8,12-8.3,12-8.3,1.1,1.2,2.5.4,2.5.4,1.7-11.9,7.9-6.6,7.9-6.6,10,4.4,16.4,11.2,16.4,11.2,0,0,6,4,5-.2s-10.9-15.3-10.9-15.3c0,0-1.3-8.3-5.7-6.6-4.4,1.7-4.8,2.6-4.8,2.6h.2Z"/>
        <path class="st1" d="M443.4,254.1s-2.6-17.9,10.4-9.8c12.9,8.1,18.4,3.7,17.6,11.1s2.7,1.9,2.7,2.1,6.7-4.5,8.4,7.7c1.7,12.2,4.2,12.2,5.6,12.2s8.6,10.2-1.7,12c-10.3,1.8-8,5.6-8,5.6,0,0-.4,3.2-2.4,1.2-2-1.9-1.9-18.1-8.5-21.7-6.5-3.6-14.2-8.2-13.7-15.7.4-7.4-4.9-7.4-5.9-8.2s.3,4.7-2.1,4.5c-2.4-.1-2.4-1.1-2.4-1.1h0Z"/>
        <path class="st1" d="M472.2,277.4s.1-6.5,4.5-1.8-2,3.7,3.9,5.6,1.7,7.8,1.4,8c-.3.1-2.8,7.6-.1,13.5,2.7,5.9-2.4,2.2-2,2.5s-2.4-.7-1.9.9c.4,1.6.7,8.3-7.3,10.2-8,1.9-11.7,5.2-15.9,2.6-4.2-2.6,6.2-8.4,6.9-8.2.7.1,10.3-6.2,10.4-10.6s2.5-9.6.9-13.1c-1.6-3.4.9-7.3.9-7.3,0,0,.6-1.4-1.7-2.3h0Z"/>
        <path class="st1" d="M411.4,320.3s-3.9-2.1-9.5,1.4c-5.6,3.4-15.3,8.7-16.3,7.7s-4.6,2.1,0,3.2,10.4-1.5,10.3,1.6c-.1,3.2,2.8.4,2.7,1-.1.5,2.4-2.7,2.8,1.8s8,3.3,9.3,2.9,4.9.5,5.2,2.6c.3,2.1,3.5,2.5,4.9,2.6s3.7-1,3.8-1.8c.1-.8.6-5.8,3.4-5.3s.4-13.1-7-14.2c-7.5-1.1-9.4-3.4-9.4-3.4h-.2Z"/>
        <path class="st1" d="M422.8,321.8s-3.4,2.4-3.1,4.6c.3,2.1-2.5,4,0,9.4,2.5,5.5,4.1-.6,8.1,2.1s10.3,3.8,14.3.2c4-3.6,11.5-9.9,13.4-7,1.9,2.8,2.9.3,3.2,0,.3-.3,7.2-10,11.8-7.1,4.6,2.9,1.3-.7,1.3-.7,0,0,1.1-4.7-1.8-6.2s-6.6-2.3-8-1.5-8.8,6.6-11.4,4.3c-2.5-2.3-14.7,1.5-16.1,2.5s-6.8-3.8-11.6-.5h0Z"/>
      </g>
      <path class="st1" d="M725.5,257.4s-4.6.9-6.7-1c-2.1-1.9-5.7-1-10.2-7.2s3-2.8,2.3-8.1,1.6-11.1,7.8-11.6,17.2-1.6,15.2-5.3,1.4-2.6,1.8-2.6,14.9,2,14.4-4c-.5-5.9,1.5-.5,1.5-.5,0,0,5.7,2.7,5.7,6.2s-1.2,7.1-2.9,7.6-12.1,2-11,5.8-10,10.6-11.8,11,.3,8.4-6,9.6h0Z"/>
      <path class="st1" d="M707.8,232.7c11.3,15.6,9.2,36.5-4.8,46.6-14,10.2-34.5,5.7-45.8-9.9s-9.2-36.5,4.8-46.6c14-10.2,34.5-5.7,45.8,9.9h0Z"/>
      <path class="st1" d="M731.8,251.6c5.5,3.1-2.1,11.6-2.1,11.6,0,0-16.5,7.8-24.6-.1s.3,3-3.7,2.7c-4-.4-7,4.2-5.6-1.4s4.1-9,6.1-9.5,4-9.7-6.6-13.9c-10.6-4.3,7.1-8.9,3.4-14.6-3.7-5.7-14.6-17-1.8-22.8,0,0,4.4-2.7,4.7-9.3.4-6.6,4.6-5.9,7.5.4,2.9,6.3,5.7,6.2,5.6,13.9,0,7.7,1.4.4,1.4.4,0,0,3.7-7.4,8.5-1.8,4.8,5.6,12.7,7.8,7.9,14.4-4.8,6.5,1.1,1.5,1.1,1.5,0,0,7.6,1.1,3.5,8.4-4,7.4,11.4,7.4-5.6,20.1"/>
      <path class="st1" d="M664.7,217.1s3.5-1.9-.6-7.3c-4.2-5.4,7.6-6.7,8.2-6,.6.7,2.1-2,13.3,1.1,9,2.5,8.9-6.2,13.5-4.9,1.1.3,2.5,1.3,4.4,3.1,9.6,9.4-6.3,11.6,11,8.6,17.3-2.9.3,6.6-1.7,6.4-2-.2-2,4.7.7,4.2s5.6-3.3,9.1-1c3.6,2.3,18.3,12,3.9,21.2-14.3,9.2-22,2.9-17.3,9.7,1.4,4.1-2.2,3-2.2,3-3.6-1.1-4.5-3-4.5-3-1.8-9.9-7.7-11-7.7-11-3.4.4-1.5-2.7-1.5-2.7-.2-2.6,5.1-1.6,5.1-1.6,12.9-4.2-2.5-14.3-2.5-14.3-14.4-11.5-14.4.2-14.4.2-.2,1.6-1.8,1.8-1.8,1.8-8.4-8.6-10.2-.8-10.2-.8-5.4,9.3-6.5,18.5-6.5,18.5,0,0-2.4,6.7-4.1,2.7-1.7-3.9-.4-18.7-.4-18.7,0,0-3.9-7.5.7-8.7s5.4-.6,5.4-.6h0Z"/>
      <path class="st1" d="M721.6,261.6s4.1,0,5.1,1.9,4.3,1.7,5.6,7.6c1.2,5.9-3.6,1.8-5.2,6.4-1.6,4.5-5.9,9-11.2,8.4s-14.9-1.4-14.7,2-2.2,1.9-2.5,1.8c-.4,0-11.6-4-13.5,1-2,5-1.4.2-1.4.2,0,0-3.6-3.1-2.2-6.1,1.4-2.9,3.9-5.7,5.5-5.8,1.6-.1,10.9.3,11.5-3.1.6-3.3,12.6-7.2,14.2-7.3,1.7,0,3.2-7,8.8-7.1h0Z"/>
      <path class="st1" d="M781.7,290.5c0,19.3-14.3,34.9-32,34.9s-32-15.6-32-34.9,14.3-34.9,32-34.9,32,15.6,32,34.9Z"/>
      <path class="st1" d="M723.1,281.2s4.3,6.3-7.3,10.1c-11.6,3.8-8.3,5.3-7,8.1,1.4,2.8,1.7,13.1-1.5,10.4-3.2-2.6,0-2.8-6.4-9.6-6.6-6.8-17.1-8.9-11-14.4s11.7-6.8,13.7-3.4c2.1,3.4,4.5,6.8,6.2,3.6,1.7-3.2-2-8.7,1.8-11.4,3.8-2.7,7.7-1.1,11.5,6.6h0Z"/>
      <g>
        <path class="st1" d="M767.3,248.7s1.9-3.9,8.4-4.4c6.5-.4,17.2-1.8,17.4-3.1s4.9-1,1.9,2.6-9.1,4.7-7.1,7.2-2,1.9-1.5,2.3c.4.4-3.5-.9-1.2,3.1,2.3,3.9-4.4,7.3-5.6,7.7-1.2.4-3.6,3.3-2.6,5.1,1,1.8-1.3,4-2.4,4.9-1,.9-3.5,1.3-4.1.7-.6-.6-3.9-4.3-5.8-2.3-1.9,2-8-10.4-2.8-15.5,5.3-5.2,5.4-8.2,5.4-8.2h0Z"/>
        <path class="st1" d="M786.5,319.7c2.7,5.8-8.7,8.2-8.7,8.2,0,0-18.4-3.4-20.3-14.6s-1.5,2.6-4.6,0-8.3-.7-3.8-4.4,8.8-4.8,10.7-4.1c1.9.8,9.1-5.5,2.9-15.1-6.2-9.6,11.2-3,11.6-9.8.4-6.8-1.9-22.3,12.2-19.5,0,0,5.2.4,9.5-4.7,4.3-5.1,7.3-2.1,6,4.7-1.4,6.8,1,8.3-3.7,14.6-4.6,6.2,1,1.1,1,1.1,0,0,7.5-3.8,8.1,3.6s5.8,13.8-2.1,16.3c-7.9,2.5,0,1.9,0,1.9,0,0,5.6,5.3-2.1,8.9-7.7,3.6,5,12.7-16.6,13"/>
        <path class="st1" d="M751.7,252.4s4.1.6,3.9-6.2c-.2-6.8,10.3-.9,10.4,0,0,.9,2.9-.4,10.3,8.7,5.9,7.3,11.1.2,14.1,4,.7.9,1.3,2.5,1.8,5.1,2.3,13.2-12.2,5.7,3.9,13.4,16.1,7.8-3.7,5.5-5.2,4.2s-4.5,2.6-2,3.8c2.5,1.1,6.6.6,8.2,4.5,1.5,4,7.9,20.4-9.5,19.5s-19.9-10.6-20.1-2.3c-1.4,4.2-3.7,1.1-3.7,1.1-2.3-3-1.9-5.1-1.9-5.1,4.4-9.1.2-13.4.2-13.4-3.1-1.7.4-3,.4-3,1.4-2.2,5.2,1.7,5.2,1.7,13.1,4.2,6.6-13.1,6.6-13.1-5-17.8-12-8.3-12-8.3-1.1,1.2-2.5.4-2.5.4-1.7-11.9-7.9-6.6-7.9-6.6-10,4.4-16.4,11.2-16.4,11.2,0,0-6,4-5-.2s10.9-15.3,10.9-15.3c0,0,1.3-8.3,5.7-6.6s4.8,2.6,4.8,2.6h-.2Z"/>
        <path class="st1" d="M751.5,254.1s2.6-17.9-10.4-9.8c-12.9,8.1-18.4,3.7-17.6,11.1.8,7.4-2.7,1.9-2.7,2.1s-6.7-4.5-8.4,7.7-4.2,12.2-5.6,12.2-8.6,10.2,1.7,12,8,5.6,8,5.6c0,0,.4,3.2,2.4,1.2,2-1.9,1.9-18.1,8.5-21.7,6.5-3.6,14.2-8.2,13.7-15.7-.4-7.4,4.9-7.4,5.9-8.2s-.3,4.7,2.1,4.5c2.4-.1,2.4-1.1,2.4-1.1h0Z"/>
        <path class="st1" d="M722.7,277.4s0-6.5-4.5-1.8,2,3.7-3.9,5.6-1.7,7.8-1.4,8c.3.1,2.8,7.6,0,13.5s2.4,2.2,2,2.5,2.4-.7,1.9.9c-.4,1.6-.7,8.3,7.3,10.2,8,1.9,11.7,5.2,15.9,2.6s-6.2-8.4-6.9-8.2c-.7.1-10.3-6.2-10.4-10.6,0-4.4-2.5-9.6-.9-13.1,1.6-3.4-.9-7.3-.9-7.3,0,0-.6-1.4,1.7-2.3h0Z"/>
        <path class="st1" d="M783.5,320.3s3.9-2.1,9.5,1.4c5.6,3.4,15.3,8.7,16.3,7.7s4.6,2.1,0,3.2-10.4-1.5-10.3,1.6c0,3.2-2.8.4-2.7,1,0,.5-2.4-2.7-2.8,1.8-.4,4.5-8,3.3-9.3,2.9s-4.9.5-5.2,2.6-3.5,2.5-4.9,2.6-3.7-1-3.8-1.8-.6-5.8-3.4-5.3c-2.8.5-.4-13.1,7-14.2,7.5-1.1,9.4-3.4,9.4-3.4h.2Z"/>
        <path class="st1" d="M772,321.8s3.4,2.4,3.1,4.6c-.3,2.1,2.5,4,0,9.4-2.5,5.5-4.1-.6-8.1,2.1s-10.3,3.8-14.3.2c-4-3.6-11.5-9.9-13.4-7-1.9,2.8-2.9.3-3.2,0s-7.2-10-11.8-7.1-1.3-.7-1.3-.7c0,0-1.1-4.7,1.8-6.2,2.9-1.5,6.6-2.3,8-1.5s8.8,6.6,11.4,4.3c2.5-2.3,14.7,1.5,16.1,2.5,1.4,1,6.8-3.8,11.6-.5h.1Z"/>
      </g>
      <path class="st1" d="M403.4,372.5c0,17.8,11.9,32.2,26.7,32.2s26.7-14.4,26.7-32.2-11.9-32.2-26.7-32.2-26.7,14.4-26.7,32.2Z"/>
      <g>
        <path class="st1" d="M415.4,334s-1.6-3.6-7-4-14.3-1.7-14.5-2.9c-.2-1.2-4.1-.9-1.5,2.4,2.5,3.3,7.6,4.4,6,6.7-1.6,2.3,1.7,1.8,1.3,2.1-.4.3,2.9-.8,1,2.8-1.9,3.6,3.7,6.7,4.7,7.1s3,3,2.2,4.7,1.1,3.7,2,4.6c.9.8,2.9,1.2,3.4.7s3.2-4,4.8-2.2c1.6,1.8,6.7-9.5,2.3-14.3-4.4-4.8-4.5-7.6-4.5-7.6h-.2Z"/>
        <path class="st1" d="M399.4,399.4c-2.3,5.3,7.3,7.6,7.3,7.6,0,0,15.3-3.1,16.9-13.4s1.3,2.4,3.9,0,6.9-.7,3.1-4.1-7.3-4.5-9-3.8c-1.6.7-7.6-5.1-2.4-14s-9.4-2.8-9.7-9.1c-.3-6.3,1.6-20.6-10.2-18,0,0-4.4.3-7.9-4.4-3.5-4.7-6.1-1.9-5,4.4s-.8,7.7,3.1,13.4c3.9,5.8-.8,1-.8,1,0,0-6.3-3.5-6.8,3.3s-4.8,12.7,1.8,15,0,1.7,0,1.7c0,0-4.7,4.9,1.8,8.2,6.5,3.3-4.2,11.7,13.9,12"/>
        <path class="st1" d="M428.4,337.4s-3.4.5-3.2-5.8c.2-6.3-8.6-.9-8.6,0s-2.4-.4-8.6,8c-5,6.7-9.3.2-11.8,3.7-.6.9-1.1,2.3-1.5,4.7-1.9,12.2,10.2,5.2-3.2,12.4-13.4,7.2,3.1,5.1,4.4,3.8,1.3-1.2,3.8,2.4,1.6,3.5s-5.5.5-6.8,4.2-6.6,18.8,7.9,18,16.6-9.8,16.8-2.1c1.1,3.8,3.1,1,3.1,1,1.9-2.8,1.6-4.7,1.6-4.7-3.7-8.4-.2-12.4-.2-12.4,2.6-1.6-.3-2.8-.3-2.8-1.2-2.1-4.4,1.6-4.4,1.6-11,3.8-5.5-12-5.5-12,4.2-16.4,10-7.7,10-7.7.9,1.1,2.1.3,2.1.3,1.5-11,6.6-6.1,6.6-6.1,8.4,4,13.7,10.3,13.7,10.3,0,0,5,3.7,4.2-.2s-9.1-14.1-9.1-14.1c0,0-1.1-7.7-4.8-6.1-3.7,1.6-4,2.4-4,2.4h0Z"/>
        <path class="st1" d="M428.5,338.9s-2.1-16.5,8.7-9c10.8,7.5,15.4,3.4,14.7,10.3-.7,6.8,2.2,1.8,2.2,1.9s5.6-4.2,7,7.1c1.4,11.3,3.5,11.3,4.7,11.3s7.1,9.4-1.4,11-6.7,5.2-6.7,5.2c0,0-.4,2.9-2,1.1s-1.6-16.7-7.1-20-11.8-7.6-11.4-14.4-4.1-6.8-4.9-7.6c-.8-.8.3,4.3-1.7,4.2-2-.1-2-1-2-1h-.1Z"/>
        <path class="st1" d="M452.6,360.4s.1-6,3.7-1.6c3.6,4.3-1.6,3.4,3.3,5.2,4.9,1.8,1.4,7.2,1.2,7.4-.2.1-2.3,7-.1,12.4,2.2,5.4-2,2-1.6,2.3s-2-.6-1.6.8c.3,1.5.6,7.7-6.1,9.4-6.7,1.8-9.7,4.8-13.2,2.4s5.2-7.7,5.7-7.6c.6.1,8.6-5.7,8.7-9.8.1-4.1,2.1-8.9.8-12-1.3-3.2.8-6.7.8-6.7,0,0,.5-1.3-1.4-2.2h-.2Z"/>
        <path class="st1" d="M401.8,400s-3.3-1.9-8,1.3c-4.7,3.2-12.8,8-13.6,7.1-.8-.9-3.9,1.9,0,2.9s8.7-1.4,8.6,1.5,2.3.4,2.2.9c-.1.5,2-2.5,2.3,1.6.4,4.2,6.7,3,7.7,2.7,1.1-.4,4.1.5,4.3,2.4.2,1.9,2.9,2.3,4.1,2.4s3-.9,3.2-1.6c.1-.8.5-5.3,2.8-4.9s.4-12.1-5.9-13.1c-6.2-1-7.9-3.2-7.9-3.2h.2Z"/>
        <path class="st1" d="M411.4,401.4s-2.9,2.2-2.6,4.2-2.1,3.6,0,8.7,3.4-.6,6.8,2c3.4,2.5,8.6,3.5,11.9.2,3.4-3.3,9.6-9.1,11.2-6.5s2.4.3,2.7,0c.2-.3,6-9.3,9.8-6.6,3.9,2.7,1.1-.6,1.1-.6,0,0,.9-4.3-1.5-5.7-2.5-1.4-5.5-2.2-6.7-1.4-1.2.8-7.4,6.1-9.5,3.9s-12.3,1.4-13.5,2.3-5.7-3.5-9.6-.5h0Z"/>
      </g>
      <path class="st1" d="M518.8,189.7s2.3-17.9,12.4-6.7c10.1,11.2,16.4,8.4,13.6,15.3-2.8,6.9,2,2.5,2,2.7s7.6-2.6,5.9,9.6c-1.7,12.2.7,12.9,2.1,13.2,1.3.4,5.4,12-4.8,11.1-10.1-.9-9,3.4-9,3.4,0,0-1.2,2.9-2.6.6-1.3-2.4,3-18-2.2-23.1s-11.2-11.6-8.8-18.7c2.4-7-2.7-8.4-3.4-9.5s-.9,4.6-3.2,3.8-2-1.7-2-1.7h0Z"/>
      <path class="st1" d="M792,372.5c0,17.8-11.9,32.2-26.7,32.2s-26.7-14.4-26.7-32.2,11.9-32.2,26.7-32.2,26.7,14.4,26.7,32.2Z"/>
      <g>
        <path class="st1" d="M780,334s1.6-3.6,7-4,14.3-1.7,14.5-2.9c.2-1.2,4.1-.9,1.5,2.4-2.5,3.3-7.6,4.4-6,6.7,1.6,2.3-1.7,1.8-1.3,2.1.4.3-2.9-.8-1,2.8,1.9,3.6-3.7,6.7-4.7,7.1s-3,3-2.2,4.7-1.1,3.7-2,4.6c-.9.8-2.9,1.2-3.4.7s-3.2-4-4.8-2.2-6.7-9.5-2.3-14.3,4.5-7.6,4.5-7.6h.2Z"/>
        <path class="st1" d="M796,399.4c2.3,5.3-7.3,7.6-7.3,7.6,0,0-15.3-3.1-16.9-13.4-1.6-10.3-1.3,2.4-3.9,0-2.6-2.4-6.9-.7-3.1-4.1,3.8-3.4,7.3-4.5,9-3.8,1.6.7,7.6-5.1,2.4-14-5.2-8.9,9.4-2.8,9.7-9.1.3-6.3-1.6-20.6,10.2-18,0,0,4.4.3,7.9-4.4,3.5-4.7,6.1-1.9,5,4.4s.8,7.7-3.1,13.4c-3.9,5.8.8,1,.8,1,0,0,6.3-3.5,6.8,3.3s4.8,12.7-1.8,15,0,1.7,0,1.7c0,0,4.7,4.9-1.8,8.2-6.5,3.3,4.2,11.7-13.9,12"/>
        <path class="st1" d="M767,337.4s3.4.5,3.2-5.8,8.6-.9,8.6,0,2.4-.4,8.6,8c5,6.7,9.3.2,11.8,3.7.6.9,1.1,2.3,1.5,4.7,1.9,12.2-10.2,5.2,3.2,12.4,13.4,7.2-3.1,5.1-4.4,3.8-1.3-1.2-3.8,2.4-1.6,3.5,2.1,1,5.5.5,6.8,4.2s6.6,18.8-7.9,18c-14.5-.9-16.6-9.8-16.8-2.1-1.1,3.8-3.1,1-3.1,1-1.9-2.8-1.6-4.7-1.6-4.7,3.7-8.4.2-12.4.2-12.4-2.6-1.6.3-2.8.3-2.8,1.2-2.1,4.4,1.6,4.4,1.6,11,3.8,5.5-12,5.5-12-4.2-16.4-10-7.7-10-7.7-.9,1.1-2.1.3-2.1.3-1.5-11-6.6-6.1-6.6-6.1-8.4,4-13.7,10.3-13.7,10.3,0,0-5,3.7-4.2-.2.8-3.8,9.1-14.1,9.1-14.1,0,0,1.1-7.7,4.8-6.1s4,2.4,4,2.4h0Z"/>
        <path class="st1" d="M766.8,338.9s2.1-16.5-8.7-9-15.4,3.4-14.7,10.3c.7,6.8-2.2,1.8-2.2,1.9s-5.6-4.2-7,7.1c-1.4,11.3-3.5,11.3-4.7,11.3s-7.1,9.4,1.4,11,6.7,5.2,6.7,5.2c0,0,.4,2.9,2,1.1s1.6-16.7,7.1-20,11.8-7.6,11.4-14.4c-.4-6.8,4.1-6.8,4.9-7.6.8-.8-.3,4.3,1.7,4.2,2-.1,2-1,2-1h0Z"/>
        <path class="st1" d="M742.8,360.4s0-6-3.7-1.6c-3.6,4.3,1.6,3.4-3.3,5.2-4.9,1.8-1.4,7.2-1.2,7.4.2.1,2.3,7,0,12.4s2,2,1.6,2.3,2-.6,1.6.8c-.3,1.5-.6,7.7,6.1,9.4,6.7,1.8,9.7,4.8,13.2,2.4s-5.2-7.7-5.7-7.6c-.6.1-8.6-5.7-8.7-9.8,0-4.1-2.1-8.9-.8-12,1.3-3.2-.8-6.7-.8-6.7,0,0-.5-1.3,1.4-2.2h.2Z"/>
        <path class="st1" d="M793.5,400s3.3-1.9,8,1.3c4.7,3.2,12.8,8,13.6,7.1s3.9,1.9,0,2.9-8.7-1.4-8.5,1.5-2.3.4-2.2.9-2-2.5-2.3,1.6c-.4,4.2-6.7,3-7.7,2.7-1.1-.4-4.1.5-4.3,2.4s-2.9,2.3-4.1,2.4c-1.2.1-3-.9-3.2-1.6,0-.8-.5-5.3-2.8-4.9s-.4-12.1,5.9-13.1c6.2-1,7.9-3.2,7.9-3.2h-.3Z"/>
        <path class="st1" d="M783.9,401.4s2.9,2.2,2.6,4.2c-.3,2,2.1,3.6,0,8.7s-3.4-.6-6.8,2c-3.4,2.5-8.6,3.5-11.9.2-3.4-3.3-9.6-9.1-11.2-6.5-1.6,2.6-2.4.3-2.7,0-.2-.3-6-9.3-9.8-6.6-3.9,2.7-1.1-.6-1.1-.6,0,0-.9-4.3,1.5-5.7,2.5-1.4,5.5-2.2,6.7-1.4,1.2.8,7.4,6.1,9.5,3.9s12.3,1.4,13.5,2.3,5.7-3.5,9.6-.5h.1Z"/>
      </g>
      <path class="st1" d="M608.6,245.8s4.4,6.8-9.9,9.1c-14.3,2.3-10.5,4.2-9.2,7.2s.6,13.2-2.9,10.2.5-2.8-6.7-10.4-19.6-11-11.6-15.7c7.9-4.7,14.7-5.3,16.8-1.6,2.1,3.6,4.7,7.3,7,4.4,2.4-3-1.5-8.9,3.3-11.2s9.3-.2,13.1,8.1h.1Z"/>
    </g>
  </g>
  <g class="st3">
    <g class="st3">
      <path class="st2" d="M522.7,497.7c.8,0,1.3.4,1.3,1.3v16.3c0,3.2.2,5.2,3.3,5.2s3.3-2,3.3-5.2v-16.3c0-.8.5-1.3,1.3-1.3h4.7c.8,0,1.3.4,1.3,1.3v18.6c0,2.8-.6,10.1-10.5,10.1s-10.5-7.4-10.5-10.1v-18.6c0-.8.5-1.3,1.3-1.3h4.7Z"/>
      <path class="st2" d="M549,497.7c.7,0,1.2.3,1.5,1l5.7,13.9c.2.4.5.3.5-.1v-13.5c0-.8.5-1.3,1.3-1.3h4.7c.8,0,1.3.4,1.3,1.3v26.7c0,.8-.4,1.3-1.3,1.3h-6.1c-.7,0-1.2-.3-1.5-1l-5.7-13.9c-.2-.4-.5-.3-.5.1v13.5c0,.8-.4,1.3-1.3,1.3h-4.7c-.8,0-1.3-.5-1.3-1.3v-26.7c0-.8.5-1.3,1.3-1.3h6.1Z"/>
      <path class="st2" d="M573.8,497.7c.8,0,1.3.4,1.3,1.3v26.7c0,.8-.4,1.3-1.3,1.3h-4.6c-.8,0-1.3-.5-1.3-1.3v-26.7c0-.8.5-1.3,1.3-1.3h4.6Z"/>
      <path class="st2" d="M589.2,497.7c7.8,0,10.8,3.2,10.8,10s-.4,4.2-2.1,6c1.7.8,3,2.9,3,5.5,0,5.2-2.3,7.7-10.1,7.7h-10.3c-.8,0-1.3-.5-1.3-1.3v-26.6c0-.8.4-1.3,1.3-1.3h8.8ZM590.2,521c2,0,3-.2,3-2.2s-.9-2.3-2.9-2.3h-2.7c-.8,0-1.3.4-1.3,1.3v1.9c0,.8.5,1.3,1.3,1.3h2.6ZM589.9,510.6c2,0,3-.2,3-2.8s-1-2.8-3-2.8h-2.3c-.8,0-1.3.4-1.3,1.3v3.2c0,.8.5,1.3,1.3,1.3h2.3Z"/>
      <path class="st2" d="M625.6,524.6c.6,1.1,0,2.3-1.4,2.3h-4.8c-.4,0-.8-.2-1-.6l-4.3-8.4c0-.1-.2-.2-.3-.2h-1.7c-.8,0-1.3.5-1.3,1.3v6.6c0,.8-.5,1.3-1.3,1.3h-4.7c-.8,0-1.3-.5-1.3-1.3v-26.6c0-.8.5-1.3,1.3-1.3h9.1c7.4,0,10.4,3.2,10.4,10s-1,6.6-3.2,8.2c-.2.1-.2.3-.1.5l4.4,8.2ZM612.2,504.9c-.8,0-1.3.5-1.3,1.3v3.1c0,.8.5,1.3,1.3,1.3h2.1c2,0,3-.2,3-2.8s-1-2.8-3-2.8h-2.1Z"/>
      <path class="st2" d="M648.9,517.5c0,2.8-.6,10.1-10.5,10.1s-10.5-7.4-10.5-10.1v-10.4c0-2.8.6-10.1,10.5-10.1s10.5,7.4,10.5,10.1v10.4ZM641.7,509.3c0-3.2-.2-5.2-3.3-5.2s-3.3,2-3.3,5.2v6c0,3.2.2,5.2,3.3,5.2s3.3-2,3.3-5.2v-6Z"/>
      <path class="st2" d="M651.1,499.1c-.2-.9.2-1.4,1.1-1.4h5c.8,0,1.3.4,1.4,1.1l2.4,17.4c0,.4.4.4.5,0l2.8-17.4c.1-.7.6-1.1,1.4-1.1h3.6c.8,0,1.3.4,1.4,1.1l2.8,17.4c0,.4.4.4.5,0l2.4-17.4c0-.7.6-1.1,1.4-1.1h5c.9,0,1.3.5,1.1,1.4l-5.1,26.7c-.1.7-.6,1.1-1.4,1.1h-5.9c-.8,0-1.2-.4-1.4-1.1l-2.3-10.3c0-.4-.4-.4-.5,0l-2.3,10.3c-.2.7-.6,1.1-1.4,1.1h-5.9c-.8,0-1.3-.4-1.4-1.1l-5.1-26.7Z"/>
    </g>
  </g>
  <g class="st3">
    <g class="st3">
      <path class="st2" d="M492.2,540.6c0-2.8.6-10.1,10.5-10.1s10.2,5.8,10.4,9c0,.8-.3,1.2-1.1,1.4l-4.7,1c-.8.2-1.3-.2-1.4-1.1-.2-2-.9-3.2-3.3-3.2s-3.3,2-3.3,5.2v6c0,3.2.2,5.2,3.3,5.2s3.3-2,3.3-4h-2.4c-.8,0-1.3-.5-1.3-1.3v-3.3c0-.8.5-1.3,1.3-1.3h8.3c.8,0,1.3.4,1.3,1.3v5.6c0,2.8-.6,10.1-10.5,10.1s-10.5-7.4-10.5-10.1v-10.4Z"/>
      <path class="st2" d="M535.5,531.2c.8,0,1.3.4,1.3,1.3v4.7c0,.8-.4,1.3-1.3,1.3h-10.1c-.8,0-1.3.4-1.3,1.3v1.3c0,.8.5,1.3,1.3,1.3h6.5c.8,0,1.3.4,1.3,1.3v4.7c0,.8-.4,1.3-1.3,1.3h-6.5c-.8,0-1.3.4-1.3,1.3v1.3c0,.8.5,1.3,1.3,1.3h10.1c.8,0,1.3.4,1.3,1.3v4.7c0,.8-.4,1.3-1.3,1.3h-17.5c-.8,0-1.3-.5-1.3-1.3v-26.7c0-.8.5-1.3,1.3-1.3h17.5Z"/>
      <path class="st2" d="M547.4,531.2c.7,0,1.2.3,1.5,1l5.7,13.9c.2.4.5.3.5-.1v-13.5c0-.8.5-1.3,1.3-1.3h4.7c.8,0,1.3.4,1.3,1.3v26.7c0,.8-.4,1.3-1.3,1.3h-6.1c-.7,0-1.2-.3-1.5-1l-5.7-13.9c-.2-.4-.5-.3-.5.1v13.5c0,.8-.4,1.3-1.3,1.3h-4.7c-.8,0-1.3-.5-1.3-1.3v-26.7c0-.8.5-1.3,1.3-1.3h6.1Z"/>
      <path class="st2" d="M585.1,531.2c.8,0,1.3.4,1.3,1.3v4.7c0,.8-.4,1.3-1.3,1.3h-10.1c-.8,0-1.3.4-1.3,1.3v1.3c0,.8.5,1.3,1.3,1.3h6.5c.8,0,1.3.4,1.3,1.3v4.7c0,.8-.4,1.3-1.3,1.3h-6.5c-.8,0-1.3.4-1.3,1.3v1.3c0,.8.5,1.3,1.3,1.3h10.1c.8,0,1.3.4,1.3,1.3v4.7c0,.8-.4,1.3-1.3,1.3h-17.5c-.8,0-1.3-.5-1.3-1.3v-26.7c0-.8.5-1.3,1.3-1.3h17.5Z"/>
      <path class="st2" d="M611.6,558.1c.6,1.1,0,2.3-1.4,2.3h-4.8c-.4,0-.8-.2-1-.6l-4.3-8.4c0-.1-.2-.2-.3-.2h-1.7c-.8,0-1.3.5-1.3,1.3v6.6c0,.8-.5,1.3-1.3,1.3h-4.7c-.8,0-1.3-.5-1.3-1.3v-26.6c0-.8.5-1.3,1.3-1.3h9.1c7.4,0,10.4,3.2,10.4,10s-1,6.6-3.2,8.2c-.2.1-.2.3-.1.5l4.4,8.2ZM598.1,538.4c-.8,0-1.3.5-1.3,1.3v3.1c0,.8.5,1.3,1.3,1.3h2.1c2,0,3-.2,3-2.8s-1-2.8-3-2.8h-2.1Z"/>
      <path class="st2" d="M634.5,559c0,.9-.4,1.4-1.3,1.4h-4.7c-.8,0-1.3-.4-1.3-1.3v-3.6c0-.8-.4-1.3-1.2-1.3h-3.6c-.8,0-1.3.4-1.3,1.3v3.6c0,.8-.4,1.3-1.3,1.3h-4.7c-.8,0-1.3-.5-1.3-1.4v-17.7c0-5.3.8-10.8,10.2-10.8s10.2,5.6,10.2,10.8v17.7ZM627.4,541.3c0-2-.3-3-3-3s-3,1-3,3v4.5c0,.8.5,1.3,1.3,1.3h3.6c.8,0,1.2-.5,1.2-1.3v-4.5Z"/>
      <path class="st2" d="M644.3,539.6c0-.8-.4-1.3-1.3-1.3h-5.8c-.8,0-1.3-.5-1.3-1.3v-4.7c0-.8.5-1.3,1.3-1.3h21.4c.8,0,1.2.4,1.2,1.3v4.7c0,.8-.4,1.3-1.2,1.3h-5.8c-.8,0-1.3.4-1.3,1.3v19.5c0,.8-.4,1.3-1.3,1.3h-4.7c-.8,0-1.3-.5-1.3-1.3v-19.5Z"/>
      <path class="st2" d="M682.4,551c0,2.8-.6,10.1-10.5,10.1s-10.5-7.4-10.5-10.1v-10.4c0-2.8.6-10.1,10.5-10.1s10.5,7.4,10.5,10.1v10.4ZM675.3,542.8c0-3.2-.2-5.2-3.3-5.2s-3.3,2-3.3,5.2v6c0,3.2.2,5.2,3.3,5.2s3.3-2,3.3-5.2v-6Z"/>
      <path class="st2" d="M708.2,558.1c.6,1.1,0,2.3-1.4,2.3h-4.8c-.4,0-.8-.2-1-.6l-4.3-8.4c0-.1-.2-.2-.3-.2h-1.7c-.8,0-1.3.5-1.3,1.3v6.6c0,.8-.5,1.3-1.3,1.3h-4.7c-.8,0-1.3-.5-1.3-1.3v-26.6c0-.8.5-1.3,1.3-1.3h9.1c7.4,0,10.4,3.2,10.4,10s-1,6.6-3.2,8.2c-.2.1-.2.3-.1.5l4.4,8.2ZM694.7,538.4c-.8,0-1.3.5-1.3,1.3v3.1c0,.8.5,1.3,1.3,1.3h2.1c2,0,3-.2,3-2.8s-1-2.8-3-2.8h-2.1Z"/>
    </g>
  </g>
  <path class="st4" d="M611.4,435.4h12.3l-3.9-3-5.5-30.6c-7,2.6,0,10.8-1.2,16.4h-8.2c-.6-.4,6.5-9.5,5.3-11.5-6.8,8.9-10.5,21.3-19.3,28.3l10.7.4-4.1-2.9c1.4-2.6,5.4-12.2,7.8-12.7s5.6,0,7.8.4c1.3.9,3,11.4,2.1,12.8s-3.4.6-3.7,2.4h0Z"/>
  <path class="st4" d="M596.6,402.6h-22.2c.9,2.2,5.2.2,4.1,3.6-3.7,7.2-3.5,18.8-6.5,25.6s-2.4,1.9-3.3,3.6h12.3l-4.9-3,3.3-14.2c2.4-.1,8.9-.7,10.2,1.5s-.4,4,1.2,4.1c0-3.5,1.8-7.1,2.4-10.3s-2.5,1.9-2.8,2.1c-2.8,2.1-6.9,1.6-10.3,1.6l2.5-13c.3-.3,8.1-.2,9.2,0,3.4,1,.7,5.1,3.9,4.8l.8-6.6v.2Z"/>
  <path class="st4" d="M649.1,402.6h-13.1v32h13.1v-11.5h6.6v11.5h13.1v-32h-13.1v10.1c-.6,1.5-2.3,1.5-3.7,1.4s-1.4,0-2.1-.4l-.8-11.1Z"/>
  <path d="M522.8,434.6c1.4-.4,1.9-.7,2.7-1.9,1.9-2.9,11.2-23.4,11.9-26.6s.2-1.2,0-1.9c-.4-.4-5.3,1-5.7-1.6l9.4.8c2,6.8,2.3,14,3.7,20.9s-.8,2.4,1.2,2.1c1.2-.4,9.3-21,11.5-23s4.8-.6,7-.8l-4,3c.5,4.9-.8,10-1,14.6s-.4,10.4.2,12.2,3.6,1.3,4,3h-12.3l4-3,1.7-24.1c-6.1,6.8-8.2,17.9-12.9,25.2s0,1.5-1.8,1.1l-4.5-27.1c-1.1,3.6-11,24.3-9.4,26.2s4,0,4,1.7h-9.8v-.8h0Z"/>
  <path d="M649.1,402.6l.8,11.1c.7.4,1.4.4,2.1.4,1.4,0,3.1,0,3.6-1.4v-10.1h13.2v32h-13.1v-11.5h-6.6v11.5h-13.1v-32h13.1Z"/>
  <path d="M611.4,435.4c.3-1.9,3-1.4,3.7-2.4s-.7-11.9-2.1-12.8c-2.2-.5-5.7-.8-7.8-.4s-6.4,10.1-7.8,12.7l4.1,2.9-10.7-.4c8.8-7,12.5-19.4,19.3-28.3,1.2,2-5.9,11-5.3,11.5h8.2c1.3-5.7-5.8-13.8,1.2-16.4l5.5,30.6,3.9,3h-12.3,0Z"/>
  <path d="M596.6,402.6l-.8,6.6c-3.1.4-.4-3.7-3.9-4.8s-8.8-.4-9.2,0l-2.5,13c3.3,0,7.5.5,10.3-1.6s3.5-5.4,2.8-2.1-2.4,6.8-2.4,10.3c-1.6,0-.3-2.6-1.2-4.1-1.3-2.3-7.7-1.6-10.2-1.5l-3.3,14.2,4.9,3h-12.3c1-1.7,2.3-1.1,3.3-3.6,2.9-6.8,2.7-18.4,6.5-25.6,1.1-3.4-3.2-1.4-4.1-3.6h22.2v-.2Z"/>
</svg>