<?xml version="1.0" encoding="UTF-8"?>
<svg id="Layer_1" data-name="Layer 1" xmlns="http://www.w3.org/2000/svg" viewBox="0 0 1050.41 536.17">
  <defs>
    <style>
      .cls-1 {
        fill: #fff;
      }
    </style>
  </defs>
  <g>
    <path class="cls-1" d="M6.44,324.13v44.95l10.96-14.25,111.82-20.1c-9.5-25.58-39.47,0-59.93-4.39v-29.96c1.46-2.19,34.72,23.75,42.02,19.37-32.52-24.85-77.84-38.37-103.41-70.53l-1.46,39.1,10.6-14.98c9.5,5.12,44.58,19.73,46.41,28.5,1.83,8.77,0,20.46-1.46,28.5-3.29,4.75-41.66,10.96-46.77,7.67s-2.19-12.42-8.77-13.52h0v-.37Z"/>
    <path class="cls-1" d="M126.3,270.05v-81.12c-8.04,3.29-.73,19-13.16,14.98-26.31-13.52-68.7-12.79-93.55-23.75-24.85-10.96-6.94-8.77-13.16-12.06v44.95l10.96-17.91,51.89,12.06c.37,8.77,2.56,32.52-5.48,37.27s-14.62-1.46-14.98,4.39c12.79,0,25.95,6.58,37.64,8.77s-6.94-9.14-7.67-10.23c-7.67-10.23-5.85-25.21-5.85-37.64l47.51,9.14c1.1,1.1.73,29.6,0,33.62-3.65,12.42-18.64,2.56-17.54,14.25l24.12,2.92h-.73v.37Z"/>
    <path class="cls-1" d="M126.3,461.89v-47.87H9.36v47.87h42.02v24.12H9.36v47.87h116.94v-47.87h-36.91c-5.48-2.19-5.48-8.4-5.12-13.52s0-5.12,1.46-7.67l40.56-2.92Z"/>
    <path d="M9.36.37c1.46,5.12,2.56,6.94,6.94,9.87,10.6,6.94,85.51,40.93,97.2,43.49,11.69,2.56,4.39.73,6.94,0,1.46-1.46-3.65-19.37,5.85-20.83l-2.92,34.35c-24.85,7.31-51.16,8.4-76.37,13.52s-8.77-2.92-7.67,4.39c1.46,4.39,76.74,33.98,84.05,42.02s2.19,17.54,2.92,25.58l-10.96-14.62c-17.91,1.83-36.54-2.92-53.35-3.65-16.81-.73-38-1.46-44.58.73s-4.75,13.16-10.96,14.62v-44.95l10.96,14.62,88.07,6.21c-24.85-22.29-65.41-29.96-92.09-47.14-26.68-17.17-5.48,0-4.02-6.58l99.03-16.44C95.24,51.52,19.59,15.35,12.65,21.19s0,14.62-6.21,14.62V0h2.92v.37Z"/>
    <path d="M126.3,461.89l-40.56,2.92c-1.46,2.56-1.46,5.12-1.46,7.67,0,5.12,0,11.33,5.12,13.16h36.91v48.24H9.36v-47.87h42.02v-24.12H9.36v-47.87h116.94v47.87Z"/>
    <path d="M6.44,324.13c6.94,1.1,5.12,10.96,8.77,13.52s43.49-2.56,46.77-7.67c1.83-8.04,2.92-20.83,1.46-28.5s-36.91-23.39-46.41-28.5l-10.6,14.98,1.46-39.1c25.58,32.16,70.89,45.68,103.41,70.53-7.31,4.39-40.2-21.56-42.02-19.37v29.96c20.83,4.75,50.43-21.19,59.93,4.39l-111.82,20.1-10.96,14.25v-44.95h0v.37Z"/>
    <path d="M126.3,270.05l-24.12-2.92c-1.46-11.33,13.52-1.46,17.54-14.25,4.02-12.79,1.46-32.16,0-33.62l-47.51-9.14c0,12.06-1.83,27.41,5.85,37.64,7.67,10.23,19.73,12.79,7.67,10.23-12.06-2.56-24.85-8.77-37.64-8.77,0-5.85,9.5-1.1,14.98-4.39,8.4-4.75,5.85-28.14,5.48-37.27l-51.89-12.06-10.96,17.91v-44.95c6.21,3.65,4.02,8.4,13.16,12.06,24.85,10.6,67.24,9.87,93.55,23.75,12.42,4.02,5.12-11.69,13.16-14.98v81.12h.73v-.37Z"/>
  </g>
  <g>
    <path d="M281.73,20.54h-50.16v25.43h45.65v20.54h-45.65v51.42h-23.3V0h73.46v20.54Z"/>
    <path d="M355.03,62.24c2.32.47,4.33,1.57,6.04,3.28,1.71,1.71,3.8,5.04,6.28,9.99l21.33,42.41h-25.59l-14.22-29.78c-.42-.84-.97-2-1.66-3.48-4.16-8.9-9.06-13.35-14.69-13.35h-7.43v46.6h-23.3V0h33.65c15.17,0,26.05,2.68,32.66,8.06,6.61,5.37,9.91,14.11,9.91,26.22,0,8.11-1.97,14.56-5.92,19.35-3.95,4.79-9.64,7.66-17.06,8.61ZM325.09,19.59v32.15h10.98c6.37,0,10.94-1.25,13.7-3.75,2.76-2.5,4.15-6.62,4.15-12.36s-1.37-9.85-4.11-12.32c-2.74-2.47-7.32-3.71-13.74-3.71h-10.98Z"/>
    <path d="M402.26,20.54V0h70.22v20.54h-23.46v76.85h23.46v20.54h-70.22v-20.54h23.46V20.54h-23.46Z"/>
    <path d="M496.89,0h24.96c19.27,0,33.15,4.59,41.63,13.78,8.48,9.19,12.72,24.21,12.72,45.06s-4.24,35.98-12.72,45.22c-8.48,9.24-22.35,13.86-41.63,13.86h-24.96V0ZM520.19,21.01v75.9h6.32c9.16,0,15.69-2.88,19.59-8.65,3.9-5.77,5.84-15.57,5.84-29.42s-1.95-23.48-5.84-29.22c-3.9-5.74-10.43-8.61-19.59-8.61h-6.32Z"/>
    <path d="M617.89,0h28.51l31.83,117.92h-23.3l-7.27-29.15h-31.2l-7.11,29.15h-23.3L617.89,0ZM632.11,21.33l-10.98,48.26h22.04l-11.06-48.26Z"/>
    <path d="M203.14,138.65h23.3v46.6l36.49-46.6h26.38l-37.2,46.44,38.54,71.48h-25.91l-27.96-53.08-10.35,13.11v39.97h-23.3v-117.92Z"/>
    <path d="M327.54,138.65h28.51l31.83,117.92h-23.3l-7.27-29.15h-31.2l-7.11,29.15h-23.3l31.83-117.92ZM341.76,159.98l-10.98,48.26h22.04l-11.06-48.26Z"/>
    <path d="M399.5,138.65h23.3v44.94h29.15v-44.94h23.3v117.92h-23.3v-52.45h-29.15v52.45h-23.3v-117.92Z"/>
    <path d="M500.2,256.58v-117.92h23.3v97.39h49.84v20.54h-73.14Z"/>
    <path d="M587.09,197.73c0-20.17,3.49-35.41,10.47-45.73,6.98-10.32,17.28-15.48,30.92-15.48s24.02,5.16,31,15.48c6.98,10.32,10.46,25.57,10.46,45.73s-3.49,35.33-10.46,45.65c-6.98,10.32-17.31,15.48-31,15.48s-23.95-5.16-30.92-15.48c-6.98-10.32-10.47-25.54-10.47-45.65ZM628.48,157.45c-5.95,0-10.3,3.17-13.03,9.52-2.74,6.35-4.11,16.6-4.11,30.76s1.37,24.34,4.11,30.69c2.74,6.35,7.08,9.52,13.03,9.52s10.37-3.17,13.11-9.52c2.74-6.34,4.11-16.57,4.11-30.69s-1.37-24.42-4.11-30.76c-2.74-6.34-7.11-9.52-13.11-9.52Z"/>
    <path d="M202.27,351.71v-74.4h23.3v80.25c0,5.9,1.5,10.52,4.5,13.86,3,3.34,7.16,5.02,12.48,5.02s9.48-1.67,12.48-5.02c3-3.34,4.5-7.96,4.5-13.86v-80.25h23.3v74.4c0,16.01-3.19,27.64-9.56,34.91s-16.61,10.9-30.72,10.9-24.29-3.63-30.69-10.9c-6.4-7.27-9.6-18.9-9.6-34.91Z"/>
    <path d="M300.69,277.31h25.04l32.86,85.7v-85.7h20.54v117.92h-24.88l-33.02-85.7v85.7h-20.54v-117.92Z"/>
    <path d="M402.26,297.84v-20.54h70.22v20.54h-23.46v76.85h23.46v20.54h-70.22v-20.54h23.46v-76.85h-23.46Z"/>
    <path d="M494.12,277.15h37.99c13.11,0,22.97,2.49,29.58,7.46,6.61,4.98,9.91,12.41,9.91,22.31,0,7.58-1.95,13.51-5.84,17.77-3.9,4.27-9.61,6.74-17.14,7.43,9,.9,15.78,3.92,20.34,9.08,4.55,5.16,6.83,12.37,6.83,21.64,0,11.37-3.42,19.62-10.27,24.72-6.85,5.11-17.98,7.66-33.41,7.66h-37.99v-118.08ZM516.63,295.71v27.41h15.48c5.9,0,10.1-1.05,12.6-3.16,2.5-2.11,3.75-5.58,3.75-10.43s-1.28-8.36-3.83-10.54c-2.56-2.18-6.73-3.28-12.52-3.28h-15.48ZM516.63,341.68v34.91h15.48c7.42,0,12.62-1.26,15.6-3.79,2.98-2.53,4.46-6.92,4.46-13.19s-1.55-10.95-4.66-13.74c-3.11-2.79-8.24-4.19-15.4-4.19h-15.48Z"/>
    <path d="M645.38,339.55c2.32.47,4.33,1.57,6.04,3.28,1.71,1.71,3.8,5.04,6.28,9.99l21.33,42.41h-25.59l-14.22-29.78c-.42-.84-.98-2-1.66-3.48-4.16-8.9-9.06-13.35-14.69-13.35h-7.43v46.6h-23.3v-117.92h33.65c15.17,0,26.05,2.68,32.66,8.06,6.61,5.37,9.91,14.11,9.91,26.22,0,8.11-1.97,14.56-5.92,19.35-3.95,4.79-9.64,7.66-17.06,8.61ZM615.44,296.89v32.15h10.98c6.37,0,10.94-1.25,13.7-3.75,2.76-2.5,4.15-6.62,4.15-12.36s-1.37-9.85-4.11-12.32c-2.74-2.47-7.32-3.71-13.74-3.71h-10.98Z"/>
    <path d="M686.29,336.39c0-20.17,3.49-35.41,10.47-45.73,6.98-10.32,17.28-15.48,30.92-15.48s24.02,5.16,31,15.48c6.98,10.32,10.46,25.57,10.46,45.73s-3.49,35.33-10.46,45.65c-6.98,10.32-17.31,15.48-31,15.48s-23.95-5.16-30.92-15.48c-6.98-10.32-10.47-25.54-10.47-45.65ZM727.68,296.1c-5.95,0-10.3,3.17-13.03,9.52-2.74,6.35-4.11,16.6-4.11,30.76s1.37,24.34,4.11,30.68c2.74,6.35,7.08,9.52,13.03,9.52s10.37-3.17,13.11-9.52c2.74-6.34,4.11-16.57,4.11-30.68s-1.37-24.42-4.11-30.76c-2.74-6.34-7.11-9.52-13.11-9.52Z"/>
    <path d="M776.41,277.31h20.38l8.45,86.57,10.19-56h19.35l11.85,56,6.63-86.57h20.54l-13.59,117.92h-21.72l-13.43-61.92-12.56,61.92h-21.56l-14.53-117.92Z"/>
    <path d="M262.77,512.56v-22.51h-15.95v-19.59h36.33v54.03c-4.48,3.84-9.41,6.75-14.81,8.73-5.4,1.97-11.18,2.96-17.34,2.96-15.27,0-27.07-5.3-35.39-15.91-8.32-10.61-12.48-25.68-12.48-45.22s4.2-35.02,12.6-45.5c8.4-10.48,20.52-15.72,36.37-15.72,4.74,0,9.4.67,13.98,2.02,4.58,1.34,8.87,3.28,12.87,5.8v25.83c-3.27-4.21-7.02-7.39-11.26-9.52-4.24-2.13-8.89-3.2-13.94-3.2-8.85,0-15.46,3.33-19.83,9.99-4.37,6.66-6.56,16.76-6.56,30.29s2.11,23.09,6.32,29.93c4.21,6.85,10.35,10.27,18.4,10.27,2.42,0,4.53-.22,6.32-.67,1.79-.45,3.24-1.12,4.34-2.01Z"/>
    <path d="M378.01,533.88h-73.46v-117.93h73.46v20.54h-50.16v25.43h45.42v20.54h-45.42v30.88h50.16v20.54Z"/>
    <path d="M398.08,415.96h25.04l32.86,85.7v-85.7h20.54v117.93h-24.88l-33.02-85.7v85.7h-20.54v-117.93Z"/>
    <path d="M569.16,533.88h-73.46v-117.93h73.46v20.54h-50.16v25.43h45.42v20.54h-45.42v30.88h50.16v20.54Z"/>
    <path d="M643.56,478.2c2.32.47,4.33,1.57,6.04,3.28,1.71,1.71,3.8,5.04,6.28,9.99l21.33,42.41h-25.59l-14.22-29.78c-.42-.84-.98-2-1.66-3.48-4.16-8.9-9.06-13.35-14.69-13.35h-7.43v46.6h-23.3v-117.93h33.65c15.17,0,26.05,2.69,32.66,8.06,6.61,5.37,9.91,14.11,9.91,26.22,0,8.11-1.97,14.56-5.92,19.35-3.95,4.79-9.64,7.66-17.06,8.61ZM613.63,435.55v32.15h10.98c6.37,0,10.94-1.25,13.7-3.75,2.76-2.5,4.15-6.62,4.15-12.36s-1.37-9.85-4.11-12.32c-2.74-2.47-7.32-3.71-13.74-3.71h-10.98Z"/>
    <path d="M711.65,415.96h28.51l31.83,117.93h-23.3l-7.27-29.15h-31.2l-7.11,29.15h-23.3l31.83-117.93ZM725.87,437.28l-10.98,48.26h22.04l-11.06-48.26Z"/>
    <path d="M822.23,533.88h-23.3v-97.55h-29.94v-20.38h83.17v20.38h-29.93v97.55Z"/>
    <path d="M862.9,475.04c0-20.17,3.49-35.41,10.47-45.73,6.98-10.32,17.28-15.48,30.92-15.48s24.02,5.16,31,15.48c6.98,10.32,10.46,25.57,10.46,45.73s-3.49,35.33-10.46,45.65c-6.98,10.32-17.31,15.48-31,15.48s-23.95-5.16-30.92-15.48c-6.98-10.32-10.47-25.54-10.47-45.65ZM904.29,434.76c-5.95,0-10.3,3.17-13.03,9.52-2.74,6.35-4.11,16.6-4.11,30.76s1.37,24.34,4.11,30.68c2.74,6.35,7.08,9.52,13.03,9.52s10.37-3.17,13.11-9.52c2.74-6.34,4.11-16.57,4.11-30.68s-1.37-24.42-4.11-30.76c-2.74-6.34-7.11-9.52-13.11-9.52Z"/>
    <path d="M1016.77,478.2c2.32.47,4.33,1.57,6.04,3.28,1.71,1.71,3.8,5.04,6.28,9.99l21.33,42.41h-25.59l-14.22-29.78c-.42-.84-.98-2-1.66-3.48-4.16-8.9-9.06-13.35-14.69-13.35h-7.42v46.6h-23.3v-117.93h33.65c15.16,0,26.05,2.69,32.66,8.06,6.61,5.37,9.91,14.11,9.91,26.22,0,8.11-1.97,14.56-5.92,19.35-3.95,4.79-9.64,7.66-17.06,8.61ZM986.83,435.55v32.15h10.98c6.37,0,10.94-1.25,13.7-3.75,2.76-2.5,4.15-6.62,4.15-12.36s-1.37-9.85-4.11-12.32c-2.74-2.47-7.32-3.71-13.74-3.71h-10.98Z"/>
  </g>
</svg>