<?xml version="1.0" encoding="UTF-8"?>
<svg id="Layer_1" data-name="Layer 1" xmlns="http://www.w3.org/2000/svg" viewBox="0 0 344.29 92.9">
  <defs>
    <style>
      .cls-1 {
        fill: #219fc1;
      }
    </style>
  </defs>
  <g>
    <path d="M24.12,54.39h-10.56V10.2H0V.97h37.68v9.23h-13.56v44.19Z"/>
    <path d="M56.5.97h12.92l14.42,53.42h-10.56l-3.29-13.2h-14.13l-3.22,13.2h-10.56L56.5.97ZM62.94,10.63l-4.97,21.86h9.98l-5.01-21.86Z"/>
    <path d="M89.2.97h10.56v21.11L116.29.97h11.95l-16.85,21.04,17.46,32.38h-11.74l-12.67-24.05-4.69,5.94v18.11h-10.56V.97Z"/>
    <path d="M168.42,54.39h-33.28V.97h33.28v9.3h-22.72v11.52h20.57v9.3h-20.57v13.99h22.72v9.3Z"/>
    <path d="M223.17.97h14.49c7.37,0,12.67,1.31,15.91,3.94,3.23,2.62,4.85,6.88,4.85,12.77s-1.62,10.15-4.85,12.77c-3.23,2.62-8.53,3.94-15.91,3.94h-3.94v20h-10.56V.97ZM233.73,9.84v15.67h4.33c3.46,0,5.89-.58,7.28-1.75,1.39-1.17,2.09-3.2,2.09-6.08s-.7-4.91-2.09-6.08c-1.4-1.17-3.82-1.75-7.28-1.75h-4.33Z"/>
    <path d="M267.65,10.27V.97h31.81v9.3h-10.63v34.82h10.63v9.3h-31.81v-9.3h10.63V10.27h-10.63Z"/>
    <path d="M344.29,52.85c-1.67.86-3.42,1.5-5.26,1.93-1.84.43-3.77.64-5.8.64-7.2,0-12.7-2.37-16.5-7.12-3.79-4.75-5.69-11.6-5.69-20.57s1.9-15.86,5.69-20.61c3.79-4.75,9.29-7.12,16.5-7.12,2.03,0,3.97.21,5.83.64s3.6,1.07,5.22,1.93v11.74c-1.81-1.67-3.57-2.89-5.28-3.67-1.71-.77-3.47-1.16-5.28-1.16-3.86,0-6.78,1.53-8.75,4.6-1.97,3.07-2.95,7.62-2.95,13.65s.98,10.55,2.95,13.61c1.97,3.07,4.88,4.6,8.75,4.6,1.81,0,3.57-.39,5.28-1.16,1.71-.77,3.46-2,5.28-3.67v11.74Z"/>
  </g>
  <rect class="cls-1" y="73.08" width="317.16" height="19.82"/>
</svg>