<?xml version="1.0" encoding="UTF-8"?>
<svg id="Layer_1" xmlns="http://www.w3.org/2000/svg" version="1.1" viewBox="0 0 720 360">
  <!-- Generator: Adobe Illustrator 29.6.1, SVG Export Plug-In . SVG Version: 2.1.1 Build 9)  -->
  <defs>
    <style>
      .st0 {
        fill: #fff;
      }
    </style>
  </defs>
  <path class="st0" d="M674.7,32.5c8.6,0,15.7,7,15.7,15.7v263.7c0,8.6-7,15.7-15.7,15.7H45.3c-8.6,0-15.7-7-15.7-15.7V48.2c0-8.6,7-15.7,15.7-15.7h629.4M674.7,22.4H45.3c-14.2,0-25.8,11.5-25.8,25.8v263.7c0,14.2,11.5,25.8,25.8,25.8h629.4c14.2,0,25.8-11.5,25.8-25.8V48.2c0-14.2-11.5-25.8-25.8-25.8h0Z"/>
  <g>
    <path d="M96.6,148h-21.3c-1.5,0-2.6-1.3-2.6-2.6v-11.4c0-1.4,1.1-2.6,2.6-2.6h60.8c1.5,0,2.6,1.3,2.6,2.6v11.4c0,1.4-1.1,2.6-2.6,2.6h-21.3v78.1c0,1.4-1.3,2.6-2.6,2.6h-12.9c-1.4,0-2.6-1.3-2.6-2.6v-78.1Z"/>
    <path d="M135.3,225.1l43.3-93.7c.4-.8,1.1-1.5,2.4-1.5h1.4c1.4,0,1.9.7,2.4,1.5l42.9,93.7c.8,1.8-.3,3.6-2.4,3.6h-12.1c-2.1,0-3.1-.8-4-2.8l-6.8-15h-41.6l-6.8,15c-.6,1.4-1.8,2.8-4,2.8h-12.1c-2.1,0-3.2-1.8-2.4-3.6ZM195.4,195.4l-13.9-30.6h-.4l-13.6,30.6h28Z"/>
    <path d="M240.2,134.6c0-1.8,1.4-3.3,3.3-3.3h12.2c1.8,0,3.3,1.5,3.3,3.3v37.6l35.1-39.5c.6-.7,1.4-1.4,2.6-1.4h13.9c2.6,0,4,2.9,2.2,5l-36.3,40.9,39,46.6c1.4,1.8.3,4.9-2.5,4.9h-15.2c-1.4,0-2.2-.6-2.5-1l-36.3-44.8v42.5c0,1.8-1.5,3.3-3.3,3.3h-12.2c-1.9,0-3.3-1.5-3.3-3.3v-90.8Z"/>
    <path d="M331,133.9c0-1.4,1.1-2.6,2.6-2.6h56.6c1.5,0,2.6,1.3,2.6,2.6v11.4c0,1.4-1.1,2.6-2.6,2.6h-41.2v22.8h34.4c1.4,0,2.6,1.3,2.6,2.6v11.6c0,1.5-1.3,2.6-2.6,2.6h-34.4v24.4h41.2c1.5,0,2.6,1.3,2.6,2.6v11.4c0,1.4-1.1,2.6-2.6,2.6h-56.6c-1.5,0-2.6-1.3-2.6-2.6v-92.1Z"/>
    <path d="M443.6,133.9c0-1.4,1.1-2.6,2.6-2.6h32.7c17.1,0,31.2,13.9,31.2,30.8s-14.1,31.3-31,31.3h-17.4v32.7c0,1.4-1.3,2.6-2.6,2.6h-12.8c-1.5,0-2.6-1.3-2.6-2.6v-92.1ZM477.8,176.4c7.8,0,14.3-6.3,14.3-14.5s-6.5-13.5-14.3-13.5h-16.1v28h16.1Z"/>
    <path d="M526,133.9c0-1.4,1.3-2.6,2.6-2.6h12.9c1.4,0,2.6,1.3,2.6,2.6v92.1c0,1.4-1.3,2.6-2.6,2.6h-12.9c-1.4,0-2.6-1.3-2.6-2.6v-92.1Z"/>
    <path d="M612.7,129.9c14.1,0,24.2,4.5,33.7,12.9,1.3,1.1,1.3,2.8.1,3.9l-8.5,8.8c-1,1.1-2.4,1.1-3.5,0-5.8-5.1-13.6-8.2-21.4-8.2-17.8,0-31,14.9-31,32.4s13.4,32.2,31.2,32.2,15.4-3.2,21.3-7.9c1.1-1,2.6-.8,3.5,0l8.6,8.9c1.1,1,.8,2.8-.1,3.8-9.5,9.2-21.4,13.5-33.8,13.5-27.8,0-50.2-22.1-50.2-50s22.4-50.2,50.2-50.2Z"/>
  </g>
</svg>