<?xml version="1.0" encoding="UTF-8"?>
<svg id="Layer_1" xmlns="http://www.w3.org/2000/svg" version="1.1" viewBox="0 0 720 360">
  <!-- Generator: Adobe Illustrator 29.6.1, SVG Export Plug-In . SVG Version: 2.1.1 Build 9)  -->
  <defs>
    <style>
      .st0 {
        fill: #fff;
      }
    </style>
  </defs>
  <path class="st0" d="M674.7,32.5c8.6,0,15.7,7,15.7,15.7v263.7c0,8.6-7,15.7-15.7,15.7H45.3c-8.6,0-15.7-7-15.7-15.7V48.2c0-8.6,7-15.7,15.7-15.7h629.4M674.7,22.4H45.3c-14.2,0-25.8,11.5-25.8,25.8v263.7c0,14.2,11.5,25.8,25.8,25.8h629.4c14.2,0,25.8-11.5,25.8-25.8V48.2c0-14.2-11.5-25.8-25.8-25.8h0Z"/>
  <g>
    <path d="M89.8,148.6c0-.9.9-1.8,1.8-1.8h9c1,0,1.8.9,1.8,1.8v38.8c0,8.1,5.5,14.4,13.7,14.4s13.8-6.4,13.8-14.3v-38.9c0-.9.8-1.8,1.8-1.8h9c.9,0,1.8.9,1.8,1.8v39.4c0,14.4-11.5,26.1-26.5,26.1s-26.4-11.7-26.4-26.1v-39.4Z"/>
    <path d="M158.9,148.6c0-.9.8-1.8,1.8-1.8h22.3c11.7,0,21.2,9.5,21.2,21s-9.6,21.3-21.1,21.3h-11.9v22.3c0,.9-.9,1.8-1.8,1.8h-8.7c-1,0-1.8-.9-1.8-1.8v-62.8ZM182.2,177.5c5.3,0,9.8-4.3,9.8-9.9s-4.5-9.2-9.8-9.2h-11v19.1h11Z"/>
    <path d="M215,148.6c0-.9.8-1.8,1.8-1.8h8.7c.9,0,1.8.9,1.8,1.8v53.2h24.2c1,0,1.8.9,1.8,1.8v7.8c0,.9-.8,1.8-1.8,1.8h-34.7c-1,0-1.8-.9-1.8-1.8v-62.8Z"/>
    <path d="M291.5,145.9c19,0,34.1,15.3,34.1,34.2s-15.2,34-34.1,34-34-15.1-34-34,15.1-34.2,34-34.2ZM291.5,201.8c11.9,0,21.8-9.8,21.8-21.7s-9.9-21.9-21.8-21.9-21.7,10-21.7,21.9,9.8,21.7,21.7,21.7Z"/>
    <path d="M329,210.7l29.5-63.8c.3-.6.8-1,1.6-1h.9c.9,0,1.3.5,1.6,1l29.2,63.8c.6,1.2-.2,2.5-1.6,2.5h-8.2c-1.4,0-2.1-.6-2.7-1.9l-4.6-10.2h-28.4l-4.6,10.2c-.4.9-1.2,1.9-2.7,1.9h-8.2c-1.4,0-2.2-1.2-1.6-2.5ZM369.9,190.5l-9.5-20.9h-.3l-9.3,20.9h19.1Z"/>
    <path d="M400.5,148.6c0-.9.8-1.8,1.7-1.8h22.5c18.3,0,33.3,14.9,33.3,33.1s-15,33.3-33.3,33.3h-22.5c-.9,0-1.7-.9-1.7-1.8v-62.8ZM423.5,201.6c12.3,0,21.3-9.3,21.3-21.7s-9-21.6-21.3-21.6h-10.8v43.3h10.8Z"/>
    <path d="M491.4,148.6c0-.9.8-1.8,1.8-1.8h22.3c11.7,0,21.2,9.5,21.2,21s-9.6,21.3-21.1,21.3h-11.9v22.3c0,.9-.9,1.8-1.8,1.8h-8.7c-1,0-1.8-.9-1.8-1.8v-62.8ZM514.7,177.5c5.3,0,9.8-4.3,9.8-9.9s-4.5-9.2-9.8-9.2h-11v19.1h11Z"/>
    <path d="M547.5,148.6c0-.9.9-1.8,1.8-1.8h8.8c.9,0,1.8.9,1.8,1.8v62.8c0,.9-.9,1.8-1.8,1.8h-8.8c-.9,0-1.8-.9-1.8-1.8v-62.8Z"/>
    <path d="M606.6,145.9c9.6,0,16.5,3,22.9,8.8.9.8.9,1.9,0,2.7l-5.8,6c-.7.8-1.6.8-2.4,0-4-3.5-9.3-5.6-14.6-5.6-12.1,0-21.1,10.1-21.1,22.1s9.1,21.9,21.2,21.9,10.5-2.2,14.5-5.4c.8-.7,1.8-.6,2.4,0l5.9,6.1c.8.7.6,1.9,0,2.6-6.4,6.3-14.6,9.2-23,9.2-19,0-34.2-15.1-34.2-34s15.3-34.2,34.2-34.2Z"/>
  </g>
</svg>