<?xml version="1.0" encoding="UTF-8"?>
<svg id="Layer_1" data-name="Layer 1" xmlns="http://www.w3.org/2000/svg" viewBox="0 0 431.96 92.9">
  <defs>
    <style>
      .cls-1 {
        fill: #dc4a38;
      }
    </style>
  </defs>
  <rect class="cls-1" y="73.08" width="317.16" height="19.82"/>
  <g>
    <path d="M0,34.67V.97h10.56v36.35c0,2.67.68,4.77,2.04,6.28,1.36,1.51,3.24,2.27,5.65,2.27s4.29-.76,5.65-2.27c1.36-1.51,2.04-3.61,2.04-6.28V.97h10.56v33.71c0,7.25-1.44,12.52-4.33,15.82-2.89,3.29-7.53,4.94-13.92,4.94s-11-1.65-13.9-4.94c-2.9-3.29-4.35-8.56-4.35-15.82Z"/>
    <path d="M46.12.97h14.49c7.37,0,12.67,1.31,15.91,3.94,3.23,2.62,4.85,6.88,4.85,12.77s-1.62,10.15-4.85,12.77c-3.23,2.62-8.53,3.94-15.91,3.94h-3.94v20h-10.56V.97ZM56.68,9.84v15.67h4.33c3.46,0,5.89-.58,7.28-1.75s2.09-3.2,2.09-6.08-.7-4.91-2.09-6.08c-1.4-1.17-3.82-1.75-7.28-1.75h-4.33Z"/>
    <path d="M92.5,54.39V.97h10.56v44.12h22.58v9.3h-33.13Z"/>
    <path d="M131.86,27.73c0-9.14,1.58-16.04,4.74-20.72,3.16-4.67,7.83-7.01,14.01-7.01s10.88,2.34,14.04,7.01c3.16,4.68,4.74,11.58,4.74,20.72s-1.58,16.01-4.74,20.68c-3.16,4.68-7.84,7.01-14.04,7.01s-10.85-2.34-14.01-7.01c-3.16-4.67-4.74-11.57-4.74-20.68ZM150.6,9.48c-2.7,0-4.66,1.44-5.9,4.31-1.24,2.88-1.86,7.52-1.86,13.94s.62,11.03,1.86,13.9c1.24,2.88,3.21,4.31,5.9,4.31s4.7-1.44,5.94-4.31c1.24-2.88,1.86-7.51,1.86-13.9s-.62-11.06-1.86-13.94c-1.24-2.87-3.22-4.31-5.94-4.31Z"/>
    <path d="M188.28.97h12.92l14.42,53.42h-10.56l-3.29-13.2h-14.13l-3.22,13.2h-10.56L188.28.97ZM194.72,10.63l-4.97,21.86h9.98l-5.01-21.86Z"/>
    <path d="M221.7.97h11.31c8.73,0,15.02,2.08,18.86,6.24,3.84,4.16,5.76,10.97,5.76,20.41s-1.92,16.3-5.76,20.49c-3.84,4.19-10.13,6.28-18.86,6.28h-11.31V.97ZM232.26,10.48v34.39h2.86c4.15,0,7.11-1.31,8.87-3.92,1.76-2.61,2.65-7.06,2.65-13.33s-.88-10.64-2.65-13.24c-1.77-2.6-4.72-3.9-8.87-3.9h-2.86Z"/>
    <path d="M310.83.97h14.49c7.37,0,12.67,1.31,15.91,3.94,3.23,2.62,4.85,6.88,4.85,12.77s-1.62,10.15-4.85,12.77c-3.23,2.62-8.53,3.94-15.91,3.94h-3.94v20h-10.56V.97ZM321.39,9.84v15.67h4.33c3.46,0,5.89-.58,7.28-1.75,1.39-1.17,2.09-3.2,2.09-6.08s-.7-4.91-2.09-6.08c-1.4-1.17-3.82-1.75-7.28-1.75h-4.33Z"/>
    <path d="M355.31,10.27V.97h31.81v9.3h-10.63v34.81h10.63v9.3h-31.81v-9.3h10.63V10.27h-10.63Z"/>
    <path d="M431.96,52.85c-1.67.86-3.42,1.5-5.26,1.93s-3.77.64-5.8.64c-7.2,0-12.7-2.37-16.5-7.12-3.79-4.75-5.69-11.6-5.69-20.57s1.9-15.86,5.69-20.61c3.79-4.75,9.29-7.12,16.5-7.12,2.03,0,3.97.21,5.83.64s3.6,1.07,5.22,1.93v11.74c-1.81-1.67-3.57-2.89-5.28-3.67-1.71-.77-3.47-1.16-5.28-1.16-3.86,0-6.78,1.53-8.75,4.6-1.97,3.07-2.95,7.62-2.95,13.65s.98,10.55,2.95,13.62,4.88,4.6,8.75,4.6c1.81,0,3.57-.39,5.28-1.16,1.71-.77,3.46-2,5.28-3.67v11.74Z"/>
  </g>
</svg>