<?xml version="1.0" encoding="UTF-8"?>
<svg id="Layer_1" data-name="Layer 1" xmlns="http://www.w3.org/2000/svg" viewBox="0 0 440.94 92.99">
  <defs>
    <style>
      .cls-1 {
        fill: #dc4a38;
      }
    </style>
  </defs>
  <rect class="cls-1" y="73.17" width="317.16" height="19.82"/>
  <g>
    <path d="M.56,34.91V.97h10.63v36.6c0,2.69.68,4.8,2.05,6.32,1.37,1.53,3.27,2.29,5.69,2.29s4.32-.76,5.69-2.29c1.37-1.52,2.05-3.63,2.05-6.32V.97h10.63v33.94c0,7.3-1.45,12.61-4.36,15.92-2.91,3.31-7.58,4.97-14.01,4.97s-11.08-1.66-14-4.97S.56,42.21.56,34.91Z"/>
    <path d="M47,.97h14.59c7.42,0,12.76,1.32,16.01,3.96s4.88,6.93,4.88,12.86-1.63,10.22-4.88,12.86c-3.25,2.64-8.59,3.96-16.01,3.96h-3.96v20.14h-10.63V.97ZM57.63,9.91v15.78h4.36c3.48,0,5.93-.59,7.33-1.77,1.4-1.18,2.11-3.22,2.11-6.12s-.7-4.95-2.11-6.12c-1.41-1.18-3.85-1.77-7.33-1.77h-4.36Z"/>
    <path d="M93.69,54.76V.97h10.63v44.42h22.73v9.37h-33.36Z"/>
    <path d="M133.32,27.92c0-9.2,1.59-16.15,4.77-20.86,3.18-4.71,7.88-7.06,14.1-7.06s10.96,2.35,14.14,7.06c3.18,4.71,4.77,11.66,4.77,20.86s-1.59,16.12-4.77,20.82c-3.18,4.71-7.9,7.06-14.14,7.06s-10.92-2.35-14.1-7.06c-3.18-4.71-4.77-11.65-4.77-20.82ZM152.19,9.55c-2.71,0-4.7,1.45-5.94,4.34-1.25,2.89-1.87,7.57-1.87,14.03s.62,11.1,1.87,14c1.25,2.89,3.23,4.34,5.94,4.34s4.73-1.45,5.98-4.34c1.25-2.89,1.87-7.56,1.87-14s-.62-11.14-1.87-14.03c-1.25-2.89-3.24-4.34-5.98-4.34Z"/>
    <path d="M190.13.97h13l14.52,53.79h-10.63l-3.31-13.29h-14.23l-3.24,13.29h-10.63L190.13.97ZM196.61,10.7l-5.01,22.01h10.05l-5.04-22.01Z"/>
    <path d="M223.78.97h11.38c8.79,0,15.12,2.1,18.99,6.29,3.87,4.19,5.8,11.04,5.8,20.55s-1.93,16.41-5.8,20.62c-3.87,4.21-10.2,6.32-18.99,6.32h-11.38V.97ZM234.4,10.56v34.62h2.88c4.18,0,7.16-1.31,8.93-3.94,1.78-2.63,2.67-7.1,2.67-13.42s-.89-10.71-2.67-13.33c-1.78-2.62-4.76-3.93-8.93-3.93h-2.88Z"/>
    <path d="M311.97.97h11.42l14.99,39.09V.97h9.37v53.79h-11.35l-15.06-39.09v39.09h-9.37V.97Z"/>
    <path d="M391.65,54.76h-33.5V.97h33.5v9.37h-22.88v11.6h20.71v9.37h-20.71v14.09h22.88v9.37Z"/>
    <path d="M396.52.97h9.29l3.85,39.48,4.65-25.54h8.83l5.4,25.54,3.03-39.48h9.37l-6.2,53.79h-9.91l-6.12-28.24-5.73,28.24h-9.83l-6.63-53.79Z"/>
  </g>
</svg>